<?xml version="1.0" encoding="UTF-8"?>
<svg id="Layer_2" data-name="Layer 2" xmlns="http://www.w3.org/2000/svg" viewBox="0 0 693.24 415.95">
  <defs>
    <style>
      .cls-1 {
        fill: #daff06;
      }
    </style>
  </defs>
  <g id="Layer_1-2" data-name="Layer 1">
    <g>
      <g>
        <rect class="cls-1" x="637.38" y="383.19" width="55.86" height="32.76" rx="6.93" ry="6.93" transform="translate(1330.62 799.13) rotate(180)"/>
        <rect class="cls-1" x="579.43" y="383.19" width="55.86" height="32.76" rx="6.93" ry="6.93" transform="translate(1214.73 799.13) rotate(180)"/>
        <rect class="cls-1" x="521.49" y="383.19" width="55.86" height="32.76" rx="6.93" ry="6.93" transform="translate(1098.85 799.13) rotate(180)"/>
        <rect class="cls-1" x="463.55" y="383.19" width="55.86" height="32.76" rx="6.93" ry="6.93" transform="translate(982.96 799.13) rotate(180)"/>
        <rect class="cls-1" x="405.6" y="383.19" width="55.86" height="32.76" rx="6.93" ry="6.93" transform="translate(867.07 799.13) rotate(180)"/>
        <rect class="cls-1" x="347.66" y="383.19" width="55.86" height="32.76" rx="6.93" ry="6.93" transform="translate(751.19 799.13) rotate(180)"/>
        <rect class="cls-1" x="289.72" y="383.19" width="55.86" height="32.76" rx="6.93" ry="6.93" transform="translate(635.3 799.13) rotate(180)"/>
        <rect class="cls-1" x="231.77" y="383.19" width="55.86" height="32.76" rx="6.93" ry="6.93" transform="translate(519.41 799.13) rotate(180)"/>
        <rect class="cls-1" x="173.83" y="383.19" width="55.86" height="32.76" rx="6.93" ry="6.93" transform="translate(403.52 799.13) rotate(180)"/>
        <rect class="cls-1" x="115.89" y="383.19" width="55.86" height="32.76" rx="6.93" ry="6.93" transform="translate(287.64 799.13) rotate(180)"/>
        <rect class="cls-1" x="57.94" y="383.19" width="55.86" height="32.76" rx="6.93" ry="6.93" transform="translate(171.75 799.13) rotate(180)"/>
        <rect class="cls-1" y="383.19" width="55.86" height="32.76" rx="6.93" ry="6.93" transform="translate(55.86 799.13) rotate(180)"/>
        <rect class="cls-1" x="637.38" y="348.35" width="55.86" height="32.76" rx="6.93" ry="6.93" transform="translate(1330.62 729.46) rotate(180)"/>
        <rect class="cls-1" x="579.43" y="348.35" width="55.86" height="32.76" rx="6.93" ry="6.93" transform="translate(1214.73 729.46) rotate(180)"/>
        <rect class="cls-1" x="521.49" y="348.35" width="55.86" height="32.76" rx="6.93" ry="6.93" transform="translate(1098.85 729.46) rotate(180)"/>
        <rect class="cls-1" x="463.55" y="348.35" width="55.86" height="32.76" rx="6.93" ry="6.93" transform="translate(982.96 729.46) rotate(180)"/>
        <rect class="cls-1" x="405.6" y="348.35" width="55.86" height="32.76" rx="6.93" ry="6.93" transform="translate(867.07 729.46) rotate(180)"/>
        <rect class="cls-1" x="347.66" y="348.35" width="55.86" height="32.76" rx="6.93" ry="6.93" transform="translate(751.19 729.46) rotate(180)"/>
        <rect class="cls-1" x="289.72" y="348.35" width="55.86" height="32.76" rx="6.93" ry="6.93" transform="translate(635.3 729.46) rotate(180)"/>
        <rect class="cls-1" x="231.77" y="348.35" width="55.86" height="32.76" rx="6.93" ry="6.93" transform="translate(519.41 729.46) rotate(180)"/>
        <rect class="cls-1" x="173.83" y="348.35" width="55.86" height="32.76" rx="6.93" ry="6.93" transform="translate(403.52 729.46) rotate(180)"/>
        <rect class="cls-1" x="115.89" y="348.35" width="55.86" height="32.76" rx="6.93" ry="6.93" transform="translate(287.64 729.46) rotate(180)"/>
        <rect class="cls-1" x="57.94" y="348.35" width="55.86" height="32.76" rx="6.93" ry="6.93" transform="translate(171.75 729.46) rotate(180)"/>
        <rect class="cls-1" y="348.35" width="55.86" height="32.76" rx="6.93" ry="6.93" transform="translate(55.86 729.46) rotate(180)"/>
        <rect class="cls-1" x="637.38" y="313.52" width="55.86" height="32.76" rx="6.93" ry="6.93" transform="translate(1330.62 659.79) rotate(180)"/>
        <rect class="cls-1" x="579.43" y="313.52" width="55.86" height="32.76" rx="6.93" ry="6.93" transform="translate(1214.73 659.79) rotate(180)"/>
        <rect class="cls-1" x="521.49" y="313.52" width="55.86" height="32.76" rx="6.93" ry="6.93" transform="translate(1098.85 659.79) rotate(180)"/>
        <rect class="cls-1" x="463.55" y="313.52" width="55.86" height="32.76" rx="6.93" ry="6.93" transform="translate(982.96 659.79) rotate(180)"/>
        <rect class="cls-1" x="405.6" y="313.52" width="55.86" height="32.76" rx="6.93" ry="6.93" transform="translate(867.07 659.79) rotate(180)"/>
        <rect class="cls-1" x="347.66" y="313.52" width="55.86" height="32.76" rx="6.93" ry="6.93" transform="translate(751.19 659.79) rotate(180)"/>
        <rect class="cls-1" x="289.72" y="313.52" width="55.86" height="32.76" rx="6.93" ry="6.93" transform="translate(635.3 659.79) rotate(180)"/>
        <rect class="cls-1" x="231.77" y="313.52" width="55.86" height="32.76" rx="6.93" ry="6.93" transform="translate(519.41 659.79) rotate(180)"/>
        <rect class="cls-1" x="173.83" y="313.52" width="55.86" height="32.76" rx="6.93" ry="6.93" transform="translate(403.52 659.79) rotate(180)"/>
        <rect class="cls-1" x="115.89" y="313.52" width="55.86" height="32.76" rx="6.93" ry="6.93" transform="translate(287.64 659.79) rotate(180)"/>
        <rect class="cls-1" x="57.94" y="313.52" width="55.86" height="32.76" rx="6.93" ry="6.93" transform="translate(171.75 659.79) rotate(180)"/>
        <rect class="cls-1" y="313.52" width="55.86" height="32.76" rx="6.93" ry="6.93" transform="translate(55.86 659.79) rotate(180)"/>
        <rect class="cls-1" x="637.38" y="278.68" width="55.86" height="32.76" rx="6.93" ry="6.93" transform="translate(1330.62 590.12) rotate(180)"/>
        <rect class="cls-1" x="579.43" y="278.68" width="55.86" height="32.76" rx="6.93" ry="6.93" transform="translate(1214.73 590.12) rotate(180)"/>
        <rect class="cls-1" x="521.49" y="278.68" width="55.86" height="32.76" rx="6.93" ry="6.93" transform="translate(1098.85 590.12) rotate(180)"/>
        <rect class="cls-1" x="463.55" y="278.68" width="55.86" height="32.76" rx="6.93" ry="6.93" transform="translate(982.96 590.12) rotate(180)"/>
        <rect class="cls-1" x="405.6" y="278.68" width="55.86" height="32.76" rx="6.93" ry="6.93" transform="translate(867.07 590.12) rotate(180)"/>
        <rect class="cls-1" x="347.66" y="278.68" width="55.86" height="32.76" rx="6.93" ry="6.93" transform="translate(751.19 590.12) rotate(180)"/>
        <rect class="cls-1" x="289.72" y="278.68" width="55.86" height="32.76" rx="6.93" ry="6.93" transform="translate(635.3 590.12) rotate(180)"/>
        <rect class="cls-1" x="231.77" y="278.68" width="55.86" height="32.76" rx="6.93" ry="6.93" transform="translate(519.41 590.12) rotate(180)"/>
        <rect class="cls-1" x="173.83" y="278.68" width="55.86" height="32.76" rx="6.93" ry="6.93" transform="translate(403.52 590.12) rotate(180)"/>
        <rect class="cls-1" x="115.89" y="278.68" width="55.86" height="32.76" rx="6.93" ry="6.93" transform="translate(287.64 590.12) rotate(180)"/>
        <rect class="cls-1" x="57.94" y="278.68" width="55.86" height="32.76" rx="6.93" ry="6.93" transform="translate(171.75 590.12) rotate(180)"/>
        <rect class="cls-1" y="278.68" width="55.86" height="32.76" rx="6.93" ry="6.93" transform="translate(55.86 590.12) rotate(180)"/>
        <rect class="cls-1" x="637.38" y="243.85" width="55.86" height="32.76" rx="6.93" ry="6.93" transform="translate(1330.62 520.45) rotate(180)"/>
        <rect class="cls-1" x="579.43" y="243.85" width="55.86" height="32.76" rx="6.93" ry="6.93" transform="translate(1214.73 520.45) rotate(180)"/>
        <rect class="cls-1" x="521.49" y="243.85" width="55.86" height="32.76" rx="6.93" ry="6.93" transform="translate(1098.85 520.45) rotate(180)"/>
        <rect class="cls-1" x="463.55" y="243.85" width="55.86" height="32.76" rx="6.93" ry="6.93" transform="translate(982.96 520.45) rotate(180)"/>
        <rect class="cls-1" x="405.6" y="243.85" width="55.86" height="32.76" rx="6.93" ry="6.93" transform="translate(867.07 520.45) rotate(180)"/>
        <rect class="cls-1" x="347.66" y="243.85" width="55.86" height="32.76" rx="6.93" ry="6.93" transform="translate(751.19 520.45) rotate(180)"/>
        <rect class="cls-1" x="289.72" y="243.85" width="55.86" height="32.76" rx="6.93" ry="6.93" transform="translate(635.3 520.45) rotate(180)"/>
        <rect class="cls-1" x="231.77" y="243.85" width="55.86" height="32.76" rx="6.93" ry="6.93" transform="translate(519.41 520.45) rotate(180)"/>
        <rect class="cls-1" x="173.83" y="243.85" width="55.86" height="32.76" rx="6.93" ry="6.93" transform="translate(403.52 520.45) rotate(180)"/>
        <rect class="cls-1" x="115.89" y="243.85" width="55.86" height="32.76" rx="6.93" ry="6.93" transform="translate(287.64 520.45) rotate(180)"/>
        <rect class="cls-1" x="57.94" y="243.85" width="55.86" height="32.76" rx="6.93" ry="6.93" transform="translate(171.75 520.45) rotate(180)"/>
        <rect class="cls-1" y="243.85" width="55.86" height="32.76" rx="6.93" ry="6.93" transform="translate(55.86 520.45) rotate(180)"/>
        <rect class="cls-1" x="637.38" y="209.01" width="55.86" height="32.76" rx="6.93" ry="6.93" transform="translate(1330.62 450.78) rotate(180)"/>
        <rect class="cls-1" x="579.43" y="209.01" width="55.86" height="32.76" rx="6.93" ry="6.93" transform="translate(1214.73 450.78) rotate(180)"/>
        <rect class="cls-1" x="521.49" y="209.01" width="55.86" height="32.76" rx="6.93" ry="6.93" transform="translate(1098.85 450.78) rotate(180)"/>
        <rect class="cls-1" x="463.55" y="209.01" width="55.86" height="32.76" rx="6.93" ry="6.93" transform="translate(982.96 450.78) rotate(180)"/>
        <rect class="cls-1" x="405.6" y="209.01" width="55.86" height="32.76" rx="6.93" ry="6.93" transform="translate(867.07 450.78) rotate(180)"/>
        <rect class="cls-1" x="347.66" y="209.01" width="55.86" height="32.76" rx="6.93" ry="6.93" transform="translate(751.19 450.78) rotate(180)"/>
        <rect class="cls-1" x="289.72" y="209.01" width="55.86" height="32.76" rx="6.93" ry="6.93" transform="translate(635.3 450.78) rotate(180)"/>
        <rect class="cls-1" x="231.77" y="209.01" width="55.86" height="32.76" rx="6.93" ry="6.93" transform="translate(519.41 450.78) rotate(180)"/>
        <rect class="cls-1" x="173.83" y="209.01" width="55.86" height="32.76" rx="6.93" ry="6.93" transform="translate(403.52 450.78) rotate(180)"/>
        <rect class="cls-1" x="115.89" y="209.01" width="55.86" height="32.76" rx="6.93" ry="6.93" transform="translate(287.64 450.78) rotate(180)"/>
        <rect class="cls-1" x="57.94" y="209.01" width="55.86" height="32.76" rx="6.93" ry="6.93" transform="translate(171.75 450.78) rotate(180)"/>
        <rect class="cls-1" y="209.01" width="55.86" height="32.76" rx="6.93" ry="6.93" transform="translate(55.86 450.78) rotate(180)"/>
        <rect class="cls-1" x="637.38" y="174.18" width="55.86" height="32.76" rx="6.93" ry="6.93" transform="translate(1330.62 381.11) rotate(180)"/>
        <rect class="cls-1" x="579.43" y="174.18" width="55.86" height="32.76" rx="6.93" ry="6.93" transform="translate(1214.73 381.11) rotate(180)"/>
        <rect class="cls-1" x="521.49" y="174.18" width="55.86" height="32.76" rx="6.93" ry="6.93" transform="translate(1098.85 381.11) rotate(180)"/>
        <rect class="cls-1" x="463.55" y="174.18" width="55.86" height="32.76" rx="6.93" ry="6.93" transform="translate(982.96 381.11) rotate(180)"/>
        <rect class="cls-1" x="405.6" y="174.18" width="55.86" height="32.76" rx="6.93" ry="6.93" transform="translate(867.07 381.11) rotate(180)"/>
        <rect class="cls-1" x="347.66" y="174.18" width="55.86" height="32.76" rx="6.93" ry="6.93" transform="translate(751.19 381.11) rotate(180)"/>
        <rect class="cls-1" x="289.72" y="174.18" width="55.86" height="32.76" rx="6.93" ry="6.93" transform="translate(635.3 381.11) rotate(180)"/>
        <rect class="cls-1" x="231.77" y="174.18" width="55.86" height="32.76" rx="6.93" ry="6.93" transform="translate(519.41 381.11) rotate(180)"/>
        <rect class="cls-1" x="173.83" y="174.18" width="55.86" height="32.76" rx="6.93" ry="6.93" transform="translate(403.52 381.11) rotate(180)"/>
        <rect class="cls-1" x="115.89" y="174.18" width="55.86" height="32.76" rx="6.93" ry="6.93" transform="translate(287.64 381.11) rotate(180)"/>
        <rect class="cls-1" x="57.94" y="174.18" width="55.86" height="32.76" rx="6.93" ry="6.93" transform="translate(171.75 381.11) rotate(180)"/>
        <rect class="cls-1" y="174.18" width="55.86" height="32.76" rx="6.93" ry="6.93" transform="translate(55.86 381.11) rotate(180)"/>
        <rect class="cls-1" x="637.38" y="139.34" width="55.86" height="32.76" rx="6.93" ry="6.93" transform="translate(1330.62 311.44) rotate(180)"/>
        <rect class="cls-1" x="579.43" y="139.34" width="55.86" height="32.76" rx="6.93" ry="6.93" transform="translate(1214.73 311.44) rotate(180)"/>
        <rect class="cls-1" x="521.49" y="139.34" width="55.86" height="32.76" rx="6.93" ry="6.93" transform="translate(1098.85 311.44) rotate(180)"/>
        <rect class="cls-1" x="463.55" y="139.34" width="55.86" height="32.76" rx="6.93" ry="6.93" transform="translate(982.96 311.44) rotate(180)"/>
        <rect class="cls-1" x="405.6" y="139.34" width="55.86" height="32.76" rx="6.93" ry="6.93" transform="translate(867.07 311.44) rotate(180)"/>
        <rect class="cls-1" x="347.66" y="139.34" width="55.86" height="32.76" rx="6.93" ry="6.93" transform="translate(751.19 311.44) rotate(180)"/>
        <rect class="cls-1" x="289.72" y="139.34" width="55.86" height="32.76" rx="6.93" ry="6.93" transform="translate(635.3 311.44) rotate(180)"/>
        <rect class="cls-1" x="231.77" y="139.34" width="55.86" height="32.76" rx="6.93" ry="6.93" transform="translate(519.41 311.44) rotate(180)"/>
        <rect class="cls-1" x="173.83" y="139.34" width="55.86" height="32.76" rx="6.93" ry="6.93" transform="translate(403.52 311.44) rotate(180)"/>
        <rect class="cls-1" x="115.89" y="139.34" width="55.86" height="32.76" rx="6.93" ry="6.93" transform="translate(287.64 311.44) rotate(180)"/>
        <rect class="cls-1" x="57.94" y="139.34" width="55.86" height="32.76" rx="6.93" ry="6.93" transform="translate(171.75 311.44) rotate(180)"/>
        <rect class="cls-1" y="139.34" width="55.86" height="32.76" rx="6.93" ry="6.93" transform="translate(55.86 311.44) rotate(180)"/>
        <rect class="cls-1" x="637.38" y="104.51" width="55.86" height="32.76" rx="6.93" ry="6.93" transform="translate(1330.62 241.77) rotate(180)"/>
        <rect class="cls-1" x="579.43" y="104.51" width="55.86" height="32.76" rx="6.93" ry="6.93" transform="translate(1214.73 241.77) rotate(180)"/>
        <rect class="cls-1" x="521.49" y="104.51" width="55.86" height="32.76" rx="6.93" ry="6.93" transform="translate(1098.85 241.77) rotate(180)"/>
        <rect class="cls-1" x="463.55" y="104.51" width="55.86" height="32.76" rx="6.93" ry="6.93" transform="translate(982.96 241.77) rotate(180)"/>
        <rect class="cls-1" x="405.6" y="104.51" width="55.86" height="32.76" rx="6.93" ry="6.93" transform="translate(867.07 241.77) rotate(180)"/>
        <rect class="cls-1" x="347.66" y="104.51" width="55.86" height="32.76" rx="6.93" ry="6.93" transform="translate(751.19 241.77) rotate(180)"/>
        <rect class="cls-1" x="289.72" y="104.51" width="55.86" height="32.76" rx="6.93" ry="6.93" transform="translate(635.3 241.77) rotate(180)"/>
        <rect class="cls-1" x="231.77" y="104.51" width="55.86" height="32.76" rx="6.93" ry="6.93" transform="translate(519.41 241.77) rotate(180)"/>
        <rect class="cls-1" x="173.83" y="104.51" width="55.86" height="32.76" rx="6.93" ry="6.93" transform="translate(403.52 241.77) rotate(180)"/>
        <rect class="cls-1" x="115.89" y="104.51" width="55.86" height="32.76" rx="6.93" ry="6.93" transform="translate(287.64 241.77) rotate(180)"/>
        <rect class="cls-1" x="57.94" y="104.51" width="55.86" height="32.76" rx="6.93" ry="6.93" transform="translate(171.75 241.77) rotate(180)"/>
        <rect class="cls-1" y="104.51" width="55.86" height="32.76" rx="6.93" ry="6.93" transform="translate(55.86 241.77) rotate(180)"/>
        <rect class="cls-1" x="637.38" y="69.67" width="55.86" height="32.76" rx="6.93" ry="6.93" transform="translate(1330.62 172.1) rotate(180)"/>
        <rect class="cls-1" x="579.43" y="69.67" width="55.86" height="32.76" rx="6.93" ry="6.93" transform="translate(1214.73 172.1) rotate(180)"/>
        <rect class="cls-1" x="521.49" y="69.67" width="55.86" height="32.76" rx="6.93" ry="6.93" transform="translate(1098.85 172.1) rotate(180)"/>
        <rect class="cls-1" x="463.55" y="69.67" width="55.86" height="32.76" rx="6.93" ry="6.93" transform="translate(982.96 172.1) rotate(180)"/>
        <rect class="cls-1" x="405.6" y="69.67" width="55.86" height="32.76" rx="6.93" ry="6.93" transform="translate(867.07 172.1) rotate(180)"/>
        <rect class="cls-1" x="347.66" y="69.67" width="55.86" height="32.76" rx="6.93" ry="6.93" transform="translate(751.19 172.1) rotate(180)"/>
        <rect class="cls-1" x="289.72" y="69.67" width="55.86" height="32.76" rx="6.93" ry="6.93" transform="translate(635.3 172.1) rotate(180)"/>
        <rect class="cls-1" x="231.77" y="69.67" width="55.86" height="32.76" rx="6.93" ry="6.93" transform="translate(519.41 172.1) rotate(180)"/>
        <rect class="cls-1" x="173.83" y="69.67" width="55.86" height="32.76" rx="6.93" ry="6.93" transform="translate(403.52 172.1) rotate(180)"/>
        <rect class="cls-1" x="115.89" y="69.67" width="55.86" height="32.76" rx="6.93" ry="6.93" transform="translate(287.64 172.1) rotate(180)"/>
        <rect class="cls-1" x="57.94" y="69.67" width="55.86" height="32.76" rx="6.93" ry="6.93" transform="translate(171.75 172.1) rotate(180)"/>
        <rect class="cls-1" y="69.67" width="55.86" height="32.76" rx="6.93" ry="6.93" transform="translate(55.86 172.1) rotate(180)"/>
        <rect class="cls-1" x="637.38" y="34.84" width="55.86" height="32.76" rx="6.93" ry="6.93" transform="translate(1330.62 102.43) rotate(180)"/>
        <rect class="cls-1" x="579.43" y="34.84" width="55.86" height="32.76" rx="6.93" ry="6.93" transform="translate(1214.73 102.43) rotate(180)"/>
        <rect class="cls-1" x="521.49" y="34.84" width="55.86" height="32.76" rx="6.93" ry="6.93" transform="translate(1098.85 102.43) rotate(180)"/>
        <rect class="cls-1" x="463.55" y="34.84" width="55.86" height="32.76" rx="6.93" ry="6.93" transform="translate(982.96 102.43) rotate(180)"/>
        <rect class="cls-1" x="405.6" y="34.84" width="55.86" height="32.76" rx="6.93" ry="6.93" transform="translate(867.07 102.43) rotate(180)"/>
        <rect class="cls-1" x="347.66" y="34.84" width="55.86" height="32.76" rx="6.93" ry="6.93" transform="translate(751.19 102.43) rotate(180)"/>
        <rect class="cls-1" x="289.72" y="34.84" width="55.86" height="32.76" rx="6.93" ry="6.93" transform="translate(635.3 102.43) rotate(180)"/>
        <rect class="cls-1" x="231.77" y="34.84" width="55.86" height="32.76" rx="6.93" ry="6.93" transform="translate(519.41 102.43) rotate(180)"/>
        <rect class="cls-1" x="173.83" y="34.84" width="55.86" height="32.76" rx="6.93" ry="6.93" transform="translate(403.52 102.43) rotate(180)"/>
        <rect class="cls-1" x="115.89" y="34.84" width="55.86" height="32.76" rx="6.93" ry="6.93" transform="translate(287.64 102.43) rotate(180)"/>
        <rect class="cls-1" x="57.94" y="34.84" width="55.86" height="32.76" rx="6.93" ry="6.93" transform="translate(171.75 102.43) rotate(180)"/>
        <rect class="cls-1" y="34.84" width="55.86" height="32.76" rx="6.93" ry="6.93" transform="translate(55.86 102.43) rotate(180)"/>
        <rect class="cls-1" x="637.38" y="0" width="55.86" height="32.76" rx="6.93" ry="6.93" transform="translate(1330.62 32.76) rotate(180)"/>
        <rect class="cls-1" x="579.43" y="0" width="55.86" height="32.76" rx="6.93" ry="6.93" transform="translate(1214.73 32.76) rotate(180)"/>
        <rect class="cls-1" x="521.49" y="0" width="55.86" height="32.76" rx="6.93" ry="6.93" transform="translate(1098.85 32.76) rotate(180)"/>
        <rect class="cls-1" x="463.55" y="0" width="55.86" height="32.76" rx="6.93" ry="6.93" transform="translate(982.96 32.76) rotate(180)"/>
        <rect class="cls-1" x="405.6" y="0" width="55.86" height="32.76" rx="6.93" ry="6.93" transform="translate(867.07 32.76) rotate(180)"/>
        <rect class="cls-1" x="347.66" y="0" width="55.86" height="32.76" rx="6.93" ry="6.93" transform="translate(751.19 32.76) rotate(180)"/>
        <rect class="cls-1" x="289.72" y="0" width="55.86" height="32.76" rx="6.93" ry="6.93" transform="translate(635.3 32.76) rotate(180)"/>
        <rect class="cls-1" x="231.77" y="0" width="55.86" height="32.76" rx="6.93" ry="6.93" transform="translate(519.41 32.76) rotate(180)"/>
        <rect class="cls-1" x="173.83" y="0" width="55.86" height="32.76" rx="6.93" ry="6.93" transform="translate(403.52 32.76) rotate(180)"/>
        <rect class="cls-1" x="115.89" y="0" width="55.86" height="32.76" rx="6.93" ry="6.93" transform="translate(287.64 32.76) rotate(180)"/>
        <rect class="cls-1" x="57.94" y="0" width="55.86" height="32.76" rx="6.93" ry="6.93" transform="translate(171.75 32.76) rotate(180)"/>
        <rect class="cls-1" y="0" width="55.86" height="32.76" rx="6.93" ry="6.93" transform="translate(55.86 32.76) rotate(180)"/>
      </g>
      <g>
        <path d="M338.65,1c3.27,0,5.93,2.66,5.93,5.93v123.4c0,3.27-2.66,5.93-5.93,5.93H6.93c-3.27,0-5.93-2.66-5.93-5.93V6.93C1,3.66,3.66,1,6.93,1h331.72M338.65,0H6.93C3.1,0,0,3.1,0,6.93v123.4c0,3.83,3.1,6.93,6.93,6.93h331.72c3.83,0,6.93-3.1,6.93-6.93V6.93c0-3.83-3.1-6.93-6.93-6.93h0Z"/>
        <path d="M686.31,1c3.27,0,5.93,2.66,5.93,5.93v123.4c0,3.27-2.66,5.93-5.93,5.93h-331.72c-3.27,0-5.93-2.66-5.93-5.93V6.93c0-3.27,2.66-5.93,5.93-5.93h331.72M686.31,0h-331.72c-3.83,0-6.93,3.1-6.93,6.93v123.4c0,3.83,3.1,6.93,6.93,6.93h331.72c3.83,0,6.93-3.1,6.93-6.93V6.93c0-3.83-3.1-6.93-6.93-6.93h0Z"/>
        <path d="M338.65,140.34c3.27,0,5.93,2.66,5.93,5.93v123.4c0,3.27-2.66,5.93-5.93,5.93H6.93c-3.27,0-5.93-2.66-5.93-5.93v-123.4c0-3.27,2.66-5.93,5.93-5.93h331.72M338.65,139.34H6.93C3.1,139.34,0,142.45,0,146.27v123.4c0,3.83,3.1,6.93,6.93,6.93h331.72c3.83,0,6.93-3.1,6.93-6.93v-123.4c0-3.83-3.1-6.93-6.93-6.93h0Z"/>
        <path d="M686.31,140.34c3.27,0,5.93,2.66,5.93,5.93v123.4c0,3.27-2.66,5.93-5.93,5.93h-331.72c-3.27,0-5.93-2.66-5.93-5.93v-123.4c0-3.27,2.66-5.93,5.93-5.93h331.72M686.31,139.34h-331.72c-3.83,0-6.93,3.1-6.93,6.93v123.4c0,3.83,3.1,6.93,6.93,6.93h331.72c3.83,0,6.93-3.1,6.93-6.93v-123.4c0-3.83-3.1-6.93-6.93-6.93h0Z"/>
        <path d="M338.65,279.68c3.27,0,5.93,2.66,5.93,5.93v123.4c0,3.27-2.66,5.93-5.93,5.93H6.93c-3.27,0-5.93-2.66-5.93-5.93v-123.4c0-3.27,2.66-5.93,5.93-5.93h331.72M338.65,278.68H6.93C3.1,278.68,0,281.79,0,285.62v123.4c0,3.83,3.1,6.93,6.93,6.93h331.72c3.83,0,6.93-3.1,6.93-6.93v-123.4c0-3.83-3.1-6.93-6.93-6.93h0Z"/>
        <path d="M686.31,279.68c3.27,0,5.93,2.66,5.93,5.93v123.4c0,3.27-2.66,5.93-5.93,5.93h-331.72c-3.27,0-5.93-2.66-5.93-5.93v-123.4c0-3.27,2.66-5.93,5.93-5.93h331.72M686.31,278.68h-331.72c-3.83,0-6.93,3.1-6.93,6.93v123.4c0,3.83,3.1,6.93,6.93,6.93h331.72c3.83,0,6.93-3.1,6.93-6.93v-123.4c0-3.83-3.1-6.93-6.93-6.93h0Z"/>
      </g>
    </g>
  </g>
</svg>