<?xml version="1.0" encoding="UTF-8"?>
<svg id="Layer_2" data-name="Layer 2" xmlns="http://www.w3.org/2000/svg" viewBox="0 0 693.79 416.36">
  <defs>
    <style>
      .cls-1 {
        fill: #daff06;
      }
    </style>
  </defs>
  <g id="Layer_1-2" data-name="Layer 1">
    <g>
      <g>
        <rect class="cls-1" x=".55" y="0" width="55.86" height="32.76" rx="6.93" ry="6.93"/>
        <rect class="cls-1" x="58.49" y="0" width="55.86" height="32.76" rx="6.93" ry="6.93"/>
        <rect class="cls-1" x="116.43" y="0" width="55.86" height="32.76" rx="6.93" ry="6.93"/>
        <rect class="cls-1" x="174.38" y="0" width="55.86" height="32.76" rx="6.93" ry="6.93"/>
        <rect class="cls-1" x="232.32" y="0" width="55.86" height="32.76" rx="6.93" ry="6.93"/>
        <rect class="cls-1" x="290.27" y="0" width="55.86" height="32.76" rx="6.93" ry="6.93"/>
        <rect class="cls-1" x="348.21" y="0" width="55.86" height="32.76" rx="6.93" ry="6.93"/>
        <rect class="cls-1" x="406.15" y="0" width="55.86" height="32.76" rx="6.93" ry="6.93"/>
        <rect class="cls-1" x="464.1" y="0" width="55.86" height="32.76" rx="6.93" ry="6.93"/>
        <rect class="cls-1" x="522.04" y="0" width="55.86" height="32.76" rx="6.93" ry="6.93"/>
        <rect class="cls-1" x="579.98" y="0" width="55.86" height="32.76" rx="6.93" ry="6.93"/>
        <rect class="cls-1" x="637.93" y="0" width="55.86" height="32.76" rx="6.93" ry="6.93"/>
        <rect class="cls-1" x=".55" y="34.84" width="55.86" height="32.76" rx="6.93" ry="6.93"/>
        <rect class="cls-1" x="58.49" y="34.84" width="55.86" height="32.76" rx="6.93" ry="6.93"/>
        <rect class="cls-1" x="116.43" y="34.84" width="55.86" height="32.76" rx="6.93" ry="6.93"/>
        <rect class="cls-1" x="174.38" y="34.84" width="55.86" height="32.76" rx="6.93" ry="6.93"/>
        <rect class="cls-1" x="232.32" y="34.84" width="55.86" height="32.76" rx="6.93" ry="6.93"/>
        <rect class="cls-1" x="290.27" y="34.84" width="55.86" height="32.76" rx="6.93" ry="6.93"/>
        <rect class="cls-1" x="348.21" y="34.84" width="55.86" height="32.76" rx="6.93" ry="6.93"/>
        <rect class="cls-1" x="406.15" y="34.84" width="55.86" height="32.76" rx="6.93" ry="6.93"/>
        <rect class="cls-1" x="464.1" y="34.84" width="55.86" height="32.76" rx="6.93" ry="6.93"/>
        <rect class="cls-1" x="522.04" y="34.84" width="55.86" height="32.76" rx="6.93" ry="6.93"/>
        <rect class="cls-1" x="579.98" y="34.84" width="55.86" height="32.76" rx="6.93" ry="6.93"/>
        <rect class="cls-1" x="637.93" y="34.84" width="55.86" height="32.76" rx="6.93" ry="6.93"/>
        <rect class="cls-1" x=".55" y="69.67" width="55.86" height="32.76" rx="6.93" ry="6.93"/>
        <rect class="cls-1" x="58.49" y="69.67" width="55.86" height="32.76" rx="6.93" ry="6.93"/>
        <rect class="cls-1" x="116.43" y="69.67" width="55.86" height="32.76" rx="6.93" ry="6.93"/>
        <rect class="cls-1" x="174.38" y="69.67" width="55.86" height="32.76" rx="6.93" ry="6.93"/>
        <rect class="cls-1" x="232.32" y="69.67" width="55.86" height="32.76" rx="6.93" ry="6.93"/>
        <rect class="cls-1" x="290.27" y="69.67" width="55.86" height="32.76" rx="6.93" ry="6.93"/>
        <rect class="cls-1" x="348.21" y="69.67" width="55.86" height="32.76" rx="6.93" ry="6.93"/>
        <rect class="cls-1" x="406.15" y="69.67" width="55.86" height="32.76" rx="6.93" ry="6.93"/>
        <rect class="cls-1" x="464.1" y="69.67" width="55.86" height="32.76" rx="6.93" ry="6.93"/>
        <rect class="cls-1" x="522.04" y="69.67" width="55.86" height="32.76" rx="6.93" ry="6.93"/>
        <rect class="cls-1" x="579.98" y="69.67" width="55.86" height="32.76" rx="6.93" ry="6.93"/>
        <rect class="cls-1" x="637.93" y="69.67" width="55.86" height="32.76" rx="6.93" ry="6.93"/>
        <rect class="cls-1" x=".55" y="104.51" width="55.86" height="32.76" rx="6.93" ry="6.93"/>
        <rect class="cls-1" x="58.49" y="104.51" width="55.86" height="32.76" rx="6.93" ry="6.93"/>
        <rect class="cls-1" x="116.43" y="104.51" width="55.86" height="32.76" rx="6.93" ry="6.93"/>
        <rect class="cls-1" x="174.38" y="104.51" width="55.86" height="32.76" rx="6.93" ry="6.93"/>
        <rect class="cls-1" x="232.32" y="104.51" width="55.86" height="32.76" rx="6.93" ry="6.93"/>
        <rect class="cls-1" x="290.27" y="104.51" width="55.86" height="32.76" rx="6.93" ry="6.93"/>
        <rect class="cls-1" x="348.21" y="104.51" width="55.86" height="32.76" rx="6.93" ry="6.93"/>
        <rect class="cls-1" x="406.15" y="104.51" width="55.86" height="32.76" rx="6.93" ry="6.93"/>
        <rect class="cls-1" x="464.1" y="104.51" width="55.86" height="32.76" rx="6.93" ry="6.93"/>
        <rect class="cls-1" x="522.04" y="104.51" width="55.86" height="32.76" rx="6.93" ry="6.93"/>
        <rect class="cls-1" x="579.98" y="104.51" width="55.86" height="32.76" rx="6.93" ry="6.93"/>
        <rect class="cls-1" x="637.93" y="104.51" width="55.86" height="32.76" rx="6.93" ry="6.93"/>
        <rect class="cls-1" x=".55" y="139.34" width="55.86" height="32.76" rx="6.93" ry="6.93"/>
        <rect class="cls-1" x="58.49" y="139.34" width="55.86" height="32.76" rx="6.93" ry="6.93"/>
        <rect class="cls-1" x="116.43" y="139.34" width="55.86" height="32.76" rx="6.93" ry="6.93"/>
        <rect class="cls-1" x="174.38" y="139.34" width="55.86" height="32.76" rx="6.93" ry="6.93"/>
        <rect class="cls-1" x="232.32" y="139.34" width="55.86" height="32.76" rx="6.93" ry="6.93"/>
        <rect class="cls-1" x="290.27" y="139.34" width="55.86" height="32.76" rx="6.93" ry="6.93"/>
        <rect class="cls-1" x="348.21" y="139.34" width="55.86" height="32.76" rx="6.93" ry="6.93"/>
        <rect class="cls-1" x="406.15" y="139.34" width="55.86" height="32.76" rx="6.93" ry="6.93"/>
        <rect class="cls-1" x="464.1" y="139.34" width="55.86" height="32.76" rx="6.93" ry="6.93"/>
        <rect class="cls-1" x="522.04" y="139.34" width="55.86" height="32.76" rx="6.93" ry="6.93"/>
        <rect class="cls-1" x="579.98" y="139.34" width="55.86" height="32.76" rx="6.93" ry="6.93"/>
        <rect class="cls-1" x="637.93" y="139.34" width="55.86" height="32.76" rx="6.93" ry="6.93"/>
        <rect class="cls-1" x=".55" y="174.18" width="55.86" height="32.76" rx="6.93" ry="6.93"/>
        <rect class="cls-1" x="58.49" y="174.18" width="55.86" height="32.76" rx="6.93" ry="6.93"/>
        <rect class="cls-1" x="116.43" y="174.18" width="55.86" height="32.76" rx="6.93" ry="6.93"/>
        <rect class="cls-1" x="174.38" y="174.18" width="55.86" height="32.76" rx="6.93" ry="6.93"/>
        <rect class="cls-1" x="232.32" y="174.18" width="55.86" height="32.76" rx="6.93" ry="6.93"/>
        <rect class="cls-1" x="290.27" y="174.18" width="55.86" height="32.76" rx="6.93" ry="6.93"/>
        <rect class="cls-1" x="348.21" y="174.18" width="55.86" height="32.76" rx="6.93" ry="6.93"/>
        <rect class="cls-1" x="406.15" y="174.18" width="55.86" height="32.76" rx="6.93" ry="6.93"/>
        <rect class="cls-1" x="464.1" y="174.18" width="55.86" height="32.76" rx="6.93" ry="6.93"/>
        <rect class="cls-1" x="522.04" y="174.18" width="55.86" height="32.76" rx="6.93" ry="6.93"/>
        <rect class="cls-1" x="579.98" y="174.18" width="55.86" height="32.76" rx="6.93" ry="6.93"/>
        <rect class="cls-1" x="637.93" y="174.18" width="55.86" height="32.76" rx="6.93" ry="6.93"/>
        <rect class="cls-1" x=".55" y="209.01" width="55.86" height="32.76" rx="6.93" ry="6.93"/>
        <rect class="cls-1" x="58.49" y="209.01" width="55.86" height="32.76" rx="6.93" ry="6.93"/>
        <rect class="cls-1" x="116.43" y="209.01" width="55.86" height="32.76" rx="6.93" ry="6.93"/>
        <rect class="cls-1" x="174.38" y="209.01" width="55.86" height="32.76" rx="6.93" ry="6.93"/>
        <rect class="cls-1" x="232.32" y="209.01" width="55.86" height="32.76" rx="6.93" ry="6.93"/>
        <rect class="cls-1" x="290.27" y="209.01" width="55.86" height="32.76" rx="6.93" ry="6.93"/>
        <rect class="cls-1" x="348.21" y="209.01" width="55.86" height="32.76" rx="6.93" ry="6.93"/>
        <rect class="cls-1" x="406.15" y="209.01" width="55.86" height="32.76" rx="6.93" ry="6.93"/>
        <rect class="cls-1" x="464.1" y="209.01" width="55.86" height="32.76" rx="6.93" ry="6.93"/>
        <rect class="cls-1" x="522.04" y="209.01" width="55.86" height="32.76" rx="6.93" ry="6.93"/>
        <rect class="cls-1" x="579.98" y="209.01" width="55.86" height="32.76" rx="6.93" ry="6.93"/>
        <rect class="cls-1" x="637.93" y="209.01" width="55.86" height="32.76" rx="6.93" ry="6.93"/>
        <rect class="cls-1" x=".55" y="243.85" width="55.86" height="32.76" rx="6.93" ry="6.93"/>
        <rect class="cls-1" x="58.49" y="243.85" width="55.86" height="32.76" rx="6.93" ry="6.93"/>
        <rect class="cls-1" x="116.43" y="243.85" width="55.86" height="32.76" rx="6.93" ry="6.93"/>
        <rect class="cls-1" x="174.38" y="243.85" width="55.86" height="32.76" rx="6.93" ry="6.93"/>
        <rect class="cls-1" x="232.32" y="243.85" width="55.86" height="32.76" rx="6.93" ry="6.93"/>
        <rect class="cls-1" x="290.27" y="243.85" width="55.86" height="32.76" rx="6.93" ry="6.93"/>
        <rect class="cls-1" x="348.21" y="243.85" width="55.86" height="32.76" rx="6.93" ry="6.93"/>
        <rect class="cls-1" x="406.15" y="243.85" width="55.86" height="32.76" rx="6.93" ry="6.93"/>
        <rect class="cls-1" x="464.1" y="243.85" width="55.86" height="32.76" rx="6.93" ry="6.93"/>
        <rect class="cls-1" x="522.04" y="243.85" width="55.86" height="32.76" rx="6.93" ry="6.93"/>
        <rect class="cls-1" x="579.98" y="243.85" width="55.86" height="32.76" rx="6.93" ry="6.93"/>
        <rect class="cls-1" x="637.93" y="243.85" width="55.86" height="32.76" rx="6.93" ry="6.93"/>
        <rect class="cls-1" x=".55" y="278.68" width="55.86" height="32.76" rx="6.93" ry="6.93"/>
        <rect class="cls-1" x="58.49" y="278.68" width="55.86" height="32.76" rx="6.93" ry="6.93"/>
        <rect class="cls-1" x="116.43" y="278.68" width="55.86" height="32.76" rx="6.93" ry="6.93"/>
        <rect class="cls-1" x="174.38" y="278.68" width="55.86" height="32.76" rx="6.93" ry="6.93"/>
        <rect class="cls-1" x="232.32" y="278.68" width="55.86" height="32.76" rx="6.93" ry="6.93"/>
        <rect class="cls-1" x="290.27" y="278.68" width="55.86" height="32.76" rx="6.93" ry="6.93"/>
        <rect class="cls-1" x="348.21" y="278.68" width="55.86" height="32.76" rx="6.93" ry="6.93"/>
        <rect class="cls-1" x="406.15" y="278.68" width="55.86" height="32.76" rx="6.93" ry="6.93"/>
        <rect class="cls-1" x="464.1" y="278.68" width="55.86" height="32.76" rx="6.93" ry="6.93"/>
        <rect class="cls-1" x="522.04" y="278.68" width="55.86" height="32.76" rx="6.93" ry="6.93"/>
        <rect class="cls-1" x="579.98" y="278.68" width="55.86" height="32.76" rx="6.93" ry="6.93"/>
        <rect class="cls-1" x="637.93" y="278.68" width="55.86" height="32.76" rx="6.93" ry="6.93"/>
        <rect class="cls-1" x=".55" y="313.52" width="55.86" height="32.76" rx="6.93" ry="6.93"/>
        <rect class="cls-1" x="58.49" y="313.52" width="55.86" height="32.76" rx="6.93" ry="6.93"/>
        <rect class="cls-1" x="116.43" y="313.52" width="55.86" height="32.76" rx="6.93" ry="6.93"/>
        <rect class="cls-1" x="174.38" y="313.52" width="55.86" height="32.76" rx="6.93" ry="6.93"/>
        <rect class="cls-1" x="232.32" y="313.52" width="55.86" height="32.76" rx="6.93" ry="6.93"/>
        <rect class="cls-1" x="290.27" y="313.52" width="55.86" height="32.76" rx="6.93" ry="6.93"/>
        <rect class="cls-1" x="348.21" y="313.52" width="55.86" height="32.76" rx="6.93" ry="6.93"/>
        <rect class="cls-1" x="406.15" y="313.52" width="55.86" height="32.76" rx="6.93" ry="6.93"/>
        <rect class="cls-1" x="464.1" y="313.52" width="55.86" height="32.76" rx="6.93" ry="6.93"/>
        <rect class="cls-1" x="522.04" y="313.52" width="55.86" height="32.76" rx="6.93" ry="6.93"/>
        <rect class="cls-1" x="579.98" y="313.52" width="55.86" height="32.76" rx="6.93" ry="6.93"/>
        <rect class="cls-1" x="637.93" y="313.52" width="55.86" height="32.76" rx="6.93" ry="6.93"/>
        <rect class="cls-1" x=".55" y="348.35" width="55.86" height="32.76" rx="6.93" ry="6.93"/>
        <rect class="cls-1" x="58.49" y="348.35" width="55.86" height="32.76" rx="6.93" ry="6.93"/>
        <rect class="cls-1" x="116.43" y="348.35" width="55.86" height="32.76" rx="6.93" ry="6.93"/>
        <rect class="cls-1" x="174.38" y="348.35" width="55.86" height="32.76" rx="6.93" ry="6.93"/>
        <rect class="cls-1" x="232.32" y="348.35" width="55.86" height="32.76" rx="6.93" ry="6.93"/>
        <rect class="cls-1" x="290.27" y="348.35" width="55.86" height="32.76" rx="6.93" ry="6.93"/>
        <rect class="cls-1" x="348.21" y="348.35" width="55.86" height="32.76" rx="6.93" ry="6.93"/>
        <rect class="cls-1" x="406.15" y="348.35" width="55.86" height="32.76" rx="6.93" ry="6.93"/>
        <rect class="cls-1" x="464.1" y="348.35" width="55.86" height="32.76" rx="6.93" ry="6.93"/>
        <rect class="cls-1" x="522.04" y="348.35" width="55.86" height="32.76" rx="6.93" ry="6.93"/>
        <rect class="cls-1" x="579.98" y="348.35" width="55.86" height="32.76" rx="6.93" ry="6.93"/>
        <rect class="cls-1" x="637.93" y="348.35" width="55.86" height="32.76" rx="6.93" ry="6.93"/>
        <rect class="cls-1" x=".55" y="383.19" width="55.86" height="32.76" rx="6.93" ry="6.93"/>
        <rect class="cls-1" x="58.49" y="383.19" width="55.86" height="32.76" rx="6.93" ry="6.93"/>
        <rect class="cls-1" x="116.43" y="383.19" width="55.86" height="32.76" rx="6.93" ry="6.93"/>
        <rect class="cls-1" x="174.38" y="383.19" width="55.86" height="32.76" rx="6.93" ry="6.93"/>
        <rect class="cls-1" x="232.32" y="383.19" width="55.86" height="32.76" rx="6.93" ry="6.93"/>
        <rect class="cls-1" x="290.27" y="383.19" width="55.86" height="32.76" rx="6.93" ry="6.93"/>
        <rect class="cls-1" x="348.21" y="383.19" width="55.86" height="32.76" rx="6.93" ry="6.93"/>
        <rect class="cls-1" x="406.15" y="383.19" width="55.86" height="32.76" rx="6.93" ry="6.93"/>
        <rect class="cls-1" x="464.1" y="383.19" width="55.86" height="32.76" rx="6.93" ry="6.93"/>
        <rect class="cls-1" x="522.04" y="383.19" width="55.86" height="32.76" rx="6.93" ry="6.93"/>
        <rect class="cls-1" x="579.98" y="383.19" width="55.86" height="32.76" rx="6.93" ry="6.93"/>
        <rect class="cls-1" x="637.93" y="383.19" width="55.86" height="32.76" rx="6.93" ry="6.93"/>
      </g>
      <g>
        <path d="M454.89,1.09c3.27,0,5.94,2.66,5.94,5.94v402.4c0,3.27-2.66,5.94-5.94,5.94H6.94c-3.27,0-5.94-2.66-5.94-5.94V7.03C1,3.75,3.66,1.09,6.94,1.09h447.96M454.89.09H6.94C3.11.09,0,3.19,0,7.03v402.4c0,3.83,3.11,6.94,6.94,6.94h447.96c3.83,0,6.94-3.11,6.94-6.94V7.03c0-3.83-3.11-6.94-6.94-6.94h0Z"/>
        <path d="M686.85,1.09c3.27,0,5.94,2.66,5.94,5.94v193.22c0,3.27-2.66,5.94-5.94,5.94h-216c-3.27,0-5.94-2.66-5.94-5.94V7.03c0-3.27,2.66-5.94,5.94-5.94h216M686.85.09h-216c-3.83,0-6.94,3.11-6.94,6.94v193.22c0,3.83,3.11,6.94,6.94,6.94h216c3.83,0,6.94-3.11,6.94-6.94V7.03c0-3.83-3.11-6.94-6.94-6.94h0Z"/>
        <path d="M686.85,210.26c3.27,0,5.94,2.66,5.94,5.94v88.63c0,3.27-2.66,5.94-5.94,5.94h-216c-3.27,0-5.94-2.66-5.94-5.94v-88.63c0-3.27,2.66-5.94,5.94-5.94h216M686.85,209.26h-216c-3.83,0-6.94,3.11-6.94,6.94v88.63c0,3.83,3.11,6.94,6.94,6.94h216c3.83,0,6.94-3.11,6.94-6.94v-88.63c0-3.83-3.11-6.94-6.94-6.94h0Z"/>
        <path d="M686.85,314.85c3.27,0,5.94,2.66,5.94,5.94v88.63c0,3.27-2.66,5.94-5.94,5.94h-216c-3.27,0-5.94-2.66-5.94-5.94v-88.63c0-3.27,2.66-5.94,5.94-5.94h216M686.85,313.85h-216c-3.83,0-6.94,3.11-6.94,6.94v88.63c0,3.83,3.11,6.94,6.94,6.94h216c3.83,0,6.94-3.11,6.94-6.94v-88.63c0-3.83-3.11-6.94-6.94-6.94h0Z"/>
      </g>
    </g>
  </g>
</svg>