<?xml version="1.0" encoding="UTF-8"?>
<svg id="Layer_2" data-name="Layer 2" xmlns="http://www.w3.org/2000/svg" viewBox="0 0 693.24 415.95">
  <defs>
    <style>
      .cls-1 {
        fill: #daff06;
      }
    </style>
  </defs>
  <g id="Layer_1-2" data-name="Layer 1">
    <g>
      <g>
        <rect class="cls-1" y="0" width="55.86" height="32.76" rx="6.93" ry="6.93"/>
        <rect class="cls-1" x="57.94" y="0" width="55.86" height="32.76" rx="6.93" ry="6.93"/>
        <rect class="cls-1" x="115.89" y="0" width="55.86" height="32.76" rx="6.93" ry="6.93"/>
        <rect class="cls-1" x="173.83" y="0" width="55.86" height="32.76" rx="6.93" ry="6.93"/>
        <rect class="cls-1" x="231.77" y="0" width="55.86" height="32.76" rx="6.93" ry="6.93"/>
        <rect class="cls-1" x="289.72" y="0" width="55.86" height="32.76" rx="6.93" ry="6.93"/>
        <rect class="cls-1" x="347.66" y="0" width="55.86" height="32.76" rx="6.93" ry="6.93"/>
        <rect class="cls-1" x="405.6" y="0" width="55.86" height="32.76" rx="6.93" ry="6.93"/>
        <rect class="cls-1" x="463.55" y="0" width="55.86" height="32.76" rx="6.93" ry="6.93"/>
        <rect class="cls-1" x="521.49" y="0" width="55.86" height="32.76" rx="6.93" ry="6.93"/>
        <rect class="cls-1" x="579.43" y="0" width="55.86" height="32.76" rx="6.93" ry="6.93"/>
        <rect class="cls-1" x="637.38" y="0" width="55.86" height="32.76" rx="6.93" ry="6.93"/>
        <rect class="cls-1" y="34.84" width="55.86" height="32.76" rx="6.93" ry="6.93"/>
        <rect class="cls-1" x="57.94" y="34.84" width="55.86" height="32.76" rx="6.93" ry="6.93"/>
        <rect class="cls-1" x="115.89" y="34.84" width="55.86" height="32.76" rx="6.93" ry="6.93"/>
        <rect class="cls-1" x="173.83" y="34.84" width="55.86" height="32.76" rx="6.93" ry="6.93"/>
        <rect class="cls-1" x="231.77" y="34.84" width="55.86" height="32.76" rx="6.93" ry="6.93"/>
        <rect class="cls-1" x="289.72" y="34.84" width="55.86" height="32.76" rx="6.93" ry="6.93"/>
        <rect class="cls-1" x="347.66" y="34.84" width="55.86" height="32.76" rx="6.93" ry="6.93"/>
        <rect class="cls-1" x="405.6" y="34.84" width="55.86" height="32.76" rx="6.93" ry="6.93"/>
        <rect class="cls-1" x="463.55" y="34.84" width="55.86" height="32.76" rx="6.93" ry="6.93"/>
        <rect class="cls-1" x="521.49" y="34.84" width="55.86" height="32.76" rx="6.93" ry="6.93"/>
        <rect class="cls-1" x="579.43" y="34.84" width="55.86" height="32.76" rx="6.93" ry="6.93"/>
        <rect class="cls-1" x="637.38" y="34.84" width="55.86" height="32.76" rx="6.93" ry="6.93"/>
        <rect class="cls-1" y="69.67" width="55.86" height="32.76" rx="6.93" ry="6.93"/>
        <rect class="cls-1" x="57.94" y="69.67" width="55.86" height="32.76" rx="6.93" ry="6.93"/>
        <rect class="cls-1" x="115.89" y="69.67" width="55.86" height="32.76" rx="6.93" ry="6.93"/>
        <rect class="cls-1" x="173.83" y="69.67" width="55.86" height="32.76" rx="6.93" ry="6.93"/>
        <rect class="cls-1" x="231.77" y="69.67" width="55.86" height="32.76" rx="6.93" ry="6.93"/>
        <rect class="cls-1" x="289.72" y="69.67" width="55.86" height="32.76" rx="6.93" ry="6.93"/>
        <rect class="cls-1" x="347.66" y="69.67" width="55.86" height="32.76" rx="6.93" ry="6.93"/>
        <rect class="cls-1" x="405.6" y="69.67" width="55.86" height="32.76" rx="6.93" ry="6.93"/>
        <rect class="cls-1" x="463.55" y="69.67" width="55.86" height="32.76" rx="6.93" ry="6.93"/>
        <rect class="cls-1" x="521.49" y="69.67" width="55.86" height="32.76" rx="6.93" ry="6.93"/>
        <rect class="cls-1" x="579.43" y="69.67" width="55.86" height="32.76" rx="6.93" ry="6.93"/>
        <rect class="cls-1" x="637.38" y="69.67" width="55.86" height="32.76" rx="6.93" ry="6.93"/>
        <rect class="cls-1" y="104.51" width="55.86" height="32.76" rx="6.93" ry="6.93"/>
        <rect class="cls-1" x="57.94" y="104.51" width="55.86" height="32.76" rx="6.93" ry="6.93"/>
        <rect class="cls-1" x="115.89" y="104.51" width="55.86" height="32.76" rx="6.93" ry="6.93"/>
        <rect class="cls-1" x="173.83" y="104.51" width="55.86" height="32.76" rx="6.93" ry="6.93"/>
        <rect class="cls-1" x="231.77" y="104.51" width="55.86" height="32.76" rx="6.93" ry="6.93"/>
        <rect class="cls-1" x="289.72" y="104.51" width="55.86" height="32.76" rx="6.93" ry="6.93"/>
        <rect class="cls-1" x="347.66" y="104.51" width="55.86" height="32.76" rx="6.93" ry="6.93"/>
        <rect class="cls-1" x="405.6" y="104.51" width="55.86" height="32.76" rx="6.93" ry="6.93"/>
        <rect class="cls-1" x="463.55" y="104.51" width="55.86" height="32.76" rx="6.93" ry="6.93"/>
        <rect class="cls-1" x="521.49" y="104.51" width="55.86" height="32.76" rx="6.93" ry="6.93"/>
        <rect class="cls-1" x="579.43" y="104.51" width="55.86" height="32.76" rx="6.93" ry="6.93"/>
        <rect class="cls-1" x="637.38" y="104.51" width="55.86" height="32.76" rx="6.93" ry="6.93"/>
        <rect class="cls-1" y="139.34" width="55.86" height="32.76" rx="6.93" ry="6.93"/>
        <rect class="cls-1" x="57.94" y="139.34" width="55.86" height="32.76" rx="6.93" ry="6.93"/>
        <rect class="cls-1" x="115.89" y="139.34" width="55.86" height="32.76" rx="6.93" ry="6.93"/>
        <rect class="cls-1" x="173.83" y="139.34" width="55.86" height="32.76" rx="6.93" ry="6.93"/>
        <rect class="cls-1" x="231.77" y="139.34" width="55.86" height="32.76" rx="6.93" ry="6.93"/>
        <rect class="cls-1" x="289.72" y="139.34" width="55.86" height="32.76" rx="6.93" ry="6.93"/>
        <rect class="cls-1" x="347.66" y="139.34" width="55.86" height="32.76" rx="6.93" ry="6.93"/>
        <rect class="cls-1" x="405.6" y="139.34" width="55.86" height="32.76" rx="6.93" ry="6.93"/>
        <rect class="cls-1" x="463.55" y="139.34" width="55.86" height="32.76" rx="6.93" ry="6.93"/>
        <rect class="cls-1" x="521.49" y="139.34" width="55.86" height="32.76" rx="6.93" ry="6.93"/>
        <rect class="cls-1" x="579.43" y="139.34" width="55.86" height="32.76" rx="6.93" ry="6.93"/>
        <rect class="cls-1" x="637.38" y="139.34" width="55.86" height="32.76" rx="6.93" ry="6.93"/>
        <rect class="cls-1" y="174.18" width="55.86" height="32.76" rx="6.93" ry="6.93"/>
        <rect class="cls-1" x="57.94" y="174.18" width="55.86" height="32.76" rx="6.93" ry="6.93"/>
        <rect class="cls-1" x="115.89" y="174.18" width="55.86" height="32.76" rx="6.93" ry="6.93"/>
        <rect class="cls-1" x="173.83" y="174.18" width="55.86" height="32.76" rx="6.93" ry="6.93"/>
        <rect class="cls-1" x="231.77" y="174.18" width="55.86" height="32.76" rx="6.93" ry="6.93"/>
        <rect class="cls-1" x="289.72" y="174.18" width="55.86" height="32.76" rx="6.93" ry="6.93"/>
        <rect class="cls-1" x="347.66" y="174.18" width="55.86" height="32.76" rx="6.93" ry="6.93"/>
        <rect class="cls-1" x="405.6" y="174.18" width="55.86" height="32.76" rx="6.93" ry="6.93"/>
        <rect class="cls-1" x="463.55" y="174.18" width="55.86" height="32.76" rx="6.93" ry="6.93"/>
        <rect class="cls-1" x="521.49" y="174.18" width="55.86" height="32.76" rx="6.93" ry="6.93"/>
        <rect class="cls-1" x="579.43" y="174.18" width="55.86" height="32.76" rx="6.93" ry="6.93"/>
        <rect class="cls-1" x="637.38" y="174.18" width="55.86" height="32.76" rx="6.93" ry="6.93"/>
        <rect class="cls-1" y="209.01" width="55.86" height="32.76" rx="6.93" ry="6.93"/>
        <rect class="cls-1" x="57.94" y="209.01" width="55.86" height="32.76" rx="6.93" ry="6.93"/>
        <rect class="cls-1" x="115.89" y="209.01" width="55.86" height="32.76" rx="6.93" ry="6.93"/>
        <rect class="cls-1" x="173.83" y="209.01" width="55.86" height="32.76" rx="6.93" ry="6.93"/>
        <rect class="cls-1" x="231.77" y="209.01" width="55.86" height="32.76" rx="6.93" ry="6.93"/>
        <rect class="cls-1" x="289.72" y="209.01" width="55.86" height="32.76" rx="6.93" ry="6.93"/>
        <rect class="cls-1" x="347.66" y="209.01" width="55.86" height="32.76" rx="6.93" ry="6.93"/>
        <rect class="cls-1" x="405.6" y="209.01" width="55.86" height="32.76" rx="6.93" ry="6.93"/>
        <rect class="cls-1" x="463.55" y="209.01" width="55.86" height="32.76" rx="6.93" ry="6.93"/>
        <rect class="cls-1" x="521.49" y="209.01" width="55.86" height="32.76" rx="6.93" ry="6.93"/>
        <rect class="cls-1" x="579.43" y="209.01" width="55.86" height="32.76" rx="6.93" ry="6.93"/>
        <rect class="cls-1" x="637.38" y="209.01" width="55.86" height="32.76" rx="6.93" ry="6.93"/>
        <rect class="cls-1" y="243.85" width="55.86" height="32.76" rx="6.93" ry="6.93"/>
        <rect class="cls-1" x="57.94" y="243.85" width="55.86" height="32.76" rx="6.93" ry="6.93"/>
        <rect class="cls-1" x="115.89" y="243.85" width="55.86" height="32.76" rx="6.93" ry="6.93"/>
        <rect class="cls-1" x="173.83" y="243.85" width="55.86" height="32.76" rx="6.93" ry="6.93"/>
        <rect class="cls-1" x="231.77" y="243.85" width="55.86" height="32.76" rx="6.93" ry="6.93"/>
        <rect class="cls-1" x="289.72" y="243.85" width="55.86" height="32.76" rx="6.93" ry="6.93"/>
        <rect class="cls-1" x="347.66" y="243.85" width="55.86" height="32.76" rx="6.93" ry="6.93"/>
        <rect class="cls-1" x="405.6" y="243.85" width="55.86" height="32.76" rx="6.93" ry="6.93"/>
        <rect class="cls-1" x="463.55" y="243.85" width="55.86" height="32.76" rx="6.93" ry="6.93"/>
        <rect class="cls-1" x="521.49" y="243.85" width="55.86" height="32.76" rx="6.93" ry="6.93"/>
        <rect class="cls-1" x="579.43" y="243.85" width="55.86" height="32.76" rx="6.93" ry="6.93"/>
        <rect class="cls-1" x="637.38" y="243.85" width="55.86" height="32.76" rx="6.93" ry="6.93"/>
        <rect class="cls-1" y="278.68" width="55.86" height="32.76" rx="6.93" ry="6.93"/>
        <rect class="cls-1" x="57.94" y="278.68" width="55.86" height="32.76" rx="6.93" ry="6.93"/>
        <rect class="cls-1" x="115.89" y="278.68" width="55.86" height="32.76" rx="6.93" ry="6.93"/>
        <rect class="cls-1" x="173.83" y="278.68" width="55.86" height="32.76" rx="6.93" ry="6.93"/>
        <rect class="cls-1" x="231.77" y="278.68" width="55.86" height="32.76" rx="6.93" ry="6.93"/>
        <rect class="cls-1" x="289.72" y="278.68" width="55.86" height="32.76" rx="6.93" ry="6.93"/>
        <rect class="cls-1" x="347.66" y="278.68" width="55.86" height="32.76" rx="6.93" ry="6.93"/>
        <rect class="cls-1" x="405.6" y="278.68" width="55.86" height="32.76" rx="6.93" ry="6.93"/>
        <rect class="cls-1" x="463.55" y="278.68" width="55.86" height="32.76" rx="6.93" ry="6.93"/>
        <rect class="cls-1" x="521.49" y="278.68" width="55.86" height="32.76" rx="6.93" ry="6.93"/>
        <rect class="cls-1" x="579.43" y="278.68" width="55.86" height="32.76" rx="6.93" ry="6.93"/>
        <rect class="cls-1" x="637.38" y="278.68" width="55.86" height="32.76" rx="6.93" ry="6.93"/>
        <rect class="cls-1" y="313.52" width="55.86" height="32.76" rx="6.93" ry="6.93"/>
        <rect class="cls-1" x="57.94" y="313.52" width="55.86" height="32.76" rx="6.93" ry="6.93"/>
        <rect class="cls-1" x="115.89" y="313.52" width="55.86" height="32.76" rx="6.93" ry="6.93"/>
        <rect class="cls-1" x="173.83" y="313.52" width="55.86" height="32.76" rx="6.93" ry="6.93"/>
        <rect class="cls-1" x="231.77" y="313.52" width="55.86" height="32.76" rx="6.93" ry="6.93"/>
        <rect class="cls-1" x="289.72" y="313.52" width="55.86" height="32.76" rx="6.93" ry="6.93"/>
        <rect class="cls-1" x="347.66" y="313.52" width="55.86" height="32.76" rx="6.93" ry="6.93"/>
        <rect class="cls-1" x="405.6" y="313.52" width="55.86" height="32.76" rx="6.93" ry="6.93"/>
        <rect class="cls-1" x="463.55" y="313.52" width="55.86" height="32.76" rx="6.93" ry="6.93"/>
        <rect class="cls-1" x="521.49" y="313.52" width="55.86" height="32.76" rx="6.93" ry="6.93"/>
        <rect class="cls-1" x="579.43" y="313.52" width="55.86" height="32.76" rx="6.93" ry="6.93"/>
        <rect class="cls-1" x="637.38" y="313.52" width="55.86" height="32.76" rx="6.93" ry="6.93"/>
        <rect class="cls-1" y="348.35" width="55.86" height="32.76" rx="6.93" ry="6.93"/>
        <rect class="cls-1" x="57.94" y="348.35" width="55.86" height="32.76" rx="6.93" ry="6.93"/>
        <rect class="cls-1" x="115.89" y="348.35" width="55.86" height="32.76" rx="6.93" ry="6.93"/>
        <rect class="cls-1" x="173.83" y="348.35" width="55.86" height="32.76" rx="6.93" ry="6.93"/>
        <rect class="cls-1" x="231.77" y="348.35" width="55.86" height="32.76" rx="6.93" ry="6.93"/>
        <rect class="cls-1" x="289.72" y="348.35" width="55.86" height="32.76" rx="6.93" ry="6.93"/>
        <rect class="cls-1" x="347.66" y="348.35" width="55.86" height="32.76" rx="6.93" ry="6.93"/>
        <rect class="cls-1" x="405.6" y="348.35" width="55.86" height="32.76" rx="6.93" ry="6.93"/>
        <rect class="cls-1" x="463.55" y="348.35" width="55.86" height="32.76" rx="6.93" ry="6.93"/>
        <rect class="cls-1" x="521.49" y="348.35" width="55.86" height="32.76" rx="6.93" ry="6.93"/>
        <rect class="cls-1" x="579.43" y="348.35" width="55.86" height="32.76" rx="6.93" ry="6.93"/>
        <rect class="cls-1" x="637.38" y="348.35" width="55.86" height="32.76" rx="6.93" ry="6.93"/>
        <rect class="cls-1" y="383.19" width="55.86" height="32.76" rx="6.93" ry="6.93"/>
        <rect class="cls-1" x="57.94" y="383.19" width="55.86" height="32.76" rx="6.93" ry="6.93"/>
        <rect class="cls-1" x="115.89" y="383.19" width="55.86" height="32.76" rx="6.93" ry="6.93"/>
        <rect class="cls-1" x="173.83" y="383.19" width="55.86" height="32.76" rx="6.93" ry="6.93"/>
        <rect class="cls-1" x="231.77" y="383.19" width="55.86" height="32.76" rx="6.93" ry="6.93"/>
        <rect class="cls-1" x="289.72" y="383.19" width="55.86" height="32.76" rx="6.93" ry="6.93"/>
        <rect class="cls-1" x="347.66" y="383.19" width="55.86" height="32.76" rx="6.93" ry="6.93"/>
        <rect class="cls-1" x="405.6" y="383.19" width="55.86" height="32.76" rx="6.93" ry="6.93"/>
        <rect class="cls-1" x="463.55" y="383.19" width="55.86" height="32.76" rx="6.93" ry="6.93"/>
        <rect class="cls-1" x="521.49" y="383.19" width="55.86" height="32.76" rx="6.93" ry="6.93"/>
        <rect class="cls-1" x="579.43" y="383.19" width="55.86" height="32.76" rx="6.93" ry="6.93"/>
        <rect class="cls-1" x="637.38" y="383.19" width="55.86" height="32.76" rx="6.93" ry="6.93"/>
      </g>
      <g>
        <path d="M686.31,210.01c3.27,0,5.93,2.66,5.93,5.93v193.07c0,3.27-2.66,5.93-5.93,5.93h-273.77c-3.27,0-5.93-2.66-5.93-5.93v-193.07c0-3.27,2.66-5.93,5.93-5.93h273.77M686.31,209.01h-273.77c-3.83,0-6.93,3.1-6.93,6.93v193.07c0,3.83,3.1,6.93,6.93,6.93h273.77c3.83,0,6.93-3.1,6.93-6.93v-193.07c0-3.83-3.1-6.93-6.93-6.93h0Z"/>
        <path d="M164.82,1c3.27,0,5.93,2.66,5.93,5.93v53.73c0,3.27-2.66,5.93-5.93,5.93H6.93c-3.27,0-5.93-2.66-5.93-5.93V6.93C1,3.66,3.66,1,6.93,1h157.89M164.82,0H6.93C3.1,0,0,3.1,0,6.93v53.73c0,3.83,3.1,6.93,6.93,6.93h157.89c3.83,0,6.93-3.1,6.93-6.93V6.93c0-3.83-3.1-6.93-6.93-6.93h0Z"/>
        <path d="M164.82,70.67c3.27,0,5.93,2.66,5.93,5.93v53.73c0,3.27-2.66,5.93-5.93,5.93H6.93c-3.27,0-5.93-2.66-5.93-5.93v-53.73c0-3.27,2.66-5.93,5.93-5.93h157.89M164.82,69.67H6.93C3.1,69.67,0,72.77,0,76.6v53.73c0,3.83,3.1,6.93,6.93,6.93h157.89c3.83,0,6.93-3.1,6.93-6.93v-53.73c0-3.83-3.1-6.93-6.93-6.93h0Z"/>
        <path d="M164.82,140.34c3.27,0,5.93,2.66,5.93,5.93v53.73c0,3.27-2.66,5.93-5.93,5.93H6.93c-3.27,0-5.93-2.66-5.93-5.93v-53.73c0-3.27,2.66-5.93,5.93-5.93h157.89M164.82,139.34H6.93C3.1,139.34,0,142.45,0,146.27v53.73c0,3.83,3.1,6.93,6.93,6.93h157.89c3.83,0,6.93-3.1,6.93-6.93v-53.73c0-3.83-3.1-6.93-6.93-6.93h0Z"/>
        <path d="M164.82,210.01c3.27,0,5.93,2.66,5.93,5.93v53.73c0,3.27-2.66,5.93-5.93,5.93H6.93c-3.27,0-5.93-2.66-5.93-5.93v-53.73c0-3.27,2.66-5.93,5.93-5.93h157.89M164.82,209.01H6.93C3.1,209.01,0,212.12,0,215.94v53.73c0,3.83,3.1,6.93,6.93,6.93h157.89c3.83,0,6.93-3.1,6.93-6.93v-53.73c0-3.83-3.1-6.93-6.93-6.93h0Z"/>
        <path d="M164.82,279.68c3.27,0,5.93,2.66,5.93,5.93v53.73c0,3.27-2.66,5.93-5.93,5.93H6.93c-3.27,0-5.93-2.66-5.93-5.93v-53.73c0-3.27,2.66-5.93,5.93-5.93h157.89M164.82,278.68H6.93C3.1,278.68,0,281.79,0,285.62v53.73c0,3.83,3.1,6.93,6.93,6.93h157.89c3.83,0,6.93-3.1,6.93-6.93v-53.73c0-3.83-3.1-6.93-6.93-6.93h0Z"/>
        <path d="M164.82,349.35c3.27,0,5.93,2.66,5.93,5.93v53.73c0,3.27-2.66,5.93-5.93,5.93H6.93c-3.27,0-5.93-2.66-5.93-5.93v-53.73c0-3.27,2.66-5.93,5.93-5.93h157.89M164.82,348.35H6.93C3.1,348.35,0,351.46,0,355.29v53.73c0,3.83,3.1,6.93,6.93,6.93h157.89c3.83,0,6.93-3.1,6.93-6.93v-53.73c0-3.83-3.1-6.93-6.93-6.93h0Z"/>
      </g>
    </g>
  </g>
</svg>