<?xml version="1.0" encoding="UTF-8"?>
<svg id="Layer_2" data-name="Layer 2" xmlns="http://www.w3.org/2000/svg" viewBox="0 0 693.43 415.95">
  <defs>
    <style>
      .cls-1 {
        fill: #daff06;
      }
    </style>
  </defs>
  <g id="Layer_1-2" data-name="Layer 1">
    <g>
      <g>
        <rect class="cls-1" x="637.57" y="0" width="55.86" height="32.76" rx="6.93" ry="6.93" transform="translate(1331 32.76) rotate(-180)"/>
        <rect class="cls-1" x="579.63" y="0" width="55.86" height="32.76" rx="6.93" ry="6.93" transform="translate(1215.12 32.76) rotate(-180)"/>
        <rect class="cls-1" x="521.68" y="0" width="55.86" height="32.76" rx="6.93" ry="6.93" transform="translate(1099.23 32.76) rotate(-180)"/>
        <rect class="cls-1" x="463.74" y="0" width="55.86" height="32.76" rx="6.93" ry="6.93" transform="translate(983.34 32.76) rotate(-180)"/>
        <rect class="cls-1" x="405.8" y="0" width="55.86" height="32.76" rx="6.93" ry="6.93" transform="translate(867.46 32.76) rotate(-180)"/>
        <rect class="cls-1" x="347.85" y="0" width="55.86" height="32.76" rx="6.93" ry="6.93" transform="translate(751.57 32.76) rotate(-180)"/>
        <rect class="cls-1" x="289.91" y="0" width="55.86" height="32.76" rx="6.93" ry="6.93" transform="translate(635.68 32.76) rotate(-180)"/>
        <rect class="cls-1" x="231.97" y="0" width="55.86" height="32.76" rx="6.93" ry="6.93" transform="translate(519.79 32.76) rotate(-180)"/>
        <rect class="cls-1" x="174.02" y="0" width="55.86" height="32.76" rx="6.93" ry="6.93" transform="translate(403.91 32.76) rotate(-180)"/>
        <rect class="cls-1" x="116.08" y="0" width="55.86" height="32.76" rx="6.93" ry="6.93" transform="translate(288.02 32.76) rotate(-180)"/>
        <rect class="cls-1" x="58.13" y="0" width="55.86" height="32.76" rx="6.93" ry="6.93" transform="translate(172.13 32.76) rotate(-180)"/>
        <rect class="cls-1" x=".19" y="0" width="55.86" height="32.76" rx="6.93" ry="6.93" transform="translate(56.25 32.76) rotate(-180)"/>
        <rect class="cls-1" x="637.57" y="34.84" width="55.86" height="32.76" rx="6.93" ry="6.93" transform="translate(1331 102.43) rotate(-180)"/>
        <rect class="cls-1" x="579.63" y="34.84" width="55.86" height="32.76" rx="6.93" ry="6.93" transform="translate(1215.12 102.43) rotate(-180)"/>
        <rect class="cls-1" x="521.68" y="34.84" width="55.86" height="32.76" rx="6.93" ry="6.93" transform="translate(1099.23 102.43) rotate(-180)"/>
        <rect class="cls-1" x="463.74" y="34.84" width="55.86" height="32.76" rx="6.93" ry="6.93" transform="translate(983.34 102.43) rotate(-180)"/>
        <rect class="cls-1" x="405.8" y="34.84" width="55.86" height="32.76" rx="6.93" ry="6.93" transform="translate(867.46 102.43) rotate(-180)"/>
        <rect class="cls-1" x="347.85" y="34.84" width="55.86" height="32.76" rx="6.93" ry="6.93" transform="translate(751.57 102.43) rotate(-180)"/>
        <rect class="cls-1" x="289.91" y="34.84" width="55.86" height="32.76" rx="6.93" ry="6.93" transform="translate(635.68 102.43) rotate(-180)"/>
        <rect class="cls-1" x="231.97" y="34.84" width="55.86" height="32.76" rx="6.93" ry="6.93" transform="translate(519.79 102.43) rotate(-180)"/>
        <rect class="cls-1" x="174.02" y="34.84" width="55.86" height="32.76" rx="6.93" ry="6.93" transform="translate(403.91 102.43) rotate(-180)"/>
        <rect class="cls-1" x="116.08" y="34.84" width="55.86" height="32.76" rx="6.93" ry="6.93" transform="translate(288.02 102.43) rotate(-180)"/>
        <rect class="cls-1" x="58.13" y="34.84" width="55.86" height="32.76" rx="6.93" ry="6.93" transform="translate(172.13 102.43) rotate(-180)"/>
        <rect class="cls-1" x=".19" y="34.84" width="55.86" height="32.76" rx="6.93" ry="6.93" transform="translate(56.25 102.43) rotate(-180)"/>
        <rect class="cls-1" x="637.57" y="69.67" width="55.86" height="32.76" rx="6.93" ry="6.93" transform="translate(1331 172.1) rotate(-180)"/>
        <rect class="cls-1" x="579.63" y="69.67" width="55.86" height="32.76" rx="6.93" ry="6.93" transform="translate(1215.12 172.1) rotate(-180)"/>
        <rect class="cls-1" x="521.68" y="69.67" width="55.86" height="32.76" rx="6.93" ry="6.93" transform="translate(1099.23 172.1) rotate(-180)"/>
        <rect class="cls-1" x="463.74" y="69.67" width="55.86" height="32.76" rx="6.93" ry="6.93" transform="translate(983.34 172.1) rotate(-180)"/>
        <rect class="cls-1" x="405.8" y="69.67" width="55.86" height="32.76" rx="6.93" ry="6.93" transform="translate(867.46 172.1) rotate(-180)"/>
        <rect class="cls-1" x="347.85" y="69.67" width="55.86" height="32.76" rx="6.93" ry="6.93" transform="translate(751.57 172.1) rotate(-180)"/>
        <rect class="cls-1" x="289.91" y="69.67" width="55.86" height="32.76" rx="6.93" ry="6.93" transform="translate(635.68 172.1) rotate(-180)"/>
        <rect class="cls-1" x="231.97" y="69.67" width="55.86" height="32.76" rx="6.93" ry="6.93" transform="translate(519.79 172.1) rotate(-180)"/>
        <rect class="cls-1" x="174.02" y="69.67" width="55.86" height="32.76" rx="6.93" ry="6.93" transform="translate(403.91 172.1) rotate(-180)"/>
        <rect class="cls-1" x="116.08" y="69.67" width="55.86" height="32.76" rx="6.93" ry="6.93" transform="translate(288.02 172.1) rotate(-180)"/>
        <rect class="cls-1" x="58.13" y="69.67" width="55.86" height="32.76" rx="6.93" ry="6.93" transform="translate(172.13 172.1) rotate(-180)"/>
        <rect class="cls-1" x=".19" y="69.67" width="55.86" height="32.76" rx="6.93" ry="6.93" transform="translate(56.25 172.1) rotate(-180)"/>
        <rect class="cls-1" x="637.57" y="104.51" width="55.86" height="32.76" rx="6.93" ry="6.93" transform="translate(1331 241.77) rotate(-180)"/>
        <rect class="cls-1" x="579.63" y="104.51" width="55.86" height="32.76" rx="6.93" ry="6.93" transform="translate(1215.12 241.77) rotate(-180)"/>
        <rect class="cls-1" x="521.68" y="104.51" width="55.86" height="32.76" rx="6.93" ry="6.93" transform="translate(1099.23 241.77) rotate(-180)"/>
        <rect class="cls-1" x="463.74" y="104.51" width="55.86" height="32.76" rx="6.93" ry="6.93" transform="translate(983.34 241.77) rotate(-180)"/>
        <rect class="cls-1" x="405.8" y="104.51" width="55.86" height="32.76" rx="6.93" ry="6.93" transform="translate(867.46 241.77) rotate(-180)"/>
        <rect class="cls-1" x="347.85" y="104.51" width="55.86" height="32.76" rx="6.93" ry="6.93" transform="translate(751.57 241.77) rotate(-180)"/>
        <rect class="cls-1" x="289.91" y="104.51" width="55.86" height="32.76" rx="6.93" ry="6.93" transform="translate(635.68 241.77) rotate(-180)"/>
        <rect class="cls-1" x="231.97" y="104.51" width="55.86" height="32.76" rx="6.93" ry="6.93" transform="translate(519.79 241.77) rotate(-180)"/>
        <rect class="cls-1" x="174.02" y="104.51" width="55.86" height="32.76" rx="6.93" ry="6.93" transform="translate(403.91 241.77) rotate(-180)"/>
        <rect class="cls-1" x="116.08" y="104.51" width="55.86" height="32.76" rx="6.93" ry="6.93" transform="translate(288.02 241.77) rotate(-180)"/>
        <rect class="cls-1" x="58.13" y="104.51" width="55.86" height="32.76" rx="6.93" ry="6.93" transform="translate(172.13 241.77) rotate(-180)"/>
        <rect class="cls-1" x=".19" y="104.51" width="55.86" height="32.76" rx="6.93" ry="6.93" transform="translate(56.25 241.77) rotate(-180)"/>
        <rect class="cls-1" x="637.57" y="139.34" width="55.86" height="32.76" rx="6.93" ry="6.93" transform="translate(1331 311.44) rotate(-180)"/>
        <rect class="cls-1" x="579.63" y="139.34" width="55.86" height="32.76" rx="6.93" ry="6.93" transform="translate(1215.12 311.44) rotate(-180)"/>
        <rect class="cls-1" x="521.68" y="139.34" width="55.86" height="32.76" rx="6.93" ry="6.93" transform="translate(1099.23 311.44) rotate(-180)"/>
        <rect class="cls-1" x="463.74" y="139.34" width="55.86" height="32.76" rx="6.93" ry="6.93" transform="translate(983.34 311.44) rotate(-180)"/>
        <rect class="cls-1" x="405.8" y="139.34" width="55.86" height="32.76" rx="6.93" ry="6.93" transform="translate(867.46 311.44) rotate(-180)"/>
        <rect class="cls-1" x="347.85" y="139.34" width="55.86" height="32.76" rx="6.93" ry="6.93" transform="translate(751.57 311.44) rotate(-180)"/>
        <rect class="cls-1" x="289.91" y="139.34" width="55.86" height="32.76" rx="6.93" ry="6.93" transform="translate(635.68 311.44) rotate(-180)"/>
        <rect class="cls-1" x="231.97" y="139.34" width="55.86" height="32.76" rx="6.93" ry="6.93" transform="translate(519.79 311.44) rotate(-180)"/>
        <rect class="cls-1" x="174.02" y="139.34" width="55.86" height="32.76" rx="6.93" ry="6.93" transform="translate(403.91 311.44) rotate(-180)"/>
        <rect class="cls-1" x="116.08" y="139.34" width="55.86" height="32.76" rx="6.93" ry="6.93" transform="translate(288.02 311.44) rotate(-180)"/>
        <rect class="cls-1" x="58.13" y="139.34" width="55.86" height="32.76" rx="6.93" ry="6.93" transform="translate(172.13 311.44) rotate(-180)"/>
        <rect class="cls-1" x=".19" y="139.34" width="55.86" height="32.76" rx="6.93" ry="6.93" transform="translate(56.25 311.44) rotate(-180)"/>
        <rect class="cls-1" x="637.57" y="174.18" width="55.86" height="32.76" rx="6.93" ry="6.93" transform="translate(1331 381.11) rotate(-180)"/>
        <rect class="cls-1" x="579.63" y="174.18" width="55.86" height="32.76" rx="6.93" ry="6.93" transform="translate(1215.12 381.11) rotate(-180)"/>
        <rect class="cls-1" x="521.68" y="174.18" width="55.86" height="32.76" rx="6.93" ry="6.93" transform="translate(1099.23 381.11) rotate(-180)"/>
        <rect class="cls-1" x="463.74" y="174.18" width="55.86" height="32.76" rx="6.93" ry="6.93" transform="translate(983.34 381.11) rotate(-180)"/>
        <rect class="cls-1" x="405.8" y="174.18" width="55.86" height="32.76" rx="6.93" ry="6.93" transform="translate(867.46 381.11) rotate(-180)"/>
        <rect class="cls-1" x="347.85" y="174.18" width="55.86" height="32.76" rx="6.93" ry="6.93" transform="translate(751.57 381.11) rotate(-180)"/>
        <rect class="cls-1" x="289.91" y="174.18" width="55.86" height="32.76" rx="6.93" ry="6.93" transform="translate(635.68 381.11) rotate(-180)"/>
        <rect class="cls-1" x="231.97" y="174.18" width="55.86" height="32.76" rx="6.93" ry="6.93" transform="translate(519.79 381.11) rotate(-180)"/>
        <rect class="cls-1" x="174.02" y="174.18" width="55.86" height="32.76" rx="6.93" ry="6.93" transform="translate(403.91 381.11) rotate(-180)"/>
        <rect class="cls-1" x="116.08" y="174.18" width="55.86" height="32.76" rx="6.93" ry="6.93" transform="translate(288.02 381.11) rotate(-180)"/>
        <rect class="cls-1" x="58.13" y="174.18" width="55.86" height="32.76" rx="6.93" ry="6.93" transform="translate(172.13 381.11) rotate(-180)"/>
        <rect class="cls-1" x=".19" y="174.18" width="55.86" height="32.76" rx="6.93" ry="6.93" transform="translate(56.25 381.11) rotate(-180)"/>
        <rect class="cls-1" x="637.57" y="209.01" width="55.86" height="32.76" rx="6.93" ry="6.93" transform="translate(1331 450.78) rotate(-180)"/>
        <rect class="cls-1" x="579.63" y="209.01" width="55.86" height="32.76" rx="6.93" ry="6.93" transform="translate(1215.12 450.78) rotate(-180)"/>
        <rect class="cls-1" x="521.68" y="209.01" width="55.86" height="32.76" rx="6.93" ry="6.93" transform="translate(1099.23 450.78) rotate(-180)"/>
        <rect class="cls-1" x="463.74" y="209.01" width="55.86" height="32.76" rx="6.93" ry="6.93" transform="translate(983.34 450.78) rotate(-180)"/>
        <rect class="cls-1" x="405.8" y="209.01" width="55.86" height="32.76" rx="6.93" ry="6.93" transform="translate(867.46 450.78) rotate(-180)"/>
        <rect class="cls-1" x="347.85" y="209.01" width="55.86" height="32.76" rx="6.93" ry="6.93" transform="translate(751.57 450.78) rotate(-180)"/>
        <rect class="cls-1" x="289.91" y="209.01" width="55.86" height="32.76" rx="6.93" ry="6.93" transform="translate(635.68 450.78) rotate(-180)"/>
        <rect class="cls-1" x="231.97" y="209.01" width="55.86" height="32.76" rx="6.93" ry="6.93" transform="translate(519.79 450.78) rotate(-180)"/>
        <rect class="cls-1" x="174.02" y="209.01" width="55.86" height="32.76" rx="6.93" ry="6.93" transform="translate(403.91 450.78) rotate(-180)"/>
        <rect class="cls-1" x="116.08" y="209.01" width="55.86" height="32.76" rx="6.93" ry="6.93" transform="translate(288.02 450.78) rotate(-180)"/>
        <rect class="cls-1" x="58.13" y="209.01" width="55.86" height="32.76" rx="6.93" ry="6.93" transform="translate(172.13 450.78) rotate(-180)"/>
        <rect class="cls-1" x=".19" y="209.01" width="55.86" height="32.76" rx="6.93" ry="6.93" transform="translate(56.25 450.78) rotate(-180)"/>
        <rect class="cls-1" x="637.57" y="243.85" width="55.86" height="32.76" rx="6.93" ry="6.93" transform="translate(1331 520.45) rotate(-180)"/>
        <rect class="cls-1" x="579.63" y="243.85" width="55.86" height="32.76" rx="6.93" ry="6.93" transform="translate(1215.12 520.45) rotate(-180)"/>
        <rect class="cls-1" x="521.68" y="243.85" width="55.86" height="32.76" rx="6.93" ry="6.93" transform="translate(1099.23 520.45) rotate(-180)"/>
        <rect class="cls-1" x="463.74" y="243.85" width="55.86" height="32.76" rx="6.93" ry="6.93" transform="translate(983.34 520.45) rotate(-180)"/>
        <rect class="cls-1" x="405.8" y="243.85" width="55.86" height="32.76" rx="6.93" ry="6.93" transform="translate(867.46 520.45) rotate(-180)"/>
        <rect class="cls-1" x="347.85" y="243.85" width="55.86" height="32.76" rx="6.93" ry="6.93" transform="translate(751.57 520.45) rotate(-180)"/>
        <rect class="cls-1" x="289.91" y="243.85" width="55.86" height="32.76" rx="6.93" ry="6.93" transform="translate(635.68 520.45) rotate(-180)"/>
        <rect class="cls-1" x="231.97" y="243.85" width="55.86" height="32.76" rx="6.93" ry="6.93" transform="translate(519.79 520.45) rotate(-180)"/>
        <rect class="cls-1" x="174.02" y="243.85" width="55.86" height="32.76" rx="6.93" ry="6.93" transform="translate(403.91 520.45) rotate(-180)"/>
        <rect class="cls-1" x="116.08" y="243.85" width="55.86" height="32.76" rx="6.93" ry="6.93" transform="translate(288.02 520.45) rotate(-180)"/>
        <rect class="cls-1" x="58.13" y="243.85" width="55.86" height="32.76" rx="6.93" ry="6.93" transform="translate(172.13 520.45) rotate(-180)"/>
        <rect class="cls-1" x=".19" y="243.85" width="55.86" height="32.76" rx="6.93" ry="6.93" transform="translate(56.25 520.45) rotate(-180)"/>
        <rect class="cls-1" x="637.57" y="278.68" width="55.86" height="32.76" rx="6.93" ry="6.93" transform="translate(1331 590.12) rotate(-180)"/>
        <rect class="cls-1" x="579.63" y="278.68" width="55.86" height="32.76" rx="6.93" ry="6.93" transform="translate(1215.12 590.12) rotate(-180)"/>
        <rect class="cls-1" x="521.68" y="278.68" width="55.86" height="32.76" rx="6.93" ry="6.93" transform="translate(1099.23 590.12) rotate(-180)"/>
        <rect class="cls-1" x="463.74" y="278.68" width="55.86" height="32.76" rx="6.93" ry="6.93" transform="translate(983.34 590.12) rotate(-180)"/>
        <rect class="cls-1" x="405.8" y="278.68" width="55.86" height="32.76" rx="6.93" ry="6.93" transform="translate(867.46 590.12) rotate(-180)"/>
        <rect class="cls-1" x="347.85" y="278.68" width="55.86" height="32.76" rx="6.93" ry="6.93" transform="translate(751.57 590.12) rotate(-180)"/>
        <rect class="cls-1" x="289.91" y="278.68" width="55.86" height="32.76" rx="6.93" ry="6.93" transform="translate(635.68 590.12) rotate(-180)"/>
        <rect class="cls-1" x="231.97" y="278.68" width="55.86" height="32.76" rx="6.93" ry="6.93" transform="translate(519.79 590.12) rotate(-180)"/>
        <rect class="cls-1" x="174.02" y="278.68" width="55.86" height="32.76" rx="6.93" ry="6.93" transform="translate(403.91 590.12) rotate(-180)"/>
        <rect class="cls-1" x="116.08" y="278.68" width="55.86" height="32.76" rx="6.93" ry="6.93" transform="translate(288.02 590.12) rotate(-180)"/>
        <rect class="cls-1" x="58.13" y="278.68" width="55.86" height="32.76" rx="6.93" ry="6.93" transform="translate(172.13 590.12) rotate(-180)"/>
        <rect class="cls-1" x=".19" y="278.68" width="55.86" height="32.76" rx="6.93" ry="6.93" transform="translate(56.25 590.12) rotate(-180)"/>
        <rect class="cls-1" x="637.57" y="313.52" width="55.86" height="32.76" rx="6.93" ry="6.93" transform="translate(1331 659.79) rotate(-180)"/>
        <rect class="cls-1" x="579.63" y="313.52" width="55.86" height="32.76" rx="6.93" ry="6.93" transform="translate(1215.12 659.79) rotate(-180)"/>
        <rect class="cls-1" x="521.68" y="313.52" width="55.86" height="32.76" rx="6.93" ry="6.93" transform="translate(1099.23 659.79) rotate(-180)"/>
        <rect class="cls-1" x="463.74" y="313.52" width="55.86" height="32.76" rx="6.93" ry="6.93" transform="translate(983.34 659.79) rotate(-180)"/>
        <rect class="cls-1" x="405.8" y="313.52" width="55.86" height="32.76" rx="6.93" ry="6.93" transform="translate(867.46 659.79) rotate(-180)"/>
        <rect class="cls-1" x="347.85" y="313.52" width="55.86" height="32.76" rx="6.93" ry="6.93" transform="translate(751.57 659.79) rotate(-180)"/>
        <rect class="cls-1" x="289.91" y="313.52" width="55.86" height="32.76" rx="6.93" ry="6.93" transform="translate(635.68 659.79) rotate(-180)"/>
        <rect class="cls-1" x="231.97" y="313.52" width="55.86" height="32.76" rx="6.93" ry="6.93" transform="translate(519.79 659.79) rotate(-180)"/>
        <rect class="cls-1" x="174.02" y="313.52" width="55.86" height="32.76" rx="6.93" ry="6.93" transform="translate(403.91 659.79) rotate(-180)"/>
        <rect class="cls-1" x="116.08" y="313.52" width="55.86" height="32.76" rx="6.93" ry="6.93" transform="translate(288.02 659.79) rotate(-180)"/>
        <rect class="cls-1" x="58.13" y="313.52" width="55.86" height="32.76" rx="6.93" ry="6.93" transform="translate(172.13 659.79) rotate(-180)"/>
        <rect class="cls-1" x=".19" y="313.52" width="55.86" height="32.76" rx="6.93" ry="6.93" transform="translate(56.25 659.79) rotate(-180)"/>
        <rect class="cls-1" x="637.57" y="348.35" width="55.86" height="32.76" rx="6.93" ry="6.93" transform="translate(1331 729.46) rotate(-180)"/>
        <rect class="cls-1" x="579.63" y="348.35" width="55.86" height="32.76" rx="6.93" ry="6.93" transform="translate(1215.12 729.46) rotate(-180)"/>
        <rect class="cls-1" x="521.68" y="348.35" width="55.86" height="32.76" rx="6.93" ry="6.93" transform="translate(1099.23 729.46) rotate(-180)"/>
        <rect class="cls-1" x="463.74" y="348.35" width="55.86" height="32.76" rx="6.93" ry="6.93" transform="translate(983.34 729.46) rotate(-180)"/>
        <rect class="cls-1" x="405.8" y="348.35" width="55.86" height="32.76" rx="6.93" ry="6.93" transform="translate(867.46 729.46) rotate(-180)"/>
        <rect class="cls-1" x="347.85" y="348.35" width="55.86" height="32.76" rx="6.93" ry="6.93" transform="translate(751.57 729.46) rotate(-180)"/>
        <rect class="cls-1" x="289.91" y="348.35" width="55.86" height="32.76" rx="6.93" ry="6.93" transform="translate(635.68 729.46) rotate(-180)"/>
        <rect class="cls-1" x="231.97" y="348.35" width="55.86" height="32.76" rx="6.93" ry="6.93" transform="translate(519.79 729.46) rotate(-180)"/>
        <rect class="cls-1" x="174.02" y="348.35" width="55.86" height="32.76" rx="6.93" ry="6.93" transform="translate(403.91 729.46) rotate(-180)"/>
        <rect class="cls-1" x="116.08" y="348.35" width="55.86" height="32.76" rx="6.93" ry="6.93" transform="translate(288.02 729.46) rotate(-180)"/>
        <rect class="cls-1" x="58.13" y="348.35" width="55.86" height="32.76" rx="6.93" ry="6.93" transform="translate(172.13 729.46) rotate(-180)"/>
        <rect class="cls-1" x=".19" y="348.35" width="55.86" height="32.76" rx="6.93" ry="6.93" transform="translate(56.25 729.46) rotate(-180)"/>
        <rect class="cls-1" x="637.57" y="383.19" width="55.86" height="32.76" rx="6.93" ry="6.93" transform="translate(1331 799.13) rotate(-180)"/>
        <rect class="cls-1" x="579.63" y="383.19" width="55.86" height="32.76" rx="6.93" ry="6.93" transform="translate(1215.12 799.13) rotate(-180)"/>
        <rect class="cls-1" x="521.68" y="383.19" width="55.86" height="32.76" rx="6.93" ry="6.93" transform="translate(1099.23 799.13) rotate(-180)"/>
        <rect class="cls-1" x="463.74" y="383.19" width="55.86" height="32.76" rx="6.93" ry="6.93" transform="translate(983.34 799.13) rotate(-180)"/>
        <rect class="cls-1" x="405.8" y="383.19" width="55.86" height="32.76" rx="6.93" ry="6.93" transform="translate(867.46 799.13) rotate(-180)"/>
        <rect class="cls-1" x="347.85" y="383.19" width="55.86" height="32.76" rx="6.93" ry="6.93" transform="translate(751.57 799.13) rotate(-180)"/>
        <rect class="cls-1" x="289.91" y="383.19" width="55.86" height="32.76" rx="6.93" ry="6.93" transform="translate(635.68 799.13) rotate(-180)"/>
        <rect class="cls-1" x="231.97" y="383.19" width="55.86" height="32.76" rx="6.93" ry="6.93" transform="translate(519.79 799.13) rotate(-180)"/>
        <rect class="cls-1" x="174.02" y="383.19" width="55.86" height="32.76" rx="6.93" ry="6.93" transform="translate(403.91 799.13) rotate(-180)"/>
        <rect class="cls-1" x="116.08" y="383.19" width="55.86" height="32.76" rx="6.93" ry="6.93" transform="translate(288.02 799.13) rotate(-180)"/>
        <rect class="cls-1" x="58.13" y="383.19" width="55.86" height="32.76" rx="6.93" ry="6.93" transform="translate(172.13 799.13) rotate(-180)"/>
        <rect class="cls-1" x=".19" y="383.19" width="55.86" height="32.76" rx="6.93" ry="6.93" transform="translate(56.25 799.13) rotate(-180)"/>
      </g>
      <g>
        <path d="M338.74,1c3.27,0,5.93,2.66,5.93,5.93v402.08c0,3.27-2.66,5.93-5.93,5.93H6.93c-3.27,0-5.93-2.66-5.93-5.93V6.93C1,3.66,3.66,1,6.93,1h331.81M338.74,0H6.93C3.1,0,0,3.1,0,6.93v402.08c0,3.83,3.1,6.93,6.93,6.93h331.81c3.83,0,6.93-3.1,6.93-6.93V6.93C345.68,3.1,342.57,0,338.74,0h0Z"/>
        <path d="M686.5,1c3.27,0,5.93,2.66,5.93,5.93v193.07c0,3.27-2.66,5.93-5.93,5.93h-331.81c-3.27,0-5.93-2.66-5.93-5.93V6.93c0-3.27,2.66-5.93,5.93-5.93h331.81M686.5,0h-331.81c-3.83,0-6.93,3.1-6.93,6.93v193.07c0,3.83,3.1,6.93,6.93,6.93h331.81c3.83,0,6.93-3.1,6.93-6.93V6.93C693.43,3.1,690.33,0,686.5,0h0Z"/>
        <path d="M686.5,210.01c3.27,0,5.93,2.66,5.93,5.93v193.07c0,3.27-2.66,5.93-5.93,5.93h-331.81c-3.27,0-5.93-2.66-5.93-5.93v-193.07c0-3.27,2.66-5.93,5.93-5.93h331.81M686.5,209.01h-331.81c-3.83,0-6.93,3.1-6.93,6.93v193.07c0,3.83,3.1,6.93,6.93,6.93h331.81c3.83,0,6.93-3.1,6.93-6.93v-193.07c0-3.83-3.1-6.93-6.93-6.93h0Z"/>
      </g>
    </g>
  </g>
</svg>