<?xml version="1.0" encoding="UTF-8"?>
<svg id="Layer_2" data-name="Layer 2" xmlns="http://www.w3.org/2000/svg" viewBox="0 0 694.68 416.81">
  <defs>
    <style>
      .cls-1 {
        fill: #daff06;
      }
    </style>
  </defs>
  <g id="Layer_1-2" data-name="Layer 1">
    <g>
      <g>
        <rect class="cls-1" x="1.44" y=".87" width="55.86" height="32.76" rx="6.93" ry="6.93"/>
        <rect class="cls-1" x="59.39" y=".87" width="55.86" height="32.76" rx="6.93" ry="6.93"/>
        <rect class="cls-1" x="117.33" y=".87" width="55.86" height="32.76" rx="6.93" ry="6.93"/>
        <rect class="cls-1" x="175.27" y=".87" width="55.86" height="32.76" rx="6.93" ry="6.93"/>
        <rect class="cls-1" x="233.22" y=".87" width="55.86" height="32.76" rx="6.93" ry="6.93"/>
        <rect class="cls-1" x="291.16" y=".87" width="55.86" height="32.76" rx="6.93" ry="6.93"/>
        <rect class="cls-1" x="349.1" y=".87" width="55.86" height="32.76" rx="6.93" ry="6.93"/>
        <rect class="cls-1" x="407.05" y=".87" width="55.86" height="32.76" rx="6.93" ry="6.93"/>
        <rect class="cls-1" x="464.99" y=".87" width="55.86" height="32.76" rx="6.93" ry="6.93"/>
        <rect class="cls-1" x="522.93" y=".87" width="55.86" height="32.76" rx="6.93" ry="6.93"/>
        <rect class="cls-1" x="580.88" y=".87" width="55.86" height="32.76" rx="6.93" ry="6.93"/>
        <rect class="cls-1" x="638.82" y=".87" width="55.86" height="32.76" rx="6.93" ry="6.93"/>
        <rect class="cls-1" x="1.44" y="35.7" width="55.86" height="32.76" rx="6.93" ry="6.93"/>
        <rect class="cls-1" x="59.39" y="35.7" width="55.86" height="32.76" rx="6.93" ry="6.93"/>
        <rect class="cls-1" x="117.33" y="35.7" width="55.86" height="32.76" rx="6.93" ry="6.93"/>
        <rect class="cls-1" x="175.27" y="35.7" width="55.86" height="32.76" rx="6.93" ry="6.93"/>
        <rect class="cls-1" x="233.22" y="35.7" width="55.86" height="32.76" rx="6.93" ry="6.93"/>
        <rect class="cls-1" x="291.16" y="35.7" width="55.86" height="32.76" rx="6.93" ry="6.93"/>
        <rect class="cls-1" x="349.1" y="35.7" width="55.86" height="32.76" rx="6.93" ry="6.93"/>
        <rect class="cls-1" x="407.05" y="35.7" width="55.86" height="32.76" rx="6.93" ry="6.93"/>
        <rect class="cls-1" x="464.99" y="35.7" width="55.86" height="32.76" rx="6.93" ry="6.93"/>
        <rect class="cls-1" x="522.93" y="35.7" width="55.86" height="32.76" rx="6.93" ry="6.93"/>
        <rect class="cls-1" x="580.88" y="35.7" width="55.86" height="32.76" rx="6.93" ry="6.93"/>
        <rect class="cls-1" x="638.82" y="35.7" width="55.86" height="32.76" rx="6.93" ry="6.93"/>
        <rect class="cls-1" x="1.44" y="70.54" width="55.86" height="32.76" rx="6.93" ry="6.93"/>
        <rect class="cls-1" x="59.39" y="70.54" width="55.86" height="32.76" rx="6.93" ry="6.93"/>
        <rect class="cls-1" x="117.33" y="70.54" width="55.86" height="32.76" rx="6.93" ry="6.93"/>
        <rect class="cls-1" x="175.27" y="70.54" width="55.86" height="32.76" rx="6.93" ry="6.93"/>
        <rect class="cls-1" x="233.22" y="70.54" width="55.86" height="32.76" rx="6.93" ry="6.93"/>
        <rect class="cls-1" x="291.16" y="70.54" width="55.86" height="32.76" rx="6.93" ry="6.93"/>
        <rect class="cls-1" x="349.1" y="70.54" width="55.86" height="32.76" rx="6.93" ry="6.93"/>
        <rect class="cls-1" x="407.05" y="70.54" width="55.86" height="32.76" rx="6.93" ry="6.93"/>
        <rect class="cls-1" x="464.99" y="70.54" width="55.86" height="32.76" rx="6.93" ry="6.93"/>
        <rect class="cls-1" x="522.93" y="70.54" width="55.86" height="32.76" rx="6.93" ry="6.93"/>
        <rect class="cls-1" x="580.88" y="70.54" width="55.86" height="32.76" rx="6.93" ry="6.93"/>
        <rect class="cls-1" x="638.82" y="70.54" width="55.86" height="32.76" rx="6.93" ry="6.93"/>
        <rect class="cls-1" x="1.44" y="105.37" width="55.86" height="32.76" rx="6.93" ry="6.93"/>
        <rect class="cls-1" x="59.39" y="105.37" width="55.86" height="32.76" rx="6.93" ry="6.93"/>
        <rect class="cls-1" x="117.33" y="105.37" width="55.86" height="32.76" rx="6.93" ry="6.93"/>
        <rect class="cls-1" x="175.27" y="105.37" width="55.86" height="32.76" rx="6.93" ry="6.93"/>
        <rect class="cls-1" x="233.22" y="105.37" width="55.86" height="32.76" rx="6.93" ry="6.93"/>
        <rect class="cls-1" x="291.16" y="105.37" width="55.86" height="32.76" rx="6.93" ry="6.93"/>
        <rect class="cls-1" x="349.1" y="105.37" width="55.86" height="32.76" rx="6.93" ry="6.93"/>
        <rect class="cls-1" x="407.05" y="105.37" width="55.86" height="32.76" rx="6.93" ry="6.93"/>
        <rect class="cls-1" x="464.99" y="105.37" width="55.86" height="32.76" rx="6.93" ry="6.93"/>
        <rect class="cls-1" x="522.93" y="105.37" width="55.86" height="32.76" rx="6.93" ry="6.93"/>
        <rect class="cls-1" x="580.88" y="105.37" width="55.86" height="32.76" rx="6.93" ry="6.93"/>
        <rect class="cls-1" x="638.82" y="105.37" width="55.86" height="32.76" rx="6.93" ry="6.93"/>
        <rect class="cls-1" x="1.44" y="140.21" width="55.86" height="32.76" rx="6.93" ry="6.93"/>
        <rect class="cls-1" x="59.39" y="140.21" width="55.86" height="32.76" rx="6.93" ry="6.93"/>
        <rect class="cls-1" x="117.33" y="140.21" width="55.86" height="32.76" rx="6.93" ry="6.93"/>
        <rect class="cls-1" x="175.27" y="140.21" width="55.86" height="32.76" rx="6.93" ry="6.93"/>
        <rect class="cls-1" x="233.22" y="140.21" width="55.86" height="32.76" rx="6.93" ry="6.93"/>
        <rect class="cls-1" x="291.16" y="140.21" width="55.86" height="32.76" rx="6.93" ry="6.93"/>
        <rect class="cls-1" x="349.1" y="140.21" width="55.86" height="32.76" rx="6.93" ry="6.93"/>
        <rect class="cls-1" x="407.05" y="140.21" width="55.86" height="32.76" rx="6.93" ry="6.93"/>
        <rect class="cls-1" x="464.99" y="140.21" width="55.86" height="32.76" rx="6.93" ry="6.93"/>
        <rect class="cls-1" x="522.93" y="140.21" width="55.86" height="32.76" rx="6.93" ry="6.93"/>
        <rect class="cls-1" x="580.88" y="140.21" width="55.86" height="32.76" rx="6.93" ry="6.93"/>
        <rect class="cls-1" x="638.82" y="140.21" width="55.86" height="32.76" rx="6.93" ry="6.93"/>
        <rect class="cls-1" x="1.44" y="175.04" width="55.86" height="32.76" rx="6.93" ry="6.93"/>
        <rect class="cls-1" x="59.39" y="175.04" width="55.86" height="32.76" rx="6.93" ry="6.93"/>
        <rect class="cls-1" x="117.33" y="175.04" width="55.86" height="32.76" rx="6.93" ry="6.93"/>
        <rect class="cls-1" x="175.27" y="175.04" width="55.86" height="32.76" rx="6.93" ry="6.93"/>
        <rect class="cls-1" x="233.22" y="175.04" width="55.86" height="32.76" rx="6.93" ry="6.93"/>
        <rect class="cls-1" x="291.16" y="175.04" width="55.86" height="32.76" rx="6.93" ry="6.93"/>
        <rect class="cls-1" x="349.1" y="175.04" width="55.86" height="32.76" rx="6.93" ry="6.93"/>
        <rect class="cls-1" x="407.05" y="175.04" width="55.86" height="32.76" rx="6.93" ry="6.93"/>
        <rect class="cls-1" x="464.99" y="175.04" width="55.86" height="32.76" rx="6.93" ry="6.93"/>
        <rect class="cls-1" x="522.93" y="175.04" width="55.86" height="32.76" rx="6.93" ry="6.93"/>
        <rect class="cls-1" x="580.88" y="175.04" width="55.86" height="32.76" rx="6.93" ry="6.93"/>
        <rect class="cls-1" x="638.82" y="175.04" width="55.86" height="32.76" rx="6.93" ry="6.93"/>
        <rect class="cls-1" x="1.44" y="209.88" width="55.86" height="32.76" rx="6.93" ry="6.93"/>
        <rect class="cls-1" x="59.39" y="209.88" width="55.86" height="32.76" rx="6.93" ry="6.93"/>
        <rect class="cls-1" x="117.33" y="209.88" width="55.86" height="32.76" rx="6.93" ry="6.93"/>
        <rect class="cls-1" x="175.27" y="209.88" width="55.86" height="32.76" rx="6.93" ry="6.93"/>
        <rect class="cls-1" x="233.22" y="209.88" width="55.86" height="32.76" rx="6.93" ry="6.93"/>
        <rect class="cls-1" x="291.16" y="209.88" width="55.86" height="32.76" rx="6.93" ry="6.93"/>
        <rect class="cls-1" x="349.1" y="209.88" width="55.86" height="32.76" rx="6.93" ry="6.93"/>
        <rect class="cls-1" x="407.05" y="209.88" width="55.86" height="32.76" rx="6.93" ry="6.93"/>
        <rect class="cls-1" x="464.99" y="209.88" width="55.86" height="32.76" rx="6.93" ry="6.93"/>
        <rect class="cls-1" x="522.93" y="209.88" width="55.86" height="32.76" rx="6.93" ry="6.93"/>
        <rect class="cls-1" x="580.88" y="209.88" width="55.86" height="32.76" rx="6.93" ry="6.93"/>
        <rect class="cls-1" x="638.82" y="209.88" width="55.86" height="32.76" rx="6.93" ry="6.93"/>
        <rect class="cls-1" x="1.44" y="244.71" width="55.86" height="32.76" rx="6.93" ry="6.93"/>
        <rect class="cls-1" x="59.39" y="244.71" width="55.86" height="32.76" rx="6.93" ry="6.93"/>
        <rect class="cls-1" x="117.33" y="244.71" width="55.86" height="32.76" rx="6.93" ry="6.93"/>
        <rect class="cls-1" x="175.27" y="244.71" width="55.86" height="32.76" rx="6.93" ry="6.93"/>
        <rect class="cls-1" x="233.22" y="244.71" width="55.86" height="32.76" rx="6.93" ry="6.93"/>
        <rect class="cls-1" x="291.16" y="244.71" width="55.86" height="32.76" rx="6.93" ry="6.93"/>
        <rect class="cls-1" x="349.1" y="244.71" width="55.86" height="32.76" rx="6.93" ry="6.93"/>
        <rect class="cls-1" x="407.05" y="244.71" width="55.86" height="32.76" rx="6.93" ry="6.93"/>
        <rect class="cls-1" x="464.99" y="244.71" width="55.86" height="32.76" rx="6.93" ry="6.93"/>
        <rect class="cls-1" x="522.93" y="244.71" width="55.86" height="32.76" rx="6.93" ry="6.93"/>
        <rect class="cls-1" x="580.88" y="244.71" width="55.86" height="32.76" rx="6.93" ry="6.93"/>
        <rect class="cls-1" x="638.82" y="244.71" width="55.86" height="32.76" rx="6.93" ry="6.93"/>
        <rect class="cls-1" x="1.44" y="279.55" width="55.86" height="32.76" rx="6.93" ry="6.93"/>
        <rect class="cls-1" x="59.39" y="279.55" width="55.86" height="32.76" rx="6.93" ry="6.93"/>
        <rect class="cls-1" x="117.33" y="279.55" width="55.86" height="32.76" rx="6.93" ry="6.93"/>
        <rect class="cls-1" x="175.27" y="279.55" width="55.86" height="32.76" rx="6.93" ry="6.93"/>
        <rect class="cls-1" x="233.22" y="279.55" width="55.86" height="32.76" rx="6.93" ry="6.93"/>
        <rect class="cls-1" x="291.16" y="279.55" width="55.86" height="32.76" rx="6.93" ry="6.93"/>
        <rect class="cls-1" x="349.1" y="279.55" width="55.86" height="32.76" rx="6.93" ry="6.93"/>
        <rect class="cls-1" x="407.05" y="279.55" width="55.86" height="32.76" rx="6.93" ry="6.93"/>
        <rect class="cls-1" x="464.99" y="279.55" width="55.86" height="32.76" rx="6.93" ry="6.93"/>
        <rect class="cls-1" x="522.93" y="279.55" width="55.86" height="32.76" rx="6.93" ry="6.93"/>
        <rect class="cls-1" x="580.88" y="279.55" width="55.86" height="32.76" rx="6.93" ry="6.93"/>
        <rect class="cls-1" x="638.82" y="279.55" width="55.86" height="32.76" rx="6.93" ry="6.93"/>
        <rect class="cls-1" x="1.44" y="314.38" width="55.86" height="32.76" rx="6.93" ry="6.93"/>
        <rect class="cls-1" x="59.39" y="314.38" width="55.86" height="32.76" rx="6.93" ry="6.93"/>
        <rect class="cls-1" x="117.33" y="314.38" width="55.86" height="32.76" rx="6.93" ry="6.93"/>
        <rect class="cls-1" x="175.27" y="314.38" width="55.86" height="32.76" rx="6.93" ry="6.93"/>
        <rect class="cls-1" x="233.22" y="314.38" width="55.86" height="32.76" rx="6.93" ry="6.93"/>
        <rect class="cls-1" x="291.16" y="314.38" width="55.86" height="32.76" rx="6.93" ry="6.93"/>
        <rect class="cls-1" x="349.1" y="314.38" width="55.86" height="32.76" rx="6.93" ry="6.93"/>
        <rect class="cls-1" x="407.05" y="314.38" width="55.86" height="32.76" rx="6.93" ry="6.93"/>
        <rect class="cls-1" x="464.99" y="314.38" width="55.86" height="32.76" rx="6.93" ry="6.93"/>
        <rect class="cls-1" x="522.93" y="314.38" width="55.86" height="32.76" rx="6.93" ry="6.93"/>
        <rect class="cls-1" x="580.88" y="314.38" width="55.86" height="32.76" rx="6.93" ry="6.93"/>
        <rect class="cls-1" x="638.82" y="314.38" width="55.86" height="32.76" rx="6.93" ry="6.93"/>
        <rect class="cls-1" x="1.44" y="349.22" width="55.86" height="32.76" rx="6.93" ry="6.93"/>
        <rect class="cls-1" x="59.39" y="349.22" width="55.86" height="32.76" rx="6.93" ry="6.93"/>
        <rect class="cls-1" x="117.33" y="349.22" width="55.86" height="32.76" rx="6.93" ry="6.93"/>
        <rect class="cls-1" x="175.27" y="349.22" width="55.86" height="32.76" rx="6.93" ry="6.93"/>
        <rect class="cls-1" x="233.22" y="349.22" width="55.86" height="32.76" rx="6.93" ry="6.93"/>
        <rect class="cls-1" x="291.16" y="349.22" width="55.86" height="32.76" rx="6.93" ry="6.93"/>
        <rect class="cls-1" x="349.1" y="349.22" width="55.86" height="32.76" rx="6.93" ry="6.93"/>
        <rect class="cls-1" x="407.05" y="349.22" width="55.86" height="32.76" rx="6.93" ry="6.93"/>
        <rect class="cls-1" x="464.99" y="349.22" width="55.86" height="32.76" rx="6.93" ry="6.93"/>
        <rect class="cls-1" x="522.93" y="349.22" width="55.86" height="32.76" rx="6.93" ry="6.93"/>
        <rect class="cls-1" x="580.88" y="349.22" width="55.86" height="32.76" rx="6.93" ry="6.93"/>
        <rect class="cls-1" x="638.82" y="349.22" width="55.86" height="32.76" rx="6.93" ry="6.93"/>
        <rect class="cls-1" x="1.44" y="384.05" width="55.86" height="32.76" rx="6.93" ry="6.93"/>
        <rect class="cls-1" x="59.39" y="384.05" width="55.86" height="32.76" rx="6.93" ry="6.93"/>
        <rect class="cls-1" x="117.33" y="384.05" width="55.86" height="32.76" rx="6.93" ry="6.93"/>
        <rect class="cls-1" x="175.27" y="384.05" width="55.86" height="32.76" rx="6.93" ry="6.93"/>
        <rect class="cls-1" x="233.22" y="384.05" width="55.86" height="32.76" rx="6.93" ry="6.93"/>
        <rect class="cls-1" x="291.16" y="384.05" width="55.86" height="32.76" rx="6.93" ry="6.93"/>
        <rect class="cls-1" x="349.1" y="384.05" width="55.86" height="32.76" rx="6.93" ry="6.93"/>
        <rect class="cls-1" x="407.05" y="384.05" width="55.86" height="32.76" rx="6.93" ry="6.93"/>
        <rect class="cls-1" x="464.99" y="384.05" width="55.86" height="32.76" rx="6.93" ry="6.93"/>
        <rect class="cls-1" x="522.93" y="384.05" width="55.86" height="32.76" rx="6.93" ry="6.93"/>
        <rect class="cls-1" x="580.88" y="384.05" width="55.86" height="32.76" rx="6.93" ry="6.93"/>
        <rect class="cls-1" x="638.82" y="384.05" width="55.86" height="32.76" rx="6.93" ry="6.93"/>
      </g>
      <g>
        <path d="M687.74,1c3.28,0,5.95,2.67,5.95,5.95v263.29c0,3.28-2.67,5.95-5.95,5.95H239.2c-3.28,0-5.95-2.67-5.95-5.95V6.95c0-3.28,2.67-5.95,5.95-5.95h448.53M687.74,0H239.2c-3.84,0-6.95,3.11-6.95,6.95v263.29c0,3.84,3.11,6.95,6.95,6.95h448.53c3.84,0,6.95-3.11,6.95-6.95V6.95c0-3.84-3.11-6.95-6.95-6.95h0Z"/>
        <path d="M687.74,280.26c3.28,0,5.95,2.67,5.95,5.95v123.65c0,3.28-2.67,5.95-5.95,5.95h-100.15c-3.28,0-5.95-2.67-5.95-5.95v-123.65c0-3.28,2.67-5.95,5.95-5.95h100.15M687.74,279.26h-100.15c-3.84,0-6.95,3.11-6.95,6.95v123.65c0,3.84,3.11,6.95,6.95,6.95h100.15c3.84,0,6.95-3.11,6.95-6.95v-123.65c0-3.84-3.11-6.95-6.95-6.95h0Z"/>
        <path d="M571.61,280.26c3.28,0,5.95,2.67,5.95,5.95v123.65c0,3.28-2.67,5.95-5.95,5.95h-100.15c-3.28,0-5.95-2.67-5.95-5.95v-123.65c0-3.28,2.67-5.95,5.95-5.95h100.15M571.61,279.26h-100.15c-3.84,0-6.95,3.11-6.95,6.95v123.65c0,3.84,3.11,6.95,6.95,6.95h100.15c3.84,0,6.95-3.11,6.95-6.95v-123.65c0-3.84-3.11-6.95-6.95-6.95h0Z"/>
        <path d="M455.48,280.26c3.28,0,5.95,2.67,5.95,5.95v123.65c0,3.28-2.67,5.95-5.95,5.95h-100.15c-3.28,0-5.95-2.67-5.95-5.95v-123.65c0-3.28,2.67-5.95,5.95-5.95h100.15M455.48,279.26h-100.15c-3.84,0-6.95,3.11-6.95,6.95v123.65c0,3.84,3.11,6.95,6.95,6.95h100.15c3.84,0,6.95-3.11,6.95-6.95v-123.65c0-3.84-3.11-6.95-6.95-6.95h0Z"/>
        <path d="M339.35,280.26c3.28,0,5.95,2.67,5.95,5.95v123.65c0,3.28-2.67,5.95-5.95,5.95h-100.15c-3.28,0-5.95-2.67-5.95-5.95v-123.65c0-3.28,2.67-5.95,5.95-5.95h100.15M339.35,279.26h-100.15c-3.84,0-6.95,3.11-6.95,6.95v123.65c0,3.84,3.11,6.95,6.95,6.95h100.15c3.84,0,6.95-3.11,6.95-6.95v-123.65c0-3.84-3.11-6.95-6.95-6.95h0Z"/>
        <path d="M223.23,1c3.28,0,5.95,2.67,5.95,5.95v402.92c0,3.28-2.67,5.95-5.95,5.95H6.95c-3.28,0-5.95-2.67-5.95-5.95V6.95C1,3.67,3.67,1,6.95,1h216.28M223.23,0H6.95C3.11,0,0,3.11,0,6.95v402.92c0,3.84,3.11,6.95,6.95,6.95h216.28c3.84,0,6.95-3.11,6.95-6.95V6.95c0-3.84-3.11-6.95-6.95-6.95h0Z"/>
      </g>
    </g>
  </g>
</svg>