<?xml version="1.0" encoding="UTF-8"?>
<svg id="Layer_2" data-name="Layer 2" xmlns="http://www.w3.org/2000/svg" viewBox="0 0 693.24 416.99">
  <defs>
    <style>
      .cls-1 {
        fill: #daff06;
      }
    </style>
  </defs>
  <g id="Layer_1-2" data-name="Layer 1">
    <g>
      <g>
        <rect class="cls-1" x="637.38" y="384.23" width="55.86" height="32.76" rx="6.93" ry="6.93" transform="translate(1330.62 801.21) rotate(180)"/>
        <rect class="cls-1" x="579.43" y="384.23" width="55.86" height="32.76" rx="6.93" ry="6.93" transform="translate(1214.73 801.21) rotate(180)"/>
        <rect class="cls-1" x="521.49" y="384.23" width="55.86" height="32.76" rx="6.93" ry="6.93" transform="translate(1098.85 801.21) rotate(180)"/>
        <rect class="cls-1" x="463.55" y="384.23" width="55.86" height="32.76" rx="6.93" ry="6.93" transform="translate(982.96 801.21) rotate(180)"/>
        <rect class="cls-1" x="405.6" y="384.23" width="55.86" height="32.76" rx="6.93" ry="6.93" transform="translate(867.07 801.21) rotate(180)"/>
        <rect class="cls-1" x="347.66" y="384.23" width="55.86" height="32.76" rx="6.93" ry="6.93" transform="translate(751.19 801.21) rotate(180)"/>
        <rect class="cls-1" x="289.72" y="384.23" width="55.86" height="32.76" rx="6.93" ry="6.93" transform="translate(635.3 801.21) rotate(180)"/>
        <rect class="cls-1" x="231.77" y="384.23" width="55.86" height="32.76" rx="6.93" ry="6.93" transform="translate(519.41 801.21) rotate(180)"/>
        <rect class="cls-1" x="173.83" y="384.23" width="55.86" height="32.76" rx="6.93" ry="6.93" transform="translate(403.52 801.21) rotate(180)"/>
        <rect class="cls-1" x="115.89" y="384.23" width="55.86" height="32.76" rx="6.93" ry="6.93" transform="translate(287.64 801.21) rotate(180)"/>
        <rect class="cls-1" x="57.94" y="384.23" width="55.86" height="32.76" rx="6.93" ry="6.93" transform="translate(171.75 801.21) rotate(180)"/>
        <rect class="cls-1" y="384.23" width="55.86" height="32.76" rx="6.93" ry="6.93" transform="translate(55.86 801.21) rotate(180)"/>
        <rect class="cls-1" x="637.38" y="349.39" width="55.86" height="32.76" rx="6.93" ry="6.93" transform="translate(1330.62 731.54) rotate(180)"/>
        <rect class="cls-1" x="579.43" y="349.39" width="55.86" height="32.76" rx="6.93" ry="6.93" transform="translate(1214.73 731.54) rotate(180)"/>
        <rect class="cls-1" x="521.49" y="349.39" width="55.86" height="32.76" rx="6.93" ry="6.93" transform="translate(1098.85 731.54) rotate(180)"/>
        <rect class="cls-1" x="463.55" y="349.39" width="55.86" height="32.76" rx="6.93" ry="6.93" transform="translate(982.96 731.54) rotate(180)"/>
        <rect class="cls-1" x="405.6" y="349.39" width="55.86" height="32.76" rx="6.93" ry="6.93" transform="translate(867.07 731.54) rotate(180)"/>
        <rect class="cls-1" x="347.66" y="349.39" width="55.86" height="32.76" rx="6.93" ry="6.93" transform="translate(751.19 731.54) rotate(180)"/>
        <rect class="cls-1" x="289.72" y="349.39" width="55.86" height="32.76" rx="6.93" ry="6.93" transform="translate(635.3 731.54) rotate(180)"/>
        <rect class="cls-1" x="231.77" y="349.39" width="55.86" height="32.76" rx="6.93" ry="6.93" transform="translate(519.41 731.54) rotate(180)"/>
        <rect class="cls-1" x="173.83" y="349.39" width="55.86" height="32.76" rx="6.93" ry="6.93" transform="translate(403.52 731.54) rotate(180)"/>
        <rect class="cls-1" x="115.89" y="349.39" width="55.86" height="32.76" rx="6.93" ry="6.93" transform="translate(287.64 731.54) rotate(180)"/>
        <rect class="cls-1" x="57.94" y="349.39" width="55.86" height="32.76" rx="6.93" ry="6.93" transform="translate(171.75 731.54) rotate(180)"/>
        <rect class="cls-1" y="349.39" width="55.86" height="32.76" rx="6.93" ry="6.93" transform="translate(55.86 731.54) rotate(180)"/>
        <rect class="cls-1" x="637.38" y="314.56" width="55.86" height="32.76" rx="6.93" ry="6.93" transform="translate(1330.62 661.87) rotate(180)"/>
        <rect class="cls-1" x="579.43" y="314.56" width="55.86" height="32.76" rx="6.93" ry="6.93" transform="translate(1214.73 661.87) rotate(180)"/>
        <rect class="cls-1" x="521.49" y="314.56" width="55.86" height="32.76" rx="6.93" ry="6.93" transform="translate(1098.85 661.87) rotate(180)"/>
        <rect class="cls-1" x="463.55" y="314.56" width="55.86" height="32.76" rx="6.93" ry="6.93" transform="translate(982.96 661.87) rotate(180)"/>
        <rect class="cls-1" x="405.6" y="314.56" width="55.86" height="32.76" rx="6.93" ry="6.93" transform="translate(867.07 661.87) rotate(180)"/>
        <rect class="cls-1" x="347.66" y="314.56" width="55.86" height="32.76" rx="6.93" ry="6.93" transform="translate(751.19 661.87) rotate(180)"/>
        <rect class="cls-1" x="289.72" y="314.56" width="55.86" height="32.76" rx="6.93" ry="6.93" transform="translate(635.3 661.87) rotate(180)"/>
        <rect class="cls-1" x="231.77" y="314.56" width="55.86" height="32.76" rx="6.93" ry="6.93" transform="translate(519.41 661.87) rotate(180)"/>
        <rect class="cls-1" x="173.83" y="314.56" width="55.86" height="32.76" rx="6.93" ry="6.93" transform="translate(403.52 661.87) rotate(180)"/>
        <rect class="cls-1" x="115.89" y="314.56" width="55.86" height="32.76" rx="6.93" ry="6.93" transform="translate(287.64 661.87) rotate(180)"/>
        <rect class="cls-1" x="57.94" y="314.56" width="55.86" height="32.76" rx="6.93" ry="6.93" transform="translate(171.75 661.87) rotate(180)"/>
        <rect class="cls-1" y="314.56" width="55.86" height="32.76" rx="6.93" ry="6.93" transform="translate(55.86 661.87) rotate(180)"/>
        <rect class="cls-1" x="637.38" y="279.72" width="55.86" height="32.76" rx="6.93" ry="6.93" transform="translate(1330.62 592.2) rotate(180)"/>
        <rect class="cls-1" x="579.43" y="279.72" width="55.86" height="32.76" rx="6.93" ry="6.93" transform="translate(1214.73 592.2) rotate(180)"/>
        <rect class="cls-1" x="521.49" y="279.72" width="55.86" height="32.76" rx="6.93" ry="6.93" transform="translate(1098.85 592.2) rotate(180)"/>
        <rect class="cls-1" x="463.55" y="279.72" width="55.86" height="32.76" rx="6.93" ry="6.93" transform="translate(982.96 592.2) rotate(180)"/>
        <rect class="cls-1" x="405.6" y="279.72" width="55.86" height="32.76" rx="6.93" ry="6.93" transform="translate(867.07 592.2) rotate(180)"/>
        <rect class="cls-1" x="347.66" y="279.72" width="55.86" height="32.76" rx="6.93" ry="6.93" transform="translate(751.19 592.2) rotate(180)"/>
        <rect class="cls-1" x="289.72" y="279.72" width="55.86" height="32.76" rx="6.93" ry="6.93" transform="translate(635.3 592.2) rotate(180)"/>
        <rect class="cls-1" x="231.77" y="279.72" width="55.86" height="32.76" rx="6.93" ry="6.93" transform="translate(519.41 592.2) rotate(180)"/>
        <rect class="cls-1" x="173.83" y="279.72" width="55.86" height="32.76" rx="6.93" ry="6.93" transform="translate(403.52 592.2) rotate(180)"/>
        <rect class="cls-1" x="115.89" y="279.72" width="55.86" height="32.76" rx="6.93" ry="6.93" transform="translate(287.64 592.2) rotate(180)"/>
        <rect class="cls-1" x="57.94" y="279.72" width="55.86" height="32.76" rx="6.93" ry="6.93" transform="translate(171.75 592.2) rotate(180)"/>
        <rect class="cls-1" y="279.72" width="55.86" height="32.76" rx="6.93" ry="6.93" transform="translate(55.86 592.2) rotate(180)"/>
        <rect class="cls-1" x="637.38" y="244.89" width="55.86" height="32.76" rx="6.93" ry="6.93" transform="translate(1330.62 522.53) rotate(180)"/>
        <rect class="cls-1" x="579.43" y="244.89" width="55.86" height="32.76" rx="6.93" ry="6.93" transform="translate(1214.73 522.53) rotate(180)"/>
        <rect class="cls-1" x="521.49" y="244.89" width="55.86" height="32.76" rx="6.93" ry="6.93" transform="translate(1098.85 522.53) rotate(180)"/>
        <rect class="cls-1" x="463.55" y="244.89" width="55.86" height="32.76" rx="6.93" ry="6.93" transform="translate(982.96 522.53) rotate(180)"/>
        <rect class="cls-1" x="405.6" y="244.89" width="55.86" height="32.76" rx="6.93" ry="6.93" transform="translate(867.07 522.53) rotate(180)"/>
        <rect class="cls-1" x="347.66" y="244.89" width="55.86" height="32.76" rx="6.93" ry="6.93" transform="translate(751.19 522.53) rotate(180)"/>
        <rect class="cls-1" x="289.72" y="244.89" width="55.86" height="32.76" rx="6.93" ry="6.93" transform="translate(635.3 522.53) rotate(180)"/>
        <rect class="cls-1" x="231.77" y="244.89" width="55.86" height="32.76" rx="6.93" ry="6.93" transform="translate(519.41 522.53) rotate(180)"/>
        <rect class="cls-1" x="173.83" y="244.89" width="55.86" height="32.76" rx="6.93" ry="6.93" transform="translate(403.52 522.53) rotate(180)"/>
        <rect class="cls-1" x="115.89" y="244.89" width="55.86" height="32.76" rx="6.93" ry="6.93" transform="translate(287.64 522.53) rotate(180)"/>
        <rect class="cls-1" x="57.94" y="244.89" width="55.86" height="32.76" rx="6.93" ry="6.93" transform="translate(171.75 522.53) rotate(180)"/>
        <rect class="cls-1" y="244.89" width="55.86" height="32.76" rx="6.93" ry="6.93" transform="translate(55.86 522.53) rotate(180)"/>
        <rect class="cls-1" x="637.38" y="210.05" width="55.86" height="32.76" rx="6.93" ry="6.93" transform="translate(1330.62 452.86) rotate(180)"/>
        <rect class="cls-1" x="579.43" y="210.05" width="55.86" height="32.76" rx="6.93" ry="6.93" transform="translate(1214.73 452.86) rotate(180)"/>
        <rect class="cls-1" x="521.49" y="210.05" width="55.86" height="32.76" rx="6.93" ry="6.93" transform="translate(1098.85 452.86) rotate(180)"/>
        <rect class="cls-1" x="463.55" y="210.05" width="55.86" height="32.76" rx="6.93" ry="6.93" transform="translate(982.96 452.86) rotate(180)"/>
        <rect class="cls-1" x="405.6" y="210.05" width="55.86" height="32.76" rx="6.93" ry="6.93" transform="translate(867.07 452.86) rotate(180)"/>
        <rect class="cls-1" x="347.66" y="210.05" width="55.86" height="32.76" rx="6.93" ry="6.93" transform="translate(751.19 452.86) rotate(180)"/>
        <rect class="cls-1" x="289.72" y="210.05" width="55.86" height="32.76" rx="6.93" ry="6.93" transform="translate(635.3 452.86) rotate(180)"/>
        <rect class="cls-1" x="231.77" y="210.05" width="55.86" height="32.76" rx="6.93" ry="6.93" transform="translate(519.41 452.86) rotate(180)"/>
        <rect class="cls-1" x="173.83" y="210.05" width="55.86" height="32.76" rx="6.93" ry="6.93" transform="translate(403.52 452.86) rotate(180)"/>
        <rect class="cls-1" x="115.89" y="210.05" width="55.86" height="32.76" rx="6.93" ry="6.93" transform="translate(287.64 452.86) rotate(180)"/>
        <rect class="cls-1" x="57.94" y="210.05" width="55.86" height="32.76" rx="6.93" ry="6.93" transform="translate(171.75 452.86) rotate(180)"/>
        <rect class="cls-1" y="210.05" width="55.86" height="32.76" rx="6.93" ry="6.93" transform="translate(55.86 452.86) rotate(180)"/>
        <rect class="cls-1" x="637.38" y="175.22" width="55.86" height="32.76" rx="6.93" ry="6.93" transform="translate(1330.62 383.19) rotate(180)"/>
        <rect class="cls-1" x="579.43" y="175.22" width="55.86" height="32.76" rx="6.93" ry="6.93" transform="translate(1214.73 383.19) rotate(180)"/>
        <rect class="cls-1" x="521.49" y="175.22" width="55.86" height="32.76" rx="6.93" ry="6.93" transform="translate(1098.85 383.19) rotate(180)"/>
        <rect class="cls-1" x="463.55" y="175.22" width="55.86" height="32.76" rx="6.93" ry="6.93" transform="translate(982.96 383.19) rotate(180)"/>
        <rect class="cls-1" x="405.6" y="175.22" width="55.86" height="32.76" rx="6.93" ry="6.93" transform="translate(867.07 383.19) rotate(180)"/>
        <rect class="cls-1" x="347.66" y="175.22" width="55.86" height="32.76" rx="6.93" ry="6.93" transform="translate(751.19 383.19) rotate(180)"/>
        <rect class="cls-1" x="289.72" y="175.22" width="55.86" height="32.76" rx="6.93" ry="6.93" transform="translate(635.3 383.19) rotate(180)"/>
        <rect class="cls-1" x="231.77" y="175.22" width="55.86" height="32.76" rx="6.93" ry="6.93" transform="translate(519.41 383.19) rotate(180)"/>
        <rect class="cls-1" x="173.83" y="175.22" width="55.86" height="32.76" rx="6.93" ry="6.93" transform="translate(403.52 383.19) rotate(180)"/>
        <rect class="cls-1" x="115.89" y="175.22" width="55.86" height="32.76" rx="6.93" ry="6.93" transform="translate(287.64 383.19) rotate(180)"/>
        <rect class="cls-1" x="57.94" y="175.22" width="55.86" height="32.76" rx="6.93" ry="6.93" transform="translate(171.75 383.19) rotate(180)"/>
        <rect class="cls-1" y="175.22" width="55.86" height="32.76" rx="6.93" ry="6.93" transform="translate(55.86 383.19) rotate(180)"/>
        <rect class="cls-1" x="637.38" y="140.38" width="55.86" height="32.76" rx="6.93" ry="6.93" transform="translate(1330.62 313.52) rotate(180)"/>
        <rect class="cls-1" x="579.43" y="140.38" width="55.86" height="32.76" rx="6.93" ry="6.93" transform="translate(1214.73 313.52) rotate(180)"/>
        <rect class="cls-1" x="521.49" y="140.38" width="55.86" height="32.76" rx="6.93" ry="6.93" transform="translate(1098.85 313.52) rotate(180)"/>
        <rect class="cls-1" x="463.55" y="140.38" width="55.86" height="32.76" rx="6.93" ry="6.93" transform="translate(982.96 313.52) rotate(180)"/>
        <rect class="cls-1" x="405.6" y="140.38" width="55.86" height="32.76" rx="6.93" ry="6.93" transform="translate(867.07 313.52) rotate(180)"/>
        <rect class="cls-1" x="347.66" y="140.38" width="55.86" height="32.76" rx="6.93" ry="6.93" transform="translate(751.19 313.52) rotate(180)"/>
        <rect class="cls-1" x="289.72" y="140.38" width="55.86" height="32.76" rx="6.93" ry="6.93" transform="translate(635.3 313.52) rotate(180)"/>
        <rect class="cls-1" x="231.77" y="140.38" width="55.86" height="32.76" rx="6.93" ry="6.93" transform="translate(519.41 313.52) rotate(180)"/>
        <rect class="cls-1" x="173.83" y="140.38" width="55.86" height="32.76" rx="6.93" ry="6.93" transform="translate(403.52 313.52) rotate(180)"/>
        <rect class="cls-1" x="115.89" y="140.38" width="55.86" height="32.76" rx="6.93" ry="6.93" transform="translate(287.64 313.52) rotate(180)"/>
        <rect class="cls-1" x="57.94" y="140.38" width="55.86" height="32.76" rx="6.93" ry="6.93" transform="translate(171.75 313.52) rotate(180)"/>
        <rect class="cls-1" y="140.38" width="55.86" height="32.76" rx="6.93" ry="6.93" transform="translate(55.86 313.52) rotate(180)"/>
        <rect class="cls-1" x="637.38" y="105.55" width="55.86" height="32.76" rx="6.93" ry="6.93" transform="translate(1330.62 243.85) rotate(180)"/>
        <rect class="cls-1" x="579.43" y="105.55" width="55.86" height="32.76" rx="6.93" ry="6.93" transform="translate(1214.73 243.85) rotate(180)"/>
        <rect class="cls-1" x="521.49" y="105.55" width="55.86" height="32.76" rx="6.93" ry="6.93" transform="translate(1098.85 243.85) rotate(180)"/>
        <rect class="cls-1" x="463.55" y="105.55" width="55.86" height="32.76" rx="6.93" ry="6.93" transform="translate(982.96 243.85) rotate(180)"/>
        <rect class="cls-1" x="405.6" y="105.55" width="55.86" height="32.76" rx="6.93" ry="6.93" transform="translate(867.07 243.85) rotate(180)"/>
        <rect class="cls-1" x="347.66" y="105.55" width="55.86" height="32.76" rx="6.93" ry="6.93" transform="translate(751.19 243.85) rotate(180)"/>
        <rect class="cls-1" x="289.72" y="105.55" width="55.86" height="32.76" rx="6.93" ry="6.93" transform="translate(635.3 243.85) rotate(180)"/>
        <rect class="cls-1" x="231.77" y="105.55" width="55.86" height="32.76" rx="6.93" ry="6.93" transform="translate(519.41 243.85) rotate(180)"/>
        <rect class="cls-1" x="173.83" y="105.55" width="55.86" height="32.76" rx="6.93" ry="6.93" transform="translate(403.52 243.85) rotate(180)"/>
        <rect class="cls-1" x="115.89" y="105.55" width="55.86" height="32.76" rx="6.93" ry="6.93" transform="translate(287.64 243.85) rotate(180)"/>
        <rect class="cls-1" x="57.94" y="105.55" width="55.86" height="32.76" rx="6.93" ry="6.93" transform="translate(171.75 243.85) rotate(180)"/>
        <rect class="cls-1" y="105.55" width="55.86" height="32.76" rx="6.93" ry="6.93" transform="translate(55.86 243.85) rotate(180)"/>
        <rect class="cls-1" x="637.38" y="70.71" width="55.86" height="32.76" rx="6.93" ry="6.93" transform="translate(1330.62 174.18) rotate(180)"/>
        <rect class="cls-1" x="579.43" y="70.71" width="55.86" height="32.76" rx="6.93" ry="6.93" transform="translate(1214.73 174.18) rotate(180)"/>
        <rect class="cls-1" x="521.49" y="70.71" width="55.86" height="32.76" rx="6.93" ry="6.93" transform="translate(1098.85 174.18) rotate(180)"/>
        <rect class="cls-1" x="463.55" y="70.71" width="55.86" height="32.76" rx="6.93" ry="6.93" transform="translate(982.96 174.18) rotate(180)"/>
        <rect class="cls-1" x="405.6" y="70.71" width="55.86" height="32.76" rx="6.93" ry="6.93" transform="translate(867.07 174.18) rotate(180)"/>
        <rect class="cls-1" x="347.66" y="70.71" width="55.86" height="32.76" rx="6.93" ry="6.93" transform="translate(751.19 174.18) rotate(180)"/>
        <rect class="cls-1" x="289.72" y="70.71" width="55.86" height="32.76" rx="6.93" ry="6.93" transform="translate(635.3 174.18) rotate(180)"/>
        <rect class="cls-1" x="231.77" y="70.71" width="55.86" height="32.76" rx="6.93" ry="6.93" transform="translate(519.41 174.18) rotate(180)"/>
        <rect class="cls-1" x="173.83" y="70.71" width="55.86" height="32.76" rx="6.93" ry="6.93" transform="translate(403.52 174.18) rotate(180)"/>
        <rect class="cls-1" x="115.89" y="70.71" width="55.86" height="32.76" rx="6.93" ry="6.93" transform="translate(287.64 174.18) rotate(180)"/>
        <rect class="cls-1" x="57.94" y="70.71" width="55.86" height="32.76" rx="6.93" ry="6.93" transform="translate(171.75 174.18) rotate(180)"/>
        <rect class="cls-1" y="70.71" width="55.86" height="32.76" rx="6.93" ry="6.93" transform="translate(55.86 174.18) rotate(180)"/>
        <rect class="cls-1" x="637.38" y="35.88" width="55.86" height="32.76" rx="6.93" ry="6.93" transform="translate(1330.62 104.51) rotate(180)"/>
        <rect class="cls-1" x="579.43" y="35.88" width="55.86" height="32.76" rx="6.93" ry="6.93" transform="translate(1214.73 104.51) rotate(180)"/>
        <rect class="cls-1" x="521.49" y="35.88" width="55.86" height="32.76" rx="6.93" ry="6.93" transform="translate(1098.85 104.51) rotate(180)"/>
        <rect class="cls-1" x="463.55" y="35.88" width="55.86" height="32.76" rx="6.93" ry="6.93" transform="translate(982.96 104.51) rotate(180)"/>
        <rect class="cls-1" x="405.6" y="35.88" width="55.86" height="32.76" rx="6.93" ry="6.93" transform="translate(867.07 104.51) rotate(180)"/>
        <rect class="cls-1" x="347.66" y="35.88" width="55.86" height="32.76" rx="6.93" ry="6.93" transform="translate(751.19 104.51) rotate(180)"/>
        <rect class="cls-1" x="289.72" y="35.88" width="55.86" height="32.76" rx="6.93" ry="6.93" transform="translate(635.3 104.51) rotate(180)"/>
        <rect class="cls-1" x="231.77" y="35.88" width="55.86" height="32.76" rx="6.93" ry="6.93" transform="translate(519.41 104.51) rotate(180)"/>
        <rect class="cls-1" x="173.83" y="35.88" width="55.86" height="32.76" rx="6.93" ry="6.93" transform="translate(403.52 104.51) rotate(180)"/>
        <rect class="cls-1" x="115.89" y="35.88" width="55.86" height="32.76" rx="6.93" ry="6.93" transform="translate(287.64 104.51) rotate(180)"/>
        <rect class="cls-1" x="57.94" y="35.88" width="55.86" height="32.76" rx="6.93" ry="6.93" transform="translate(171.75 104.51) rotate(180)"/>
        <rect class="cls-1" y="35.88" width="55.86" height="32.76" rx="6.93" ry="6.93" transform="translate(55.86 104.51) rotate(180)"/>
        <rect class="cls-1" x="637.38" y="1.04" width="55.86" height="32.76" rx="6.93" ry="6.93" transform="translate(1330.62 34.84) rotate(180)"/>
        <rect class="cls-1" x="579.43" y="1.04" width="55.86" height="32.76" rx="6.93" ry="6.93" transform="translate(1214.73 34.84) rotate(180)"/>
        <rect class="cls-1" x="521.49" y="1.04" width="55.86" height="32.76" rx="6.93" ry="6.93" transform="translate(1098.85 34.84) rotate(180)"/>
        <rect class="cls-1" x="463.55" y="1.04" width="55.86" height="32.76" rx="6.93" ry="6.93" transform="translate(982.96 34.84) rotate(180)"/>
        <rect class="cls-1" x="405.6" y="1.04" width="55.86" height="32.76" rx="6.93" ry="6.93" transform="translate(867.07 34.84) rotate(180)"/>
        <rect class="cls-1" x="347.66" y="1.04" width="55.86" height="32.76" rx="6.93" ry="6.93" transform="translate(751.19 34.84) rotate(180)"/>
        <rect class="cls-1" x="289.72" y="1.04" width="55.86" height="32.76" rx="6.93" ry="6.93" transform="translate(635.3 34.84) rotate(180)"/>
        <rect class="cls-1" x="231.77" y="1.04" width="55.86" height="32.76" rx="6.93" ry="6.93" transform="translate(519.41 34.84) rotate(180)"/>
        <rect class="cls-1" x="173.83" y="1.04" width="55.86" height="32.76" rx="6.93" ry="6.93" transform="translate(403.52 34.84) rotate(180)"/>
        <rect class="cls-1" x="115.89" y="1.04" width="55.86" height="32.76" rx="6.93" ry="6.93" transform="translate(287.64 34.84) rotate(180)"/>
        <rect class="cls-1" x="57.94" y="1.04" width="55.86" height="32.76" rx="6.93" ry="6.93" transform="translate(171.75 34.84) rotate(180)"/>
        <rect class="cls-1" y="1.04" width="55.86" height="32.76" rx="6.93" ry="6.93" transform="translate(55.86 34.84) rotate(180)"/>
      </g>
      <g>
        <path d="M164.81,1c3.28,0,5.94,2.67,5.94,5.94v193.57c0,3.28-2.67,5.94-5.94,5.94H6.94c-3.28,0-5.94-2.67-5.94-5.94V6.94C1,3.67,3.67,1,6.94,1h157.87M164.81,0H6.94C3.11,0,0,3.11,0,6.94v193.57c0,3.83,3.11,6.94,6.94,6.94h157.87c3.83,0,6.94-3.11,6.94-6.94V6.94c0-3.83-3.11-6.94-6.94-6.94h0Z"/>
        <path d="M338.64,1c3.28,0,5.94,2.67,5.94,5.94v193.57c0,3.28-2.67,5.94-5.94,5.94h-157.87c-3.28,0-5.94-2.67-5.94-5.94V6.94c0-3.28,2.67-5.94,5.94-5.94h157.87M338.64,0h-157.87c-3.83,0-6.94,3.11-6.94,6.94v193.57c0,3.83,3.11,6.94,6.94,6.94h157.87c3.83,0,6.94-3.11,6.94-6.94V6.94c0-3.83-3.11-6.94-6.94-6.94h0Z"/>
        <path d="M512.47,1c3.28,0,5.94,2.67,5.94,5.94v193.57c0,3.28-2.67,5.94-5.94,5.94h-157.87c-3.28,0-5.94-2.67-5.94-5.94V6.94c0-3.28,2.67-5.94,5.94-5.94h157.87M512.47,0h-157.87c-3.83,0-6.94,3.11-6.94,6.94v193.57c0,3.83,3.11,6.94,6.94,6.94h157.87c3.83,0,6.94-3.11,6.94-6.94V6.94c0-3.83-3.11-6.94-6.94-6.94h0Z"/>
        <path d="M686.3,1c3.28,0,5.94,2.67,5.94,5.94v193.57c0,3.28-2.67,5.94-5.94,5.94h-157.87c-3.28,0-5.94-2.67-5.94-5.94V6.94c0-3.28,2.67-5.94,5.94-5.94h157.87M686.3,0h-157.87c-3.83,0-6.94,3.11-6.94,6.94v193.57c0,3.83,3.11,6.94,6.94,6.94h157.87c3.83,0,6.94-3.11,6.94-6.94V6.94c0-3.83-3.11-6.94-6.94-6.94h0Z"/>
        <path d="M164.81,210.53c3.28,0,5.94,2.67,5.94,5.94v193.57c0,3.28-2.67,5.94-5.94,5.94H6.94c-3.28,0-5.94-2.67-5.94-5.94v-193.57c0-3.28,2.67-5.94,5.94-5.94h157.87M164.81,209.53H6.94C3.11,209.53,0,212.64,0,216.48v193.57c0,3.83,3.11,6.94,6.94,6.94h157.87c3.83,0,6.94-3.11,6.94-6.94v-193.57c0-3.83-3.11-6.94-6.94-6.94h0Z"/>
        <path d="M338.64,210.53c3.28,0,5.94,2.67,5.94,5.94v193.57c0,3.28-2.67,5.94-5.94,5.94h-157.87c-3.28,0-5.94-2.67-5.94-5.94v-193.57c0-3.28,2.67-5.94,5.94-5.94h157.87M338.64,209.53h-157.87c-3.83,0-6.94,3.11-6.94,6.94v193.57c0,3.83,3.11,6.94,6.94,6.94h157.87c3.83,0,6.94-3.11,6.94-6.94v-193.57c0-3.83-3.11-6.94-6.94-6.94h0Z"/>
        <path d="M512.47,210.53c3.28,0,5.94,2.67,5.94,5.94v193.57c0,3.28-2.67,5.94-5.94,5.94h-157.87c-3.28,0-5.94-2.67-5.94-5.94v-193.57c0-3.28,2.67-5.94,5.94-5.94h157.87M512.47,209.53h-157.87c-3.83,0-6.94,3.11-6.94,6.94v193.57c0,3.83,3.11,6.94,6.94,6.94h157.87c3.83,0,6.94-3.11,6.94-6.94v-193.57c0-3.83-3.11-6.94-6.94-6.94h0Z"/>
        <path d="M686.3,210.53c3.28,0,5.94,2.67,5.94,5.94v193.57c0,3.28-2.67,5.94-5.94,5.94h-157.87c-3.28,0-5.94-2.67-5.94-5.94v-193.57c0-3.28,2.67-5.94,5.94-5.94h157.87M686.3,209.53h-157.87c-3.83,0-6.94,3.11-6.94,6.94v193.57c0,3.83,3.11,6.94,6.94,6.94h157.87c3.83,0,6.94-3.11,6.94-6.94v-193.57c0-3.83-3.11-6.94-6.94-6.94h0Z"/>
      </g>
    </g>
  </g>
</svg>