<?xml version="1.0" encoding="UTF-8"?>
<svg id="Layer_2" data-name="Layer 2" xmlns="http://www.w3.org/2000/svg" viewBox="0 0 693.24 415.95">
  <defs>
    <style>
      .cls-1 {
        fill: #daff06;
      }
    </style>
  </defs>
  <g id="Layer_1-2" data-name="Layer 1">
    <g>
      <g>
        <rect class="cls-1" width="55.86" height="32.76" rx="6.93" ry="6.93"/>
        <rect class="cls-1" x="57.94" width="55.86" height="32.76" rx="6.93" ry="6.93"/>
        <rect class="cls-1" x="115.89" width="55.86" height="32.76" rx="6.93" ry="6.93"/>
        <rect class="cls-1" x="173.83" width="55.86" height="32.76" rx="6.93" ry="6.93"/>
        <rect class="cls-1" x="231.77" width="55.86" height="32.76" rx="6.93" ry="6.93"/>
        <rect class="cls-1" x="289.72" width="55.86" height="32.76" rx="6.93" ry="6.93"/>
        <rect class="cls-1" x="347.66" width="55.86" height="32.76" rx="6.93" ry="6.93"/>
        <rect class="cls-1" x="405.6" width="55.86" height="32.76" rx="6.93" ry="6.93"/>
        <rect class="cls-1" x="463.55" width="55.86" height="32.76" rx="6.93" ry="6.93"/>
        <rect class="cls-1" x="521.49" width="55.86" height="32.76" rx="6.93" ry="6.93"/>
        <rect class="cls-1" x="579.43" width="55.86" height="32.76" rx="6.93" ry="6.93"/>
        <rect class="cls-1" x="637.38" width="55.86" height="32.76" rx="6.93" ry="6.93"/>
        <rect class="cls-1" y="34.84" width="55.86" height="32.76" rx="6.93" ry="6.93"/>
        <rect class="cls-1" x="57.94" y="34.84" width="55.86" height="32.76" rx="6.93" ry="6.93"/>
        <rect class="cls-1" x="115.89" y="34.84" width="55.86" height="32.76" rx="6.93" ry="6.93"/>
        <rect class="cls-1" x="173.83" y="34.84" width="55.86" height="32.76" rx="6.93" ry="6.93"/>
        <rect class="cls-1" x="231.77" y="34.84" width="55.86" height="32.76" rx="6.93" ry="6.93"/>
        <rect class="cls-1" x="289.72" y="34.84" width="55.86" height="32.76" rx="6.93" ry="6.93"/>
        <rect class="cls-1" x="347.66" y="34.84" width="55.86" height="32.76" rx="6.93" ry="6.93"/>
        <rect class="cls-1" x="405.6" y="34.84" width="55.86" height="32.76" rx="6.93" ry="6.93"/>
        <rect class="cls-1" x="463.55" y="34.84" width="55.86" height="32.76" rx="6.93" ry="6.93"/>
        <rect class="cls-1" x="521.49" y="34.84" width="55.86" height="32.76" rx="6.93" ry="6.93"/>
        <rect class="cls-1" x="579.43" y="34.84" width="55.86" height="32.76" rx="6.93" ry="6.93"/>
        <rect class="cls-1" x="637.38" y="34.84" width="55.86" height="32.76" rx="6.93" ry="6.93"/>
        <rect class="cls-1" y="69.67" width="55.86" height="32.76" rx="6.93" ry="6.93"/>
        <rect class="cls-1" x="57.94" y="69.67" width="55.86" height="32.76" rx="6.93" ry="6.93"/>
        <rect class="cls-1" x="115.89" y="69.67" width="55.86" height="32.76" rx="6.93" ry="6.93"/>
        <rect class="cls-1" x="173.83" y="69.67" width="55.86" height="32.76" rx="6.93" ry="6.93"/>
        <rect class="cls-1" x="231.77" y="69.67" width="55.86" height="32.76" rx="6.93" ry="6.93"/>
        <rect class="cls-1" x="289.72" y="69.67" width="55.86" height="32.76" rx="6.93" ry="6.93"/>
        <rect class="cls-1" x="347.66" y="69.67" width="55.86" height="32.76" rx="6.93" ry="6.93"/>
        <rect class="cls-1" x="405.6" y="69.67" width="55.86" height="32.76" rx="6.93" ry="6.93"/>
        <rect class="cls-1" x="463.55" y="69.67" width="55.86" height="32.76" rx="6.93" ry="6.93"/>
        <rect class="cls-1" x="521.49" y="69.67" width="55.86" height="32.76" rx="6.93" ry="6.93"/>
        <rect class="cls-1" x="579.43" y="69.67" width="55.86" height="32.76" rx="6.93" ry="6.93"/>
        <rect class="cls-1" x="637.38" y="69.67" width="55.86" height="32.76" rx="6.93" ry="6.93"/>
        <rect class="cls-1" y="104.51" width="55.86" height="32.76" rx="6.93" ry="6.93"/>
        <rect class="cls-1" x="57.94" y="104.51" width="55.86" height="32.76" rx="6.93" ry="6.93"/>
        <rect class="cls-1" x="115.89" y="104.51" width="55.86" height="32.76" rx="6.93" ry="6.93"/>
        <rect class="cls-1" x="173.83" y="104.51" width="55.86" height="32.76" rx="6.93" ry="6.93"/>
        <rect class="cls-1" x="231.77" y="104.51" width="55.86" height="32.76" rx="6.93" ry="6.93"/>
        <rect class="cls-1" x="289.72" y="104.51" width="55.86" height="32.76" rx="6.93" ry="6.93"/>
        <rect class="cls-1" x="347.66" y="104.51" width="55.86" height="32.76" rx="6.93" ry="6.93"/>
        <rect class="cls-1" x="405.6" y="104.51" width="55.86" height="32.76" rx="6.93" ry="6.93"/>
        <rect class="cls-1" x="463.55" y="104.51" width="55.86" height="32.76" rx="6.93" ry="6.93"/>
        <rect class="cls-1" x="521.49" y="104.51" width="55.86" height="32.76" rx="6.93" ry="6.93"/>
        <rect class="cls-1" x="579.43" y="104.51" width="55.86" height="32.76" rx="6.93" ry="6.93"/>
        <rect class="cls-1" x="637.38" y="104.51" width="55.86" height="32.76" rx="6.93" ry="6.93"/>
        <rect class="cls-1" y="139.34" width="55.86" height="32.76" rx="6.93" ry="6.93"/>
        <rect class="cls-1" x="57.94" y="139.34" width="55.86" height="32.76" rx="6.93" ry="6.93"/>
        <rect class="cls-1" x="115.89" y="139.34" width="55.86" height="32.76" rx="6.93" ry="6.93"/>
        <rect class="cls-1" x="173.83" y="139.34" width="55.86" height="32.76" rx="6.93" ry="6.93"/>
        <rect class="cls-1" x="231.77" y="139.34" width="55.86" height="32.76" rx="6.93" ry="6.93"/>
        <rect class="cls-1" x="289.72" y="139.34" width="55.86" height="32.76" rx="6.93" ry="6.93"/>
        <rect class="cls-1" x="347.66" y="139.34" width="55.86" height="32.76" rx="6.93" ry="6.93"/>
        <rect class="cls-1" x="405.6" y="139.34" width="55.86" height="32.76" rx="6.93" ry="6.93"/>
        <rect class="cls-1" x="463.55" y="139.34" width="55.86" height="32.76" rx="6.93" ry="6.93"/>
        <rect class="cls-1" x="521.49" y="139.34" width="55.86" height="32.76" rx="6.93" ry="6.93"/>
        <rect class="cls-1" x="579.43" y="139.34" width="55.86" height="32.76" rx="6.93" ry="6.93"/>
        <rect class="cls-1" x="637.38" y="139.34" width="55.86" height="32.76" rx="6.93" ry="6.93"/>
        <rect class="cls-1" y="174.18" width="55.86" height="32.76" rx="6.93" ry="6.93"/>
        <rect class="cls-1" x="57.94" y="174.18" width="55.86" height="32.76" rx="6.93" ry="6.93"/>
        <rect class="cls-1" x="115.89" y="174.18" width="55.86" height="32.76" rx="6.93" ry="6.93"/>
        <rect class="cls-1" x="173.83" y="174.18" width="55.86" height="32.76" rx="6.93" ry="6.93"/>
        <rect class="cls-1" x="231.77" y="174.18" width="55.86" height="32.76" rx="6.93" ry="6.93"/>
        <rect class="cls-1" x="289.72" y="174.18" width="55.86" height="32.76" rx="6.93" ry="6.93"/>
        <rect class="cls-1" x="347.66" y="174.18" width="55.86" height="32.76" rx="6.93" ry="6.93"/>
        <rect class="cls-1" x="405.6" y="174.18" width="55.86" height="32.76" rx="6.93" ry="6.93"/>
        <rect class="cls-1" x="463.55" y="174.18" width="55.86" height="32.76" rx="6.93" ry="6.93"/>
        <rect class="cls-1" x="521.49" y="174.18" width="55.86" height="32.76" rx="6.93" ry="6.93"/>
        <rect class="cls-1" x="579.43" y="174.18" width="55.86" height="32.76" rx="6.93" ry="6.93"/>
        <rect class="cls-1" x="637.38" y="174.18" width="55.86" height="32.76" rx="6.93" ry="6.93"/>
        <rect class="cls-1" y="209.01" width="55.86" height="32.76" rx="6.93" ry="6.93"/>
        <rect class="cls-1" x="57.94" y="209.01" width="55.86" height="32.76" rx="6.93" ry="6.93"/>
        <rect class="cls-1" x="115.89" y="209.01" width="55.86" height="32.76" rx="6.93" ry="6.93"/>
        <rect class="cls-1" x="173.83" y="209.01" width="55.86" height="32.76" rx="6.93" ry="6.93"/>
        <rect class="cls-1" x="231.77" y="209.01" width="55.86" height="32.76" rx="6.93" ry="6.93"/>
        <rect class="cls-1" x="289.72" y="209.01" width="55.86" height="32.76" rx="6.93" ry="6.93"/>
        <rect class="cls-1" x="347.66" y="209.01" width="55.86" height="32.76" rx="6.93" ry="6.93"/>
        <rect class="cls-1" x="405.6" y="209.01" width="55.86" height="32.76" rx="6.93" ry="6.93"/>
        <rect class="cls-1" x="463.55" y="209.01" width="55.86" height="32.76" rx="6.93" ry="6.93"/>
        <rect class="cls-1" x="521.49" y="209.01" width="55.86" height="32.76" rx="6.93" ry="6.93"/>
        <rect class="cls-1" x="579.43" y="209.01" width="55.86" height="32.76" rx="6.93" ry="6.93"/>
        <rect class="cls-1" x="637.38" y="209.01" width="55.86" height="32.76" rx="6.93" ry="6.93"/>
        <rect class="cls-1" y="243.85" width="55.86" height="32.76" rx="6.93" ry="6.93"/>
        <rect class="cls-1" x="57.94" y="243.85" width="55.86" height="32.76" rx="6.93" ry="6.93"/>
        <rect class="cls-1" x="115.89" y="243.85" width="55.86" height="32.76" rx="6.93" ry="6.93"/>
        <rect class="cls-1" x="173.83" y="243.85" width="55.86" height="32.76" rx="6.93" ry="6.93"/>
        <rect class="cls-1" x="231.77" y="243.85" width="55.86" height="32.76" rx="6.93" ry="6.93"/>
        <rect class="cls-1" x="289.72" y="243.85" width="55.86" height="32.76" rx="6.93" ry="6.93"/>
        <rect class="cls-1" x="347.66" y="243.85" width="55.86" height="32.76" rx="6.93" ry="6.93"/>
        <rect class="cls-1" x="405.6" y="243.85" width="55.86" height="32.76" rx="6.93" ry="6.93"/>
        <rect class="cls-1" x="463.55" y="243.85" width="55.86" height="32.76" rx="6.93" ry="6.93"/>
        <rect class="cls-1" x="521.49" y="243.85" width="55.86" height="32.76" rx="6.93" ry="6.93"/>
        <rect class="cls-1" x="579.43" y="243.85" width="55.86" height="32.76" rx="6.93" ry="6.93"/>
        <rect class="cls-1" x="637.38" y="243.85" width="55.86" height="32.76" rx="6.93" ry="6.93"/>
        <rect class="cls-1" y="278.68" width="55.86" height="32.76" rx="6.93" ry="6.93"/>
        <rect class="cls-1" x="57.94" y="278.68" width="55.86" height="32.76" rx="6.93" ry="6.93"/>
        <rect class="cls-1" x="115.89" y="278.68" width="55.86" height="32.76" rx="6.93" ry="6.93"/>
        <rect class="cls-1" x="173.83" y="278.68" width="55.86" height="32.76" rx="6.93" ry="6.93"/>
        <rect class="cls-1" x="231.77" y="278.68" width="55.86" height="32.76" rx="6.93" ry="6.93"/>
        <rect class="cls-1" x="289.72" y="278.68" width="55.86" height="32.76" rx="6.93" ry="6.93"/>
        <rect class="cls-1" x="347.66" y="278.68" width="55.86" height="32.76" rx="6.93" ry="6.93"/>
        <rect class="cls-1" x="405.6" y="278.68" width="55.86" height="32.76" rx="6.93" ry="6.93"/>
        <rect class="cls-1" x="463.55" y="278.68" width="55.86" height="32.76" rx="6.93" ry="6.93"/>
        <rect class="cls-1" x="521.49" y="278.68" width="55.86" height="32.76" rx="6.93" ry="6.93"/>
        <rect class="cls-1" x="579.43" y="278.68" width="55.86" height="32.76" rx="6.93" ry="6.93"/>
        <rect class="cls-1" x="637.38" y="278.68" width="55.86" height="32.76" rx="6.93" ry="6.93"/>
        <rect class="cls-1" y="313.52" width="55.86" height="32.76" rx="6.93" ry="6.93"/>
        <rect class="cls-1" x="57.94" y="313.52" width="55.86" height="32.76" rx="6.93" ry="6.93"/>
        <rect class="cls-1" x="115.89" y="313.52" width="55.86" height="32.76" rx="6.93" ry="6.93"/>
        <rect class="cls-1" x="173.83" y="313.52" width="55.86" height="32.76" rx="6.93" ry="6.93"/>
        <rect class="cls-1" x="231.77" y="313.52" width="55.86" height="32.76" rx="6.93" ry="6.93"/>
        <rect class="cls-1" x="289.72" y="313.52" width="55.86" height="32.76" rx="6.93" ry="6.93"/>
        <rect class="cls-1" x="347.66" y="313.52" width="55.86" height="32.76" rx="6.93" ry="6.93"/>
        <rect class="cls-1" x="405.6" y="313.52" width="55.86" height="32.76" rx="6.93" ry="6.93"/>
        <rect class="cls-1" x="463.55" y="313.52" width="55.86" height="32.76" rx="6.93" ry="6.93"/>
        <rect class="cls-1" x="521.49" y="313.52" width="55.86" height="32.76" rx="6.93" ry="6.93"/>
        <rect class="cls-1" x="579.43" y="313.52" width="55.86" height="32.76" rx="6.93" ry="6.93"/>
        <rect class="cls-1" x="637.38" y="313.52" width="55.86" height="32.76" rx="6.93" ry="6.93"/>
        <rect class="cls-1" y="348.35" width="55.86" height="32.76" rx="6.93" ry="6.93"/>
        <rect class="cls-1" x="57.94" y="348.35" width="55.86" height="32.76" rx="6.93" ry="6.93"/>
        <rect class="cls-1" x="115.89" y="348.35" width="55.86" height="32.76" rx="6.93" ry="6.93"/>
        <rect class="cls-1" x="173.83" y="348.35" width="55.86" height="32.76" rx="6.93" ry="6.93"/>
        <rect class="cls-1" x="231.77" y="348.35" width="55.86" height="32.76" rx="6.93" ry="6.93"/>
        <rect class="cls-1" x="289.72" y="348.35" width="55.86" height="32.76" rx="6.93" ry="6.93"/>
        <rect class="cls-1" x="347.66" y="348.35" width="55.86" height="32.76" rx="6.93" ry="6.93"/>
        <rect class="cls-1" x="405.6" y="348.35" width="55.86" height="32.76" rx="6.93" ry="6.93"/>
        <rect class="cls-1" x="463.55" y="348.35" width="55.86" height="32.76" rx="6.93" ry="6.93"/>
        <rect class="cls-1" x="521.49" y="348.35" width="55.86" height="32.76" rx="6.93" ry="6.93"/>
        <rect class="cls-1" x="579.43" y="348.35" width="55.86" height="32.76" rx="6.93" ry="6.93"/>
        <rect class="cls-1" x="637.38" y="348.35" width="55.86" height="32.76" rx="6.93" ry="6.93"/>
        <rect class="cls-1" y="383.19" width="55.86" height="32.76" rx="6.93" ry="6.93"/>
        <rect class="cls-1" x="57.94" y="383.19" width="55.86" height="32.76" rx="6.93" ry="6.93"/>
        <rect class="cls-1" x="115.89" y="383.19" width="55.86" height="32.76" rx="6.93" ry="6.93"/>
        <rect class="cls-1" x="173.83" y="383.19" width="55.86" height="32.76" rx="6.93" ry="6.93"/>
        <rect class="cls-1" x="231.77" y="383.19" width="55.86" height="32.76" rx="6.93" ry="6.93"/>
        <rect class="cls-1" x="289.72" y="383.19" width="55.86" height="32.76" rx="6.93" ry="6.93"/>
        <rect class="cls-1" x="347.66" y="383.19" width="55.86" height="32.76" rx="6.93" ry="6.93"/>
        <rect class="cls-1" x="405.6" y="383.19" width="55.86" height="32.76" rx="6.93" ry="6.93"/>
        <rect class="cls-1" x="463.55" y="383.19" width="55.86" height="32.76" rx="6.93" ry="6.93"/>
        <rect class="cls-1" x="521.49" y="383.19" width="55.86" height="32.76" rx="6.93" ry="6.93"/>
        <rect class="cls-1" x="579.43" y="383.19" width="55.86" height="32.76" rx="6.93" ry="6.93"/>
        <rect class="cls-1" x="637.38" y="383.19" width="55.86" height="32.76" rx="6.93" ry="6.93"/>
      </g>
      <g>
        <path d="M686.31,1c3.27,0,5.93,2.66,5.93,5.93v123.4c0,3.27-2.66,5.93-5.93,5.93h-215.83c-3.27,0-5.93-2.66-5.93-5.93V6.93c0-3.27,2.66-5.93,5.93-5.93h215.83M686.31,0h-215.83C466.65,0,463.55,3.1,463.55,6.93v123.4c0,3.83,3.1,6.93,6.93,6.93h215.83c3.83,0,6.93-3.1,6.93-6.93V6.93C693.24,3.1,690.14,0,686.31,0h0Z"/>
        <path d="M454.54,1c3.27,0,5.93,2.66,5.93,5.93v123.4c0,3.27-2.66,5.93-5.93,5.93h-157.89c-3.27,0-5.93-2.66-5.93-5.93V6.93c0-3.27,2.66-5.93,5.93-5.93h157.89M454.54,0h-157.89C292.82,0,289.72,3.1,289.72,6.93v123.4c0,3.83,3.1,6.93,6.93,6.93h157.89c3.83,0,6.93-3.1,6.93-6.93V6.93C461.47,3.1,458.36,0,454.54,0h0Z"/>
        <path d="M454.54,140.34c3.27,0,5.93,2.66,5.93,5.93v123.4c0,3.27-2.66,5.93-5.93,5.93h-157.89c-3.27,0-5.93-2.66-5.93-5.93v-123.4c0-3.27,2.66-5.93,5.93-5.93h157.89M454.54,139.34h-157.89c-3.83,0-6.93,3.1-6.93,6.93v123.4c0,3.83,3.1,6.93,6.93,6.93h157.89c3.83,0,6.93-3.1,6.93-6.93v-123.4c0-3.83-3.1-6.93-6.93-6.93h0Z"/>
        <path d="M686.31,140.34c3.27,0,5.93,2.66,5.93,5.93v123.4c0,3.27-2.66,5.93-5.93,5.93h-215.83c-3.27,0-5.93-2.66-5.93-5.93v-123.4c0-3.27,2.66-5.93,5.93-5.93h215.83M686.31,139.34h-215.83c-3.83,0-6.93,3.1-6.93,6.93v123.4c0,3.83,3.1,6.93,6.93,6.93h215.83c3.83,0,6.93-3.1,6.93-6.93v-123.4c0-3.83-3.1-6.93-6.93-6.93h0Z"/>
        <path d="M454.54,279.68c3.27,0,5.93,2.66,5.93,5.93v123.4c0,3.27-2.66,5.93-5.93,5.93h-157.89c-3.27,0-5.93-2.66-5.93-5.93v-123.4c0-3.27,2.66-5.93,5.93-5.93h157.89M454.54,278.68h-157.89c-3.83,0-6.93,3.1-6.93,6.93v123.4c0,3.83,3.1,6.93,6.93,6.93h157.89c3.83,0,6.93-3.1,6.93-6.93v-123.4c0-3.83-3.1-6.93-6.93-6.93h0Z"/>
        <path d="M686.31,279.68c3.27,0,5.93,2.66,5.93,5.93v123.4c0,3.27-2.66,5.93-5.93,5.93h-215.83c-3.27,0-5.93-2.66-5.93-5.93v-123.4c0-3.27,2.66-5.93,5.93-5.93h215.83M686.31,278.68h-215.83c-3.83,0-6.93,3.1-6.93,6.93v123.4c0,3.83,3.1,6.93,6.93,6.93h215.83c3.83,0,6.93-3.1,6.93-6.93v-123.4c0-3.83-3.1-6.93-6.93-6.93h0Z"/>
      </g>
    </g>
  </g>
</svg>