<?xml version="1.0" encoding="UTF-8"?>
<svg id="Layer_2" data-name="Layer 2" xmlns="http://www.w3.org/2000/svg" viewBox="0 0 693.91 416.19">
  <defs>
    <style>
      .cls-1 {
        fill: #daff06;
      }
    </style>
  </defs>
  <g id="Layer_1-2" data-name="Layer 1">
    <g>
      <rect class="cls-1" x=".67" y=".25" width="55.86" height="32.76" rx="6.93" ry="6.93"/>
      <rect class="cls-1" x="58.62" y=".25" width="55.86" height="32.76" rx="6.93" ry="6.93"/>
      <rect class="cls-1" x="116.56" y=".25" width="55.86" height="32.76" rx="6.93" ry="6.93"/>
      <rect class="cls-1" x="174.5" y=".25" width="55.86" height="32.76" rx="6.93" ry="6.93"/>
      <rect class="cls-1" x="232.45" y=".25" width="55.86" height="32.76" rx="6.93" ry="6.93"/>
      <rect class="cls-1" x="290.39" y=".25" width="55.86" height="32.76" rx="6.93" ry="6.93"/>
      <rect class="cls-1" x="348.33" y=".25" width="55.86" height="32.76" rx="6.93" ry="6.93"/>
      <rect class="cls-1" x="406.28" y=".25" width="55.86" height="32.76" rx="6.93" ry="6.93"/>
      <rect class="cls-1" x="464.22" y=".25" width="55.86" height="32.76" rx="6.93" ry="6.93"/>
      <rect class="cls-1" x="522.16" y=".25" width="55.86" height="32.76" rx="6.93" ry="6.93"/>
      <rect class="cls-1" x="580.11" y=".25" width="55.86" height="32.76" rx="6.93" ry="6.93"/>
      <rect class="cls-1" x="638.05" y=".25" width="55.86" height="32.76" rx="6.93" ry="6.93"/>
      <rect class="cls-1" x=".67" y="35.09" width="55.86" height="32.76" rx="6.93" ry="6.93"/>
      <rect class="cls-1" x="58.62" y="35.09" width="55.86" height="32.76" rx="6.93" ry="6.93"/>
      <rect class="cls-1" x="116.56" y="35.09" width="55.86" height="32.76" rx="6.93" ry="6.93"/>
      <rect class="cls-1" x="174.5" y="35.09" width="55.86" height="32.76" rx="6.93" ry="6.93"/>
      <rect class="cls-1" x="232.45" y="35.09" width="55.86" height="32.76" rx="6.93" ry="6.93"/>
      <rect class="cls-1" x="290.39" y="35.09" width="55.86" height="32.76" rx="6.93" ry="6.93"/>
      <rect class="cls-1" x="348.33" y="35.09" width="55.86" height="32.76" rx="6.93" ry="6.93"/>
      <rect class="cls-1" x="406.28" y="35.09" width="55.86" height="32.76" rx="6.93" ry="6.93"/>
      <rect class="cls-1" x="464.22" y="35.09" width="55.86" height="32.76" rx="6.93" ry="6.93"/>
      <rect class="cls-1" x="522.16" y="35.09" width="55.86" height="32.76" rx="6.93" ry="6.93"/>
      <rect class="cls-1" x="580.11" y="35.09" width="55.86" height="32.76" rx="6.93" ry="6.93"/>
      <rect class="cls-1" x="638.05" y="35.09" width="55.86" height="32.76" rx="6.93" ry="6.93"/>
      <rect class="cls-1" x=".67" y="69.92" width="55.86" height="32.76" rx="6.93" ry="6.93"/>
      <rect class="cls-1" x="58.62" y="69.92" width="55.86" height="32.76" rx="6.93" ry="6.93"/>
      <rect class="cls-1" x="116.56" y="69.92" width="55.86" height="32.76" rx="6.93" ry="6.93"/>
      <rect class="cls-1" x="174.5" y="69.92" width="55.86" height="32.76" rx="6.93" ry="6.93"/>
      <rect class="cls-1" x="232.45" y="69.92" width="55.86" height="32.76" rx="6.93" ry="6.93"/>
      <rect class="cls-1" x="290.39" y="69.92" width="55.86" height="32.76" rx="6.93" ry="6.93"/>
      <rect class="cls-1" x="348.33" y="69.92" width="55.86" height="32.76" rx="6.93" ry="6.93"/>
      <rect class="cls-1" x="406.28" y="69.92" width="55.86" height="32.76" rx="6.93" ry="6.93"/>
      <rect class="cls-1" x="464.22" y="69.92" width="55.86" height="32.76" rx="6.93" ry="6.93"/>
      <rect class="cls-1" x="522.16" y="69.92" width="55.86" height="32.76" rx="6.93" ry="6.93"/>
      <rect class="cls-1" x="580.11" y="69.92" width="55.86" height="32.76" rx="6.93" ry="6.93"/>
      <rect class="cls-1" x="638.05" y="69.92" width="55.86" height="32.76" rx="6.93" ry="6.93"/>
      <rect class="cls-1" x=".67" y="104.76" width="55.86" height="32.76" rx="6.93" ry="6.93"/>
      <rect class="cls-1" x="58.62" y="104.76" width="55.86" height="32.76" rx="6.93" ry="6.93"/>
      <rect class="cls-1" x="116.56" y="104.76" width="55.86" height="32.76" rx="6.93" ry="6.93"/>
      <rect class="cls-1" x="174.5" y="104.76" width="55.86" height="32.76" rx="6.93" ry="6.93"/>
      <rect class="cls-1" x="232.45" y="104.76" width="55.86" height="32.76" rx="6.93" ry="6.93"/>
      <rect class="cls-1" x="290.39" y="104.76" width="55.86" height="32.76" rx="6.93" ry="6.93"/>
      <rect class="cls-1" x="348.33" y="104.76" width="55.86" height="32.76" rx="6.93" ry="6.93"/>
      <rect class="cls-1" x="406.28" y="104.76" width="55.86" height="32.76" rx="6.93" ry="6.93"/>
      <rect class="cls-1" x="464.22" y="104.76" width="55.86" height="32.76" rx="6.93" ry="6.93"/>
      <rect class="cls-1" x="522.16" y="104.76" width="55.86" height="32.76" rx="6.93" ry="6.93"/>
      <rect class="cls-1" x="580.11" y="104.76" width="55.86" height="32.76" rx="6.93" ry="6.93"/>
      <rect class="cls-1" x="638.05" y="104.76" width="55.86" height="32.76" rx="6.93" ry="6.93"/>
      <rect class="cls-1" x=".67" y="139.59" width="55.86" height="32.76" rx="6.93" ry="6.93"/>
      <rect class="cls-1" x="58.62" y="139.59" width="55.86" height="32.76" rx="6.93" ry="6.93"/>
      <rect class="cls-1" x="116.56" y="139.59" width="55.86" height="32.76" rx="6.93" ry="6.93"/>
      <rect class="cls-1" x="174.5" y="139.59" width="55.86" height="32.76" rx="6.93" ry="6.93"/>
      <rect class="cls-1" x="232.45" y="139.59" width="55.86" height="32.76" rx="6.93" ry="6.93"/>
      <rect class="cls-1" x="290.39" y="139.59" width="55.86" height="32.76" rx="6.93" ry="6.93"/>
      <rect class="cls-1" x="348.33" y="139.59" width="55.86" height="32.76" rx="6.93" ry="6.93"/>
      <rect class="cls-1" x="406.28" y="139.59" width="55.86" height="32.76" rx="6.93" ry="6.93"/>
      <rect class="cls-1" x="464.22" y="139.59" width="55.86" height="32.76" rx="6.93" ry="6.93"/>
      <rect class="cls-1" x="522.16" y="139.59" width="55.86" height="32.76" rx="6.93" ry="6.93"/>
      <rect class="cls-1" x="580.11" y="139.59" width="55.86" height="32.76" rx="6.93" ry="6.93"/>
      <rect class="cls-1" x="638.05" y="139.59" width="55.86" height="32.76" rx="6.93" ry="6.93"/>
      <rect class="cls-1" x=".67" y="174.43" width="55.86" height="32.76" rx="6.93" ry="6.93"/>
      <rect class="cls-1" x="58.62" y="174.43" width="55.86" height="32.76" rx="6.93" ry="6.93"/>
      <rect class="cls-1" x="116.56" y="174.43" width="55.86" height="32.76" rx="6.93" ry="6.93"/>
      <rect class="cls-1" x="174.5" y="174.43" width="55.86" height="32.76" rx="6.93" ry="6.93"/>
      <rect class="cls-1" x="232.45" y="174.43" width="55.86" height="32.76" rx="6.93" ry="6.93"/>
      <rect class="cls-1" x="290.39" y="174.43" width="55.86" height="32.76" rx="6.93" ry="6.93"/>
      <rect class="cls-1" x="348.33" y="174.43" width="55.86" height="32.76" rx="6.93" ry="6.93"/>
      <rect class="cls-1" x="406.28" y="174.43" width="55.86" height="32.76" rx="6.93" ry="6.93"/>
      <rect class="cls-1" x="464.22" y="174.43" width="55.86" height="32.76" rx="6.93" ry="6.93"/>
      <rect class="cls-1" x="522.16" y="174.43" width="55.86" height="32.76" rx="6.93" ry="6.93"/>
      <rect class="cls-1" x="580.11" y="174.43" width="55.86" height="32.76" rx="6.93" ry="6.93"/>
      <rect class="cls-1" x="638.05" y="174.43" width="55.86" height="32.76" rx="6.93" ry="6.93"/>
      <rect class="cls-1" x=".67" y="209.26" width="55.86" height="32.76" rx="6.93" ry="6.93"/>
      <rect class="cls-1" x="58.62" y="209.26" width="55.86" height="32.76" rx="6.93" ry="6.93"/>
      <rect class="cls-1" x="116.56" y="209.26" width="55.86" height="32.76" rx="6.93" ry="6.93"/>
      <rect class="cls-1" x="174.5" y="209.26" width="55.86" height="32.76" rx="6.93" ry="6.93"/>
      <rect class="cls-1" x="232.45" y="209.26" width="55.86" height="32.76" rx="6.93" ry="6.93"/>
      <rect class="cls-1" x="290.39" y="209.26" width="55.86" height="32.76" rx="6.93" ry="6.93"/>
      <rect class="cls-1" x="348.33" y="209.26" width="55.86" height="32.76" rx="6.93" ry="6.93"/>
      <rect class="cls-1" x="406.28" y="209.26" width="55.86" height="32.76" rx="6.93" ry="6.93"/>
      <rect class="cls-1" x="464.22" y="209.26" width="55.86" height="32.76" rx="6.93" ry="6.93"/>
      <rect class="cls-1" x="522.16" y="209.26" width="55.86" height="32.76" rx="6.93" ry="6.93"/>
      <rect class="cls-1" x="580.11" y="209.26" width="55.86" height="32.76" rx="6.93" ry="6.93"/>
      <rect class="cls-1" x="638.05" y="209.26" width="55.86" height="32.76" rx="6.93" ry="6.93"/>
      <rect class="cls-1" x=".67" y="244.1" width="55.86" height="32.76" rx="6.93" ry="6.93"/>
      <rect class="cls-1" x="58.62" y="244.1" width="55.86" height="32.76" rx="6.93" ry="6.93"/>
      <rect class="cls-1" x="116.56" y="244.1" width="55.86" height="32.76" rx="6.93" ry="6.93"/>
      <rect class="cls-1" x="174.5" y="244.1" width="55.86" height="32.76" rx="6.93" ry="6.93"/>
      <rect class="cls-1" x="232.45" y="244.1" width="55.86" height="32.76" rx="6.93" ry="6.93"/>
      <rect class="cls-1" x="290.39" y="244.1" width="55.86" height="32.76" rx="6.93" ry="6.93"/>
      <rect class="cls-1" x="348.33" y="244.1" width="55.86" height="32.76" rx="6.93" ry="6.93"/>
      <rect class="cls-1" x="406.28" y="244.1" width="55.86" height="32.76" rx="6.93" ry="6.93"/>
      <rect class="cls-1" x="464.22" y="244.1" width="55.86" height="32.76" rx="6.93" ry="6.93"/>
      <rect class="cls-1" x="522.16" y="244.1" width="55.86" height="32.76" rx="6.93" ry="6.93"/>
      <rect class="cls-1" x="580.11" y="244.1" width="55.86" height="32.76" rx="6.93" ry="6.93"/>
      <rect class="cls-1" x="638.05" y="244.1" width="55.86" height="32.76" rx="6.93" ry="6.93"/>
      <rect class="cls-1" x=".67" y="278.93" width="55.86" height="32.76" rx="6.93" ry="6.93"/>
      <rect class="cls-1" x="58.62" y="278.93" width="55.86" height="32.76" rx="6.93" ry="6.93"/>
      <rect class="cls-1" x="116.56" y="278.93" width="55.86" height="32.76" rx="6.93" ry="6.93"/>
      <rect class="cls-1" x="174.5" y="278.93" width="55.86" height="32.76" rx="6.93" ry="6.93"/>
      <rect class="cls-1" x="232.45" y="278.93" width="55.86" height="32.76" rx="6.93" ry="6.93"/>
      <rect class="cls-1" x="290.39" y="278.93" width="55.86" height="32.76" rx="6.93" ry="6.93"/>
      <rect class="cls-1" x="348.33" y="278.93" width="55.86" height="32.76" rx="6.93" ry="6.93"/>
      <rect class="cls-1" x="406.28" y="278.93" width="55.86" height="32.76" rx="6.93" ry="6.93"/>
      <rect class="cls-1" x="464.22" y="278.93" width="55.86" height="32.76" rx="6.93" ry="6.93"/>
      <rect class="cls-1" x="522.16" y="278.93" width="55.86" height="32.76" rx="6.93" ry="6.93"/>
      <rect class="cls-1" x="580.11" y="278.93" width="55.86" height="32.76" rx="6.93" ry="6.93"/>
      <rect class="cls-1" x="638.05" y="278.93" width="55.86" height="32.76" rx="6.93" ry="6.93"/>
      <rect class="cls-1" x=".67" y="313.77" width="55.86" height="32.76" rx="6.93" ry="6.93"/>
      <rect class="cls-1" x="58.62" y="313.77" width="55.86" height="32.76" rx="6.93" ry="6.93"/>
      <rect class="cls-1" x="116.56" y="313.77" width="55.86" height="32.76" rx="6.93" ry="6.93"/>
      <rect class="cls-1" x="174.5" y="313.77" width="55.86" height="32.76" rx="6.93" ry="6.93"/>
      <rect class="cls-1" x="232.45" y="313.77" width="55.86" height="32.76" rx="6.93" ry="6.93"/>
      <rect class="cls-1" x="290.39" y="313.77" width="55.86" height="32.76" rx="6.93" ry="6.93"/>
      <rect class="cls-1" x="348.33" y="313.77" width="55.86" height="32.76" rx="6.93" ry="6.93"/>
      <rect class="cls-1" x="406.28" y="313.77" width="55.86" height="32.76" rx="6.93" ry="6.93"/>
      <rect class="cls-1" x="464.22" y="313.77" width="55.86" height="32.76" rx="6.93" ry="6.93"/>
      <rect class="cls-1" x="522.16" y="313.77" width="55.86" height="32.76" rx="6.93" ry="6.93"/>
      <rect class="cls-1" x="580.11" y="313.77" width="55.86" height="32.76" rx="6.93" ry="6.93"/>
      <rect class="cls-1" x="638.05" y="313.77" width="55.86" height="32.76" rx="6.93" ry="6.93"/>
      <rect class="cls-1" x=".67" y="348.6" width="55.86" height="32.76" rx="6.93" ry="6.93"/>
      <rect class="cls-1" x="58.62" y="348.6" width="55.86" height="32.76" rx="6.93" ry="6.93"/>
      <rect class="cls-1" x="116.56" y="348.6" width="55.86" height="32.76" rx="6.93" ry="6.93"/>
      <rect class="cls-1" x="174.5" y="348.6" width="55.86" height="32.76" rx="6.93" ry="6.93"/>
      <rect class="cls-1" x="232.45" y="348.6" width="55.86" height="32.76" rx="6.93" ry="6.93"/>
      <rect class="cls-1" x="290.39" y="348.6" width="55.86" height="32.76" rx="6.93" ry="6.93"/>
      <rect class="cls-1" x="348.33" y="348.6" width="55.86" height="32.76" rx="6.93" ry="6.93"/>
      <rect class="cls-1" x="406.28" y="348.6" width="55.86" height="32.76" rx="6.93" ry="6.93"/>
      <rect class="cls-1" x="464.22" y="348.6" width="55.86" height="32.76" rx="6.93" ry="6.93"/>
      <rect class="cls-1" x="522.16" y="348.6" width="55.86" height="32.76" rx="6.93" ry="6.93"/>
      <rect class="cls-1" x="580.11" y="348.6" width="55.86" height="32.76" rx="6.93" ry="6.93"/>
      <rect class="cls-1" x="638.05" y="348.6" width="55.86" height="32.76" rx="6.93" ry="6.93"/>
      <rect class="cls-1" x=".67" y="383.44" width="55.86" height="32.76" rx="6.93" ry="6.93"/>
      <rect class="cls-1" x="58.62" y="383.44" width="55.86" height="32.76" rx="6.93" ry="6.93"/>
      <rect class="cls-1" x="116.56" y="383.44" width="55.86" height="32.76" rx="6.93" ry="6.93"/>
      <rect class="cls-1" x="174.5" y="383.44" width="55.86" height="32.76" rx="6.93" ry="6.93"/>
      <rect class="cls-1" x="232.45" y="383.44" width="55.86" height="32.76" rx="6.93" ry="6.93"/>
      <rect class="cls-1" x="290.39" y="383.44" width="55.86" height="32.76" rx="6.93" ry="6.93"/>
      <rect class="cls-1" x="348.33" y="383.44" width="55.86" height="32.76" rx="6.93" ry="6.93"/>
      <rect class="cls-1" x="406.28" y="383.44" width="55.86" height="32.76" rx="6.93" ry="6.93"/>
      <rect class="cls-1" x="464.22" y="383.44" width="55.86" height="32.76" rx="6.93" ry="6.93"/>
      <rect class="cls-1" x="522.16" y="383.44" width="55.86" height="32.76" rx="6.93" ry="6.93"/>
      <rect class="cls-1" x="580.11" y="383.44" width="55.86" height="32.76" rx="6.93" ry="6.93"/>
      <rect class="cls-1" x="638.05" y="383.44" width="55.86" height="32.76" rx="6.93" ry="6.93"/>
      <g>
        <path d="M396.8,1c3.35,0,6.08,2.73,6.08,6.08v402.03c0,3.35-2.73,6.08-6.08,6.08H7.08c-3.35,0-6.08-2.73-6.08-6.08V7.08C1,3.73,3.73,1,7.08,1h389.72M396.8,0H7.08C3.17,0,0,3.17,0,7.08v402.03c0,3.91,3.17,7.08,7.08,7.08h389.72c3.91,0,7.08-3.17,7.08-7.08V7.08c0-3.91-3.17-7.08-7.08-7.08h0Z"/>
        <path d="M686.83,1c3.35,0,6.08,2.73,6.08,6.08v88.33c0,3.35-2.73,6.08-6.08,6.08h-273.7c-3.35,0-6.08-2.73-6.08-6.08V7.08c0-3.35,2.73-6.08,6.08-6.08h273.7M686.83,0h-273.7c-3.91,0-7.08,3.17-7.08,7.08v88.33c0,3.91,3.17,7.08,7.08,7.08h273.7c3.91,0,7.08-3.17,7.08-7.08V7.08c0-3.91-3.17-7.08-7.08-7.08h0Z"/>
        <path d="M686.83,105.57c3.35,0,6.08,2.73,6.08,6.08v88.33c0,3.35-2.73,6.08-6.08,6.08h-273.7c-3.35,0-6.08-2.73-6.08-6.08v-88.33c0-3.35,2.73-6.08,6.08-6.08h273.7M686.83,104.57h-273.7c-3.91,0-7.08,3.17-7.08,7.08v88.33c0,3.91,3.17,7.08,7.08,7.08h273.7c3.91,0,7.08-3.17,7.08-7.08v-88.33c0-3.91-3.17-7.08-7.08-7.08h0Z"/>
        <path d="M686.83,210.14c3.35,0,6.08,2.73,6.08,6.08v88.33c0,3.35-2.73,6.08-6.08,6.08h-273.7c-3.35,0-6.08-2.73-6.08-6.08v-88.33c0-3.35,2.73-6.08,6.08-6.08h273.7M686.83,209.14h-273.7c-3.91,0-7.08,3.17-7.08,7.08v88.33c0,3.91,3.17,7.08,7.08,7.08h273.7c3.91,0,7.08-3.17,7.08-7.08v-88.33c0-3.91-3.17-7.08-7.08-7.08h0Z"/>
        <path d="M686.83,314.71c3.35,0,6.08,2.73,6.08,6.08v88.33c0,3.35-2.73,6.08-6.08,6.08h-273.7c-3.35,0-6.08-2.73-6.08-6.08v-88.33c0-3.35,2.73-6.08,6.08-6.08h273.7M686.83,313.71h-273.7c-3.91,0-7.08,3.17-7.08,7.08v88.33c0,3.91,3.17,7.08,7.08,7.08h273.7c3.91,0,7.08-3.17,7.08-7.08v-88.33c0-3.91-3.17-7.08-7.08-7.08h0Z"/>
      </g>
    </g>
  </g>
</svg>