<svg width="158" height="95" viewBox="0 0 158 95" fill="none" xmlns="http://www.w3.org/2000/svg">
<path d="M50.5806 0.226597C51.3231 0.226597 51.927 0.829344 51.927 1.57031V29.5323C51.927 30.2733 51.3231 30.8761 50.5806 30.8761H1.57353C0.831035 30.8761 0.227063 30.2733 0.227063 29.5323V1.57031C0.227063 0.829344 0.831035 0.226597 1.57353 0.226597H50.5806ZM50.5806 0H1.57353C0.70388 0 0 0.70245 0 1.57031V29.5323C0 30.4002 0.70388 31.1026 1.57353 31.1026H50.5806C51.4502 31.1026 52.1541 30.4002 52.1541 29.5323V1.57031C52.1541 0.70245 51.4502 0 50.5806 0Z" fill="black"/>
<path d="M103.206 0.226597C103.948 0.226597 104.552 0.829344 104.552 1.57031V29.5323C104.552 30.2733 103.948 30.8761 103.206 30.8761H54.1985C53.456 30.8761 52.8521 30.2733 52.8521 29.5323V1.57031C52.8521 0.829344 53.456 0.226597 54.1985 0.226597H103.206ZM103.206 0H54.1985C53.3289 0 52.625 0.70245 52.625 1.57031V29.5323C52.625 30.4002 53.3289 31.1026 54.1985 31.1026H103.206C104.075 31.1026 104.779 30.4002 104.779 29.5323V1.57031C104.779 0.70245 104.075 0 103.206 0Z" fill="black"/>
<path d="M155.838 0.226597C156.581 0.226597 157.185 0.829344 157.185 1.57031V29.5323C157.185 30.2733 156.581 30.8761 155.838 30.8761H106.831C106.089 30.8761 105.485 30.2733 105.485 29.5323V1.57031C105.485 0.829344 106.089 0.226597 106.831 0.226597H155.838ZM155.838 0H106.831C105.962 0 105.258 0.70245 105.258 1.57031V29.5323C105.258 30.4002 105.962 31.1026 106.831 31.1026H155.838C156.708 31.1026 157.412 30.4002 157.412 29.5323V1.57031C157.412 0.70245 156.708 0 155.838 0Z" fill="black"/>
<path d="M50.5806 31.8008C51.3231 31.8008 51.927 32.4036 51.927 33.1445V61.1065C51.927 61.8475 51.3231 62.4503 50.5806 62.4503H1.57353C0.831035 62.4503 0.227063 61.8475 0.227063 61.1065V33.1445C0.227063 32.4036 0.831035 31.8008 1.57353 31.8008H50.5806ZM50.5806 31.5742H1.57353C0.70388 31.5742 0 32.2767 0 33.1445V61.1065C0 61.9744 0.70388 62.6769 1.57353 62.6769H50.5806C51.4502 62.6769 52.1541 61.9744 52.1541 61.1065V33.1445C52.1541 32.2767 51.4502 31.5742 50.5806 31.5742Z" fill="black"/>
<path d="M103.206 31.8008C103.948 31.8008 104.552 32.4036 104.552 33.1445V61.1065C104.552 61.8475 103.948 62.4503 103.206 62.4503H54.1985C53.456 62.4503 52.8521 61.8475 52.8521 61.1065V33.1445C52.8521 32.4036 53.456 31.8008 54.1985 31.8008H103.206ZM103.206 31.5742H54.1985C53.3289 31.5742 52.625 32.2767 52.625 33.1445V61.1065C52.625 61.9744 53.3289 62.6769 54.1985 62.6769H103.206C104.075 62.6769 104.779 61.9744 104.779 61.1065V33.1445C104.779 32.2767 104.075 31.5742 103.206 31.5742Z" fill="black"/>
<path d="M155.838 31.8008C156.581 31.8008 157.185 32.4036 157.185 33.1445V61.1065C157.185 61.8475 156.581 62.4503 155.838 62.4503H106.831C106.089 62.4503 105.485 61.8475 105.485 61.1065V33.1445C105.485 32.4036 106.089 31.8008 106.831 31.8008H155.838ZM155.838 31.5742H106.831C105.962 31.5742 105.258 32.2767 105.258 33.1445V61.1065C105.258 61.9744 105.962 62.6769 106.831 62.6769H155.838C156.708 62.6769 157.412 61.9744 157.412 61.1065V33.1445C157.412 32.2767 156.708 31.5742 155.838 31.5742Z" fill="black"/>
<path d="M50.5806 63.375C51.3231 63.375 51.927 63.9778 51.927 64.7188V92.6808C51.927 93.4217 51.3231 94.0245 50.5806 94.0245H1.57353C0.831035 94.0245 0.227063 93.4217 0.227063 92.6808V64.7188C0.227063 63.9778 0.831035 63.375 1.57353 63.375H50.5806ZM50.5806 63.1484H1.57353C0.70388 63.1484 0 63.8509 0 64.7188V92.6808C0 93.5486 0.70388 94.2511 1.57353 94.2511H50.5806C51.4502 94.2511 52.1541 93.5486 52.1541 92.6808V64.7188C52.1541 63.8509 51.4502 63.1484 50.5806 63.1484Z" fill="black"/>
<path d="M103.206 63.375C103.948 63.375 104.552 63.9778 104.552 64.7188V92.6808C104.552 93.4217 103.948 94.0245 103.206 94.0245H54.1985C53.456 94.0245 52.8521 93.4217 52.8521 92.6808V64.7188C52.8521 63.9778 53.456 63.375 54.1985 63.375H103.206ZM103.206 63.1484H54.1985C53.3289 63.1484 52.625 63.8509 52.625 64.7188V92.6808C52.625 93.5486 53.3289 94.2511 54.1985 94.2511H103.206C104.075 94.2511 104.779 93.5486 104.779 92.6808V64.7188C104.779 63.8509 104.075 63.1484 103.206 63.1484Z" fill="black"/>
<path d="M155.838 63.375C156.581 63.375 157.185 63.9778 157.185 64.7188V92.6808C157.185 93.4217 156.581 94.0245 155.838 94.0245H106.831C106.089 94.0245 105.485 93.4217 105.485 92.6808V64.7188C105.485 63.9778 106.089 63.375 106.831 63.375H155.838ZM155.838 63.1484H106.831C105.962 63.1484 105.258 63.8509 105.258 64.7188V92.6808C105.258 93.5486 105.962 94.2511 106.831 94.2511H155.838C156.708 94.2511 157.412 93.5486 157.412 92.6808V64.7188C157.412 63.8509 156.708 63.1484 155.838 63.1484Z" fill="black"/>
</svg>
