<?xml version="1.0" encoding="UTF-8"?>
<svg id="Layer_2" data-name="Layer 2" xmlns="http://www.w3.org/2000/svg" viewBox="0 0 693.93 415.95">
  <defs>
    <style>
      .cls-1 {
        fill: #daff06;
      }
    </style>
  </defs>
  <g id="Layer_1-2" data-name="Layer 1">
    <g>
      <g>
        <rect class="cls-1" x="638.07" y="0" width="55.86" height="32.76" rx="6.93" ry="6.93" transform="translate(1332 32.76) rotate(-180)"/>
        <rect class="cls-1" x="580.12" y="0" width="55.86" height="32.76" rx="6.93" ry="6.93" transform="translate(1216.11 32.76) rotate(-180)"/>
        <rect class="cls-1" x="522.18" y="0" width="55.86" height="32.76" rx="6.93" ry="6.93" transform="translate(1100.23 32.76) rotate(-180)"/>
        <rect class="cls-1" x="464.24" y="0" width="55.86" height="32.76" rx="6.93" ry="6.93" transform="translate(984.34 32.76) rotate(-180)"/>
        <rect class="cls-1" x="406.29" y="0" width="55.86" height="32.76" rx="6.93" ry="6.93" transform="translate(868.45 32.76) rotate(-180)"/>
        <rect class="cls-1" x="348.35" y="0" width="55.86" height="32.76" rx="6.93" ry="6.93" transform="translate(752.56 32.76) rotate(-180)"/>
        <rect class="cls-1" x="290.41" y="0" width="55.86" height="32.76" rx="6.93" ry="6.93" transform="translate(636.68 32.76) rotate(-180)"/>
        <rect class="cls-1" x="232.46" y="0" width="55.86" height="32.76" rx="6.93" ry="6.93" transform="translate(520.79 32.76) rotate(-180)"/>
        <rect class="cls-1" x="174.52" y="0" width="55.86" height="32.76" rx="6.93" ry="6.93" transform="translate(404.9 32.76) rotate(-180)"/>
        <rect class="cls-1" x="116.58" y="0" width="55.86" height="32.76" rx="6.93" ry="6.93" transform="translate(289.02 32.76) rotate(-180)"/>
        <rect class="cls-1" x="58.63" y="0" width="55.86" height="32.76" rx="6.93" ry="6.93" transform="translate(173.13 32.76) rotate(-180)"/>
        <rect class="cls-1" x=".69" y="0" width="55.86" height="32.76" rx="6.93" ry="6.93" transform="translate(57.24 32.76) rotate(-180)"/>
        <rect class="cls-1" x="638.07" y="34.84" width="55.86" height="32.76" rx="6.93" ry="6.93" transform="translate(1332 102.43) rotate(-180)"/>
        <rect class="cls-1" x="580.12" y="34.84" width="55.86" height="32.76" rx="6.93" ry="6.93" transform="translate(1216.11 102.43) rotate(-180)"/>
        <rect class="cls-1" x="522.18" y="34.84" width="55.86" height="32.76" rx="6.93" ry="6.93" transform="translate(1100.23 102.43) rotate(-180)"/>
        <rect class="cls-1" x="464.24" y="34.84" width="55.86" height="32.76" rx="6.93" ry="6.93" transform="translate(984.34 102.43) rotate(-180)"/>
        <rect class="cls-1" x="406.29" y="34.84" width="55.86" height="32.76" rx="6.93" ry="6.93" transform="translate(868.45 102.43) rotate(-180)"/>
        <rect class="cls-1" x="348.35" y="34.84" width="55.86" height="32.76" rx="6.93" ry="6.93" transform="translate(752.56 102.43) rotate(-180)"/>
        <rect class="cls-1" x="290.41" y="34.84" width="55.86" height="32.76" rx="6.93" ry="6.93" transform="translate(636.68 102.43) rotate(-180)"/>
        <rect class="cls-1" x="232.46" y="34.84" width="55.86" height="32.76" rx="6.93" ry="6.93" transform="translate(520.79 102.43) rotate(-180)"/>
        <rect class="cls-1" x="174.52" y="34.84" width="55.86" height="32.76" rx="6.93" ry="6.93" transform="translate(404.9 102.43) rotate(-180)"/>
        <rect class="cls-1" x="116.58" y="34.84" width="55.86" height="32.76" rx="6.93" ry="6.93" transform="translate(289.02 102.43) rotate(-180)"/>
        <rect class="cls-1" x="58.63" y="34.84" width="55.86" height="32.76" rx="6.93" ry="6.93" transform="translate(173.13 102.43) rotate(-180)"/>
        <rect class="cls-1" x=".69" y="34.84" width="55.86" height="32.76" rx="6.93" ry="6.93" transform="translate(57.24 102.43) rotate(-180)"/>
        <rect class="cls-1" x="638.07" y="69.67" width="55.86" height="32.76" rx="6.93" ry="6.93" transform="translate(1332 172.1) rotate(-180)"/>
        <rect class="cls-1" x="580.12" y="69.67" width="55.86" height="32.76" rx="6.93" ry="6.93" transform="translate(1216.11 172.1) rotate(-180)"/>
        <rect class="cls-1" x="522.18" y="69.67" width="55.86" height="32.76" rx="6.93" ry="6.93" transform="translate(1100.23 172.1) rotate(-180)"/>
        <rect class="cls-1" x="464.24" y="69.67" width="55.86" height="32.76" rx="6.93" ry="6.93" transform="translate(984.34 172.1) rotate(-180)"/>
        <rect class="cls-1" x="406.29" y="69.67" width="55.86" height="32.76" rx="6.93" ry="6.93" transform="translate(868.45 172.1) rotate(-180)"/>
        <rect class="cls-1" x="348.35" y="69.67" width="55.86" height="32.76" rx="6.93" ry="6.93" transform="translate(752.56 172.1) rotate(-180)"/>
        <rect class="cls-1" x="290.41" y="69.67" width="55.86" height="32.76" rx="6.93" ry="6.93" transform="translate(636.68 172.1) rotate(-180)"/>
        <rect class="cls-1" x="232.46" y="69.67" width="55.86" height="32.76" rx="6.93" ry="6.93" transform="translate(520.79 172.1) rotate(-180)"/>
        <rect class="cls-1" x="174.52" y="69.67" width="55.86" height="32.76" rx="6.93" ry="6.93" transform="translate(404.9 172.1) rotate(-180)"/>
        <rect class="cls-1" x="116.58" y="69.67" width="55.86" height="32.76" rx="6.93" ry="6.93" transform="translate(289.02 172.1) rotate(-180)"/>
        <rect class="cls-1" x="58.63" y="69.67" width="55.86" height="32.76" rx="6.93" ry="6.93" transform="translate(173.13 172.1) rotate(-180)"/>
        <rect class="cls-1" x=".69" y="69.67" width="55.86" height="32.76" rx="6.93" ry="6.93" transform="translate(57.24 172.1) rotate(-180)"/>
        <rect class="cls-1" x="638.07" y="104.51" width="55.86" height="32.76" rx="6.93" ry="6.93" transform="translate(1332 241.77) rotate(-180)"/>
        <rect class="cls-1" x="580.12" y="104.51" width="55.86" height="32.76" rx="6.93" ry="6.93" transform="translate(1216.11 241.77) rotate(-180)"/>
        <rect class="cls-1" x="522.18" y="104.51" width="55.86" height="32.76" rx="6.93" ry="6.93" transform="translate(1100.23 241.77) rotate(-180)"/>
        <rect class="cls-1" x="464.24" y="104.51" width="55.86" height="32.76" rx="6.93" ry="6.93" transform="translate(984.34 241.77) rotate(-180)"/>
        <rect class="cls-1" x="406.29" y="104.51" width="55.86" height="32.76" rx="6.93" ry="6.93" transform="translate(868.45 241.77) rotate(-180)"/>
        <rect class="cls-1" x="348.35" y="104.51" width="55.86" height="32.76" rx="6.93" ry="6.93" transform="translate(752.56 241.77) rotate(-180)"/>
        <rect class="cls-1" x="290.41" y="104.51" width="55.86" height="32.76" rx="6.93" ry="6.93" transform="translate(636.68 241.77) rotate(-180)"/>
        <rect class="cls-1" x="232.46" y="104.51" width="55.86" height="32.76" rx="6.93" ry="6.93" transform="translate(520.79 241.77) rotate(-180)"/>
        <rect class="cls-1" x="174.52" y="104.51" width="55.86" height="32.76" rx="6.93" ry="6.93" transform="translate(404.9 241.77) rotate(-180)"/>
        <rect class="cls-1" x="116.58" y="104.51" width="55.86" height="32.76" rx="6.93" ry="6.93" transform="translate(289.02 241.77) rotate(-180)"/>
        <rect class="cls-1" x="58.63" y="104.51" width="55.86" height="32.76" rx="6.93" ry="6.93" transform="translate(173.13 241.77) rotate(-180)"/>
        <rect class="cls-1" x=".69" y="104.51" width="55.86" height="32.76" rx="6.93" ry="6.93" transform="translate(57.24 241.77) rotate(-180)"/>
        <rect class="cls-1" x="638.07" y="139.34" width="55.86" height="32.76" rx="6.93" ry="6.93" transform="translate(1332 311.44) rotate(-180)"/>
        <rect class="cls-1" x="580.12" y="139.34" width="55.86" height="32.76" rx="6.93" ry="6.93" transform="translate(1216.11 311.44) rotate(-180)"/>
        <rect class="cls-1" x="522.18" y="139.34" width="55.86" height="32.76" rx="6.93" ry="6.93" transform="translate(1100.23 311.44) rotate(-180)"/>
        <rect class="cls-1" x="464.24" y="139.34" width="55.86" height="32.76" rx="6.93" ry="6.93" transform="translate(984.34 311.44) rotate(-180)"/>
        <rect class="cls-1" x="406.29" y="139.34" width="55.86" height="32.76" rx="6.93" ry="6.93" transform="translate(868.45 311.44) rotate(-180)"/>
        <rect class="cls-1" x="348.35" y="139.34" width="55.86" height="32.76" rx="6.93" ry="6.93" transform="translate(752.56 311.44) rotate(-180)"/>
        <rect class="cls-1" x="290.41" y="139.34" width="55.86" height="32.76" rx="6.93" ry="6.93" transform="translate(636.68 311.44) rotate(-180)"/>
        <rect class="cls-1" x="232.46" y="139.34" width="55.86" height="32.76" rx="6.93" ry="6.93" transform="translate(520.79 311.44) rotate(-180)"/>
        <rect class="cls-1" x="174.52" y="139.34" width="55.86" height="32.76" rx="6.93" ry="6.93" transform="translate(404.9 311.44) rotate(-180)"/>
        <rect class="cls-1" x="116.58" y="139.34" width="55.86" height="32.76" rx="6.93" ry="6.93" transform="translate(289.02 311.44) rotate(-180)"/>
        <rect class="cls-1" x="58.63" y="139.34" width="55.86" height="32.76" rx="6.93" ry="6.93" transform="translate(173.13 311.44) rotate(-180)"/>
        <rect class="cls-1" x=".69" y="139.34" width="55.86" height="32.76" rx="6.93" ry="6.93" transform="translate(57.24 311.44) rotate(-180)"/>
        <rect class="cls-1" x="638.07" y="174.18" width="55.86" height="32.76" rx="6.93" ry="6.93" transform="translate(1332 381.11) rotate(-180)"/>
        <rect class="cls-1" x="580.12" y="174.18" width="55.86" height="32.76" rx="6.93" ry="6.93" transform="translate(1216.11 381.11) rotate(-180)"/>
        <rect class="cls-1" x="522.18" y="174.18" width="55.86" height="32.76" rx="6.93" ry="6.93" transform="translate(1100.23 381.11) rotate(-180)"/>
        <rect class="cls-1" x="464.24" y="174.18" width="55.86" height="32.76" rx="6.93" ry="6.93" transform="translate(984.34 381.11) rotate(-180)"/>
        <rect class="cls-1" x="406.29" y="174.18" width="55.86" height="32.76" rx="6.93" ry="6.93" transform="translate(868.45 381.11) rotate(-180)"/>
        <rect class="cls-1" x="348.35" y="174.18" width="55.86" height="32.76" rx="6.93" ry="6.93" transform="translate(752.56 381.11) rotate(-180)"/>
        <rect class="cls-1" x="290.41" y="174.18" width="55.86" height="32.76" rx="6.93" ry="6.93" transform="translate(636.68 381.11) rotate(-180)"/>
        <rect class="cls-1" x="232.46" y="174.18" width="55.86" height="32.76" rx="6.93" ry="6.93" transform="translate(520.79 381.11) rotate(-180)"/>
        <rect class="cls-1" x="174.52" y="174.18" width="55.86" height="32.76" rx="6.93" ry="6.93" transform="translate(404.9 381.11) rotate(-180)"/>
        <rect class="cls-1" x="116.58" y="174.18" width="55.86" height="32.76" rx="6.93" ry="6.93" transform="translate(289.02 381.11) rotate(-180)"/>
        <rect class="cls-1" x="58.63" y="174.18" width="55.86" height="32.76" rx="6.93" ry="6.93" transform="translate(173.13 381.11) rotate(-180)"/>
        <rect class="cls-1" x=".69" y="174.18" width="55.86" height="32.76" rx="6.93" ry="6.93" transform="translate(57.24 381.11) rotate(-180)"/>
        <rect class="cls-1" x="638.07" y="209.01" width="55.86" height="32.76" rx="6.93" ry="6.93" transform="translate(1332 450.78) rotate(-180)"/>
        <rect class="cls-1" x="580.12" y="209.01" width="55.86" height="32.76" rx="6.93" ry="6.93" transform="translate(1216.11 450.78) rotate(-180)"/>
        <rect class="cls-1" x="522.18" y="209.01" width="55.86" height="32.76" rx="6.93" ry="6.93" transform="translate(1100.23 450.78) rotate(-180)"/>
        <rect class="cls-1" x="464.24" y="209.01" width="55.86" height="32.76" rx="6.93" ry="6.93" transform="translate(984.34 450.78) rotate(-180)"/>
        <rect class="cls-1" x="406.29" y="209.01" width="55.86" height="32.76" rx="6.93" ry="6.93" transform="translate(868.45 450.78) rotate(-180)"/>
        <rect class="cls-1" x="348.35" y="209.01" width="55.86" height="32.76" rx="6.93" ry="6.93" transform="translate(752.56 450.78) rotate(-180)"/>
        <rect class="cls-1" x="290.41" y="209.01" width="55.86" height="32.76" rx="6.93" ry="6.93" transform="translate(636.68 450.78) rotate(-180)"/>
        <rect class="cls-1" x="232.46" y="209.01" width="55.86" height="32.76" rx="6.93" ry="6.93" transform="translate(520.79 450.78) rotate(-180)"/>
        <rect class="cls-1" x="174.52" y="209.01" width="55.86" height="32.76" rx="6.93" ry="6.93" transform="translate(404.9 450.78) rotate(-180)"/>
        <rect class="cls-1" x="116.58" y="209.01" width="55.86" height="32.76" rx="6.93" ry="6.93" transform="translate(289.02 450.78) rotate(-180)"/>
        <rect class="cls-1" x="58.63" y="209.01" width="55.86" height="32.76" rx="6.93" ry="6.93" transform="translate(173.13 450.78) rotate(-180)"/>
        <rect class="cls-1" x=".69" y="209.01" width="55.86" height="32.76" rx="6.93" ry="6.93" transform="translate(57.24 450.78) rotate(-180)"/>
        <rect class="cls-1" x="638.07" y="243.85" width="55.86" height="32.76" rx="6.93" ry="6.93" transform="translate(1332 520.45) rotate(-180)"/>
        <rect class="cls-1" x="580.12" y="243.85" width="55.86" height="32.76" rx="6.93" ry="6.93" transform="translate(1216.11 520.45) rotate(-180)"/>
        <rect class="cls-1" x="522.18" y="243.85" width="55.86" height="32.76" rx="6.93" ry="6.93" transform="translate(1100.23 520.45) rotate(-180)"/>
        <rect class="cls-1" x="464.24" y="243.85" width="55.86" height="32.76" rx="6.93" ry="6.93" transform="translate(984.34 520.45) rotate(-180)"/>
        <rect class="cls-1" x="406.29" y="243.85" width="55.86" height="32.76" rx="6.93" ry="6.93" transform="translate(868.45 520.45) rotate(-180)"/>
        <rect class="cls-1" x="348.35" y="243.85" width="55.86" height="32.76" rx="6.93" ry="6.93" transform="translate(752.56 520.45) rotate(-180)"/>
        <rect class="cls-1" x="290.41" y="243.85" width="55.86" height="32.76" rx="6.93" ry="6.93" transform="translate(636.68 520.45) rotate(-180)"/>
        <rect class="cls-1" x="232.46" y="243.85" width="55.86" height="32.76" rx="6.93" ry="6.93" transform="translate(520.79 520.45) rotate(-180)"/>
        <rect class="cls-1" x="174.52" y="243.85" width="55.86" height="32.76" rx="6.93" ry="6.93" transform="translate(404.9 520.45) rotate(-180)"/>
        <rect class="cls-1" x="116.58" y="243.85" width="55.86" height="32.76" rx="6.93" ry="6.93" transform="translate(289.02 520.45) rotate(-180)"/>
        <rect class="cls-1" x="58.63" y="243.85" width="55.86" height="32.76" rx="6.93" ry="6.93" transform="translate(173.13 520.45) rotate(-180)"/>
        <rect class="cls-1" x=".69" y="243.85" width="55.86" height="32.76" rx="6.93" ry="6.93" transform="translate(57.24 520.45) rotate(-180)"/>
        <rect class="cls-1" x="638.07" y="278.68" width="55.86" height="32.76" rx="6.93" ry="6.93" transform="translate(1332 590.12) rotate(-180)"/>
        <rect class="cls-1" x="580.12" y="278.68" width="55.86" height="32.76" rx="6.93" ry="6.93" transform="translate(1216.11 590.12) rotate(-180)"/>
        <rect class="cls-1" x="522.18" y="278.68" width="55.86" height="32.76" rx="6.93" ry="6.93" transform="translate(1100.23 590.12) rotate(-180)"/>
        <rect class="cls-1" x="464.24" y="278.68" width="55.86" height="32.76" rx="6.93" ry="6.93" transform="translate(984.34 590.12) rotate(-180)"/>
        <rect class="cls-1" x="406.29" y="278.68" width="55.86" height="32.76" rx="6.93" ry="6.93" transform="translate(868.45 590.12) rotate(-180)"/>
        <rect class="cls-1" x="348.35" y="278.68" width="55.86" height="32.76" rx="6.93" ry="6.93" transform="translate(752.56 590.12) rotate(-180)"/>
        <rect class="cls-1" x="290.41" y="278.68" width="55.86" height="32.76" rx="6.93" ry="6.93" transform="translate(636.68 590.12) rotate(-180)"/>
        <rect class="cls-1" x="232.46" y="278.68" width="55.86" height="32.76" rx="6.93" ry="6.93" transform="translate(520.79 590.12) rotate(-180)"/>
        <rect class="cls-1" x="174.52" y="278.68" width="55.86" height="32.76" rx="6.93" ry="6.93" transform="translate(404.9 590.12) rotate(-180)"/>
        <rect class="cls-1" x="116.58" y="278.68" width="55.86" height="32.76" rx="6.93" ry="6.93" transform="translate(289.02 590.12) rotate(-180)"/>
        <rect class="cls-1" x="58.63" y="278.68" width="55.86" height="32.76" rx="6.93" ry="6.93" transform="translate(173.13 590.12) rotate(-180)"/>
        <rect class="cls-1" x=".69" y="278.68" width="55.86" height="32.76" rx="6.93" ry="6.93" transform="translate(57.24 590.12) rotate(-180)"/>
        <rect class="cls-1" x="638.07" y="313.52" width="55.86" height="32.76" rx="6.93" ry="6.93" transform="translate(1332 659.79) rotate(-180)"/>
        <rect class="cls-1" x="580.12" y="313.52" width="55.86" height="32.76" rx="6.93" ry="6.93" transform="translate(1216.11 659.79) rotate(-180)"/>
        <rect class="cls-1" x="522.18" y="313.52" width="55.86" height="32.76" rx="6.93" ry="6.93" transform="translate(1100.23 659.79) rotate(-180)"/>
        <rect class="cls-1" x="464.24" y="313.52" width="55.86" height="32.76" rx="6.93" ry="6.93" transform="translate(984.34 659.79) rotate(-180)"/>
        <rect class="cls-1" x="406.29" y="313.52" width="55.86" height="32.76" rx="6.93" ry="6.93" transform="translate(868.45 659.79) rotate(-180)"/>
        <rect class="cls-1" x="348.35" y="313.52" width="55.86" height="32.76" rx="6.93" ry="6.93" transform="translate(752.56 659.79) rotate(-180)"/>
        <rect class="cls-1" x="290.41" y="313.52" width="55.86" height="32.76" rx="6.93" ry="6.93" transform="translate(636.68 659.79) rotate(-180)"/>
        <rect class="cls-1" x="232.46" y="313.52" width="55.86" height="32.76" rx="6.93" ry="6.93" transform="translate(520.79 659.79) rotate(-180)"/>
        <rect class="cls-1" x="174.52" y="313.52" width="55.86" height="32.76" rx="6.93" ry="6.93" transform="translate(404.9 659.79) rotate(-180)"/>
        <rect class="cls-1" x="116.58" y="313.52" width="55.86" height="32.76" rx="6.93" ry="6.93" transform="translate(289.02 659.79) rotate(-180)"/>
        <rect class="cls-1" x="58.63" y="313.52" width="55.86" height="32.76" rx="6.93" ry="6.93" transform="translate(173.13 659.79) rotate(-180)"/>
        <rect class="cls-1" x=".69" y="313.52" width="55.86" height="32.76" rx="6.93" ry="6.93" transform="translate(57.24 659.79) rotate(-180)"/>
        <rect class="cls-1" x="638.07" y="348.35" width="55.86" height="32.76" rx="6.93" ry="6.93" transform="translate(1332 729.46) rotate(-180)"/>
        <rect class="cls-1" x="580.12" y="348.35" width="55.86" height="32.76" rx="6.93" ry="6.93" transform="translate(1216.11 729.46) rotate(-180)"/>
        <rect class="cls-1" x="522.18" y="348.35" width="55.86" height="32.76" rx="6.93" ry="6.93" transform="translate(1100.23 729.46) rotate(-180)"/>
        <rect class="cls-1" x="464.24" y="348.35" width="55.86" height="32.76" rx="6.93" ry="6.93" transform="translate(984.34 729.46) rotate(-180)"/>
        <rect class="cls-1" x="406.29" y="348.35" width="55.86" height="32.76" rx="6.93" ry="6.93" transform="translate(868.45 729.46) rotate(-180)"/>
        <rect class="cls-1" x="348.35" y="348.35" width="55.86" height="32.76" rx="6.93" ry="6.93" transform="translate(752.56 729.46) rotate(-180)"/>
        <rect class="cls-1" x="290.41" y="348.35" width="55.86" height="32.76" rx="6.93" ry="6.93" transform="translate(636.68 729.46) rotate(-180)"/>
        <rect class="cls-1" x="232.46" y="348.35" width="55.86" height="32.76" rx="6.93" ry="6.93" transform="translate(520.79 729.46) rotate(-180)"/>
        <rect class="cls-1" x="174.52" y="348.35" width="55.86" height="32.76" rx="6.93" ry="6.93" transform="translate(404.9 729.46) rotate(-180)"/>
        <rect class="cls-1" x="116.58" y="348.35" width="55.86" height="32.76" rx="6.93" ry="6.93" transform="translate(289.02 729.46) rotate(-180)"/>
        <rect class="cls-1" x="58.63" y="348.35" width="55.86" height="32.76" rx="6.93" ry="6.93" transform="translate(173.13 729.46) rotate(-180)"/>
        <rect class="cls-1" x=".69" y="348.35" width="55.86" height="32.76" rx="6.93" ry="6.93" transform="translate(57.24 729.46) rotate(-180)"/>
        <rect class="cls-1" x="638.07" y="383.19" width="55.86" height="32.76" rx="6.93" ry="6.93" transform="translate(1332 799.13) rotate(-180)"/>
        <rect class="cls-1" x="580.12" y="383.19" width="55.86" height="32.76" rx="6.93" ry="6.93" transform="translate(1216.11 799.13) rotate(-180)"/>
        <rect class="cls-1" x="522.18" y="383.19" width="55.86" height="32.76" rx="6.93" ry="6.93" transform="translate(1100.23 799.13) rotate(-180)"/>
        <rect class="cls-1" x="464.24" y="383.19" width="55.86" height="32.76" rx="6.93" ry="6.93" transform="translate(984.34 799.13) rotate(-180)"/>
        <rect class="cls-1" x="406.29" y="383.19" width="55.86" height="32.76" rx="6.93" ry="6.93" transform="translate(868.45 799.13) rotate(-180)"/>
        <rect class="cls-1" x="348.35" y="383.19" width="55.86" height="32.76" rx="6.93" ry="6.93" transform="translate(752.56 799.13) rotate(-180)"/>
        <rect class="cls-1" x="290.41" y="383.19" width="55.86" height="32.76" rx="6.93" ry="6.93" transform="translate(636.68 799.13) rotate(-180)"/>
        <rect class="cls-1" x="232.46" y="383.19" width="55.86" height="32.76" rx="6.93" ry="6.93" transform="translate(520.79 799.13) rotate(-180)"/>
        <rect class="cls-1" x="174.52" y="383.19" width="55.86" height="32.76" rx="6.93" ry="6.93" transform="translate(404.9 799.13) rotate(-180)"/>
        <rect class="cls-1" x="116.58" y="383.19" width="55.86" height="32.76" rx="6.93" ry="6.93" transform="translate(289.02 799.13) rotate(-180)"/>
        <rect class="cls-1" x="58.63" y="383.19" width="55.86" height="32.76" rx="6.93" ry="6.93" transform="translate(173.13 799.13) rotate(-180)"/>
        <rect class="cls-1" x=".69" y="383.19" width="55.86" height="32.76" rx="6.93" ry="6.93" transform="translate(57.24 799.13) rotate(-180)"/>
      </g>
      <g>
        <path d="M687,314.52c3.27,0,5.94,2.66,5.94,5.94v88.55c0,3.27-2.66,5.94-5.94,5.94h-100.05c-3.27,0-5.94-2.66-5.94-5.94v-88.55c0-3.27,2.66-5.94,5.94-5.94h100.05M687,313.52h-100.05c-3.83,0-6.94,3.11-6.94,6.94v88.55c0,3.83,3.11,6.94,6.94,6.94h100.05c3.83,0,6.94-3.11,6.94-6.94v-88.55c0-3.83-3.11-6.94-6.94-6.94h0Z"/>
        <path d="M570.99,314.52c3.27,0,5.94,2.66,5.94,5.94v88.55c0,3.27-2.66,5.94-5.94,5.94h-100.05c-3.27,0-5.94-2.66-5.94-5.94v-88.55c0-3.27,2.66-5.94,5.94-5.94h100.05M570.99,313.52h-100.05c-3.83,0-6.94,3.11-6.94,6.94v88.55c0,3.83,3.11,6.94,6.94,6.94h100.05c3.83,0,6.94-3.11,6.94-6.94v-88.55c0-3.83-3.11-6.94-6.94-6.94h0Z"/>
        <path d="M570.99,210.01c3.27,0,5.94,2.66,5.94,5.94v88.55c0,3.27-2.66,5.94-5.94,5.94h-100.05c-3.27,0-5.94-2.66-5.94-5.94v-88.55c0-3.27,2.66-5.94,5.94-5.94h100.05M570.99,209.01h-100.05c-3.83,0-6.94,3.11-6.94,6.94v88.55c0,3.83,3.11,6.94,6.94,6.94h100.05c3.83,0,6.94-3.11,6.94-6.94v-88.55c0-3.83-3.11-6.94-6.94-6.94h0Z"/>
        <path d="M687,210.01c3.27,0,5.94,2.66,5.94,5.94v88.55c0,3.27-2.66,5.94-5.94,5.94h-100.05c-3.27,0-5.94-2.66-5.94-5.94v-88.55c0-3.27,2.66-5.94,5.94-5.94h100.05M687,209.01h-100.05c-3.83,0-6.94,3.11-6.94,6.94v88.55c0,3.83,3.11,6.94,6.94,6.94h100.05c3.83,0,6.94-3.11,6.94-6.94v-88.55c0-3.83-3.11-6.94-6.94-6.94h0Z"/>
        <path d="M687,1c3.27,0,5.94,2.66,5.94,5.94v193.06c0,3.27-2.66,5.94-5.94,5.94h-216.05c-3.27,0-5.94-2.66-5.94-5.94V6.94c0-3.27,2.66-5.94,5.94-5.94h216.05M687,0h-216.05c-3.83,0-6.94,3.11-6.94,6.94v193.06c0,3.83,3.11,6.94,6.94,6.94h216.05c3.83,0,6.94-3.11,6.94-6.94V6.94C693.93,3.11,690.83,0,687,0h0Z"/>
        <path d="M454.99,1c3.27,0,5.94,2.66,5.94,5.94v402.07c0,3.27-2.66,5.94-5.94,5.94H6.94c-3.27,0-5.94-2.66-5.94-5.94V6.94C1,3.66,3.66,1,6.94,1h448.06M454.99,0H6.94C3.11,0,0,3.11,0,6.94v402.07c0,3.83,3.11,6.94,6.94,6.94h448.06c3.83,0,6.94-3.11,6.94-6.94V6.94C461.93,3.11,458.82,0,454.99,0h0Z"/>
      </g>
    </g>
  </g>
</svg>